# Original visual geometry, without decimation. Units: metres.
v -0.12282460182905197 -0.017500000074505806 -0.10869348794221878
v -0.12282460182905197 -0.012500000186264515 -0.10869348794221878
v -0.12273672223091125 -0.017500000074505806 -0.10824792087078094
v -0.12273672223091125 -0.012500000186264515 -0.10824792087078094
v -0.12269069999456406 -0.017999999225139618 -0.10868889093399048
v -0.12269069999456406 -0.012000000104308128 -0.10868889093399048
v -0.12261459976434708 -0.017999999225139618 -0.1083030104637146
v -0.12261459976434708 -0.012000000104308128 -0.1083030104637146
v -0.12246083468198776 -0.017500000074505806 -0.10788716375827789
v -0.12246083468198776 -0.012500000186264515 -0.10788716375827789
v -0.12237567454576492 -0.017999999225139618 -0.10799058526754379
v -0.12237567454576492 -0.012000000104308128 -0.10799058526754379
v -0.12232489138841629 -0.018366025760769844 -0.10867632180452347
v -0.12232489138841629 -0.011633974500000477 -0.10867632180452347
v -0.12228096276521683 -0.018366025760769844 -0.10845353454351425
v -0.12228096276521683 -0.011633974500000477 -0.10845353454351425
v -0.12226478755474091 -0.014999999664723873 -0.12498529255390167
v -0.12225719541311264 -0.015824999660253525 -0.12520621716976166
v -0.12225719541311264 -0.014174999669194221 -0.12520621716976166
v -0.1222364529967308 -0.016428941860795021 -0.12580980360507965
v -0.1222364529967308 -0.0135710583999753 -0.12580980360507965
v -0.1222081184387207 -0.016650000587105751 -0.12663431465625763
v -0.1222081184387207 -0.01334999967366457 -0.12663431465625763
v -0.1221797913312912 -0.016428941860795021 -0.12745882570743561
v -0.1221797913312912 -0.0135710583999753 -0.12745882570743561
v -0.12215904891490936 -0.015824999660253525 -0.1280624121427536
v -0.12215904891490936 -0.014174999669194221 -0.1280624121427536
v -0.1221514567732811 -0.014999999664723873 -0.12828333675861359
v -0.12214301526546478 -0.018366025760769844 -0.10827314853668213
v -0.12214301526546478 -0.011633974500000477 -0.10827314853668213
v -0.1220538467168808 -0.017500000074505806 -0.1076856404542923
v -0.1220538467168808 -0.012500000186264515 -0.1076856404542923
v -0.12202321738004684 -0.017999999225139618 -0.10781606286764145
v -0.12202321738004684 -0.012000000104308128 -0.10781606286764145
v -0.121939517557621 -0.018366025760769844 -0.10817238688468933
v -0.121939517557621 -0.011633974500000477 -0.10817238688468933
v -0.12182518839836121 -0.018500000238418579 -0.10865914821624756
v -0.12182518839836121 -0.011500000022351742 -0.10865914821624756
v -0.12171243876218796 -0.018366025760769844 -0.10817202180624008
v -0.12171243876218796 -0.011633974500000477 -0.10817202180624008
v -0.12162990123033524 -0.017999999225139618 -0.10781542211771011
v -0.12162990123033524 -0.012000000104308128 -0.10781542211771011
v -0.12159969657659531 -0.017500000074505806 -0.1076849028468132
v -0.12159969657659531 -0.012500000186264515 -0.1076849028468132
v -0.12159164249897003 -0.017500000074505806 -0.14457513391971588
v -0.12159164249897003 -0.012500000186264515 -0.14457513391971588
v -0.12147338688373566 -0.017500000074505806 -0.14501363039016724
v -0.12147338688373566 -0.012500000186264515 -0.14501363039016724
v -0.12145774811506271 -0.017999999225139618 -0.14457054436206818
v -0.12145774811506271 -0.012000000104308128 -0.14457054436206818
v -0.1213553324341774 -0.017999999225139618 -0.14495028555393219
v -0.1213553324341774 -0.012000000104308128 -0.14495028555393219
v -0.12117338925600052 -0.017500000074505806 -0.14535459876060486
v -0.12117338925600052 -0.012500000186264515 -0.14535459876060486
v -0.12109552323818207 -0.017999999225139618 -0.14524558186531067
v -0.12109552323818207 -0.012000000104308128 -0.14524558186531067
v -0.12109193950891495 -0.018366025760769844 -0.14455796778202057
v -0.12109193950891495 -0.011633974500000477 -0.14455796778202057
v -0.12103281170129776 -0.018366025760769844 -0.14477722346782684
v -0.12103281170129776 -0.011633974500000477 -0.14477722346782684
v -0.12088281661272049 -0.018366025760769844 -0.14494770765304565
v -0.12088281661272049 -0.011633974500000477 -0.14494770765304565
v -0.12075352668762207 -0.017500000074505806 -0.14552772045135498
v -0.12075352668762207 -0.012500000186264515 -0.14552772045135498
v -0.12073192000389099 -0.017999999225139618 -0.14539550244808197
v -0.12073192000389099 -0.012000000104308128 -0.14539550244808197
v -0.12067288160324097 -0.018366025760769844 -0.14503425359725952
v -0.12067288160324097 -0.011633974500000477 -0.14503425359725952
v -0.12059222906827927 -0.018500000238418579 -0.14454080164432526
v -0.12059222906827927 -0.011500000022351742 -0.14454080164432526
v -0.12048055231571198 -0.011576120741665363 -0.14490683376789093
v -0.12044630944728851 -0.018366025760769844 -0.1450190395116806
v -0.12044630944728851 -0.011633974500000477 -0.1450190395116806
v -0.12038587033748627 -0.011792893521487713 -0.14521713554859161
v -0.12033949047327042 -0.017999999225139618 -0.14536912739276886
v -0.12033949047327042 -0.012000000104308128 -0.14536912739276886
v -0.12032261490821838 -0.012117316946387291 -0.14542445540428162
v -0.12030038982629776 -0.017500000074505806 -0.14549727737903595
v -0.12030038982629776 -0.012500000186264515 -0.14549727737903595
v -0.11886312067508698 -0.018500000238418579 -0.11871477216482162
v -0.11886312067508698 -0.011500000022351742 -0.11871477216482162
v -0.1186092421412468 -0.018500000238418579 -0.1176179051399231
v -0.1186092421412468 -0.011500000022351742 -0.1176179051399231
v -0.11853455007076263 -0.018500000238418579 -0.11979162693023682
v -0.11853455007076263 -0.011500000022351742 -0.11979162693023682
v -0.11832738667726517 -0.018500000238418579 -0.13430556654930115
v -0.11832738667726517 -0.011500000022351742 -0.13430556654930115
v -0.11807351559400558 -0.018500000238418579 -0.13320870697498322
v -0.11807351559400558 -0.011500000022351742 -0.13320870697498322
v -0.11799882352352142 -0.018500000238418579 -0.13538242876529694
v -0.11799882352352142 -0.011500000022351742 -0.13538242876529694
v -0.11784094572067261 -0.018500000238418579 -0.11679493635892868
v -0.11784094572067261 -0.011500000022351742 -0.11679493635892868
v -0.11771157383918762 -0.018500000238418579 -0.120559923350811
v -0.11771157383918762 -0.011500000022351742 -0.120559923350811
v -0.1173052117228508 -0.018500000238418579 -0.1323857307434082
v -0.1173052117228508 -0.011500000022351742 -0.1323857307434082
v -0.11717584729194641 -0.018500000238418579 -0.13615071773529053
v -0.11717584729194641 -0.011500000022351742 -0.13615071773529053
v -0.11676409095525742 -0.018500000238418579 -0.11646635830402374
v -0.11676409095525742 -0.011500000022351742 -0.11646635830402374
v -0.11661470681428909 -0.018500000238418579 -0.12081380188465118
v -0.11661470681428909 -0.011500000022351742 -0.12081380188465118
v -0.1162283644080162 -0.018500000238418579 -0.13205716013908386
v -0.1162283644080162 -0.011500000022351742 -0.13205716013908386
v -0.11607898026704788 -0.018500000238418579 -0.13640458881855011
v -0.11607898026704788 -0.011500000022351742 -0.13640458881855011
v -0.11566723138093948 -0.018500000238418579 -0.11672024428844452
v -0.11566723138093948 -0.011500000022351742 -0.11672024428844452
v -0.1155378594994545 -0.018500000238418579 -0.12048522382974625
v -0.1155378594994545 -0.011500000022351742 -0.12048522382974625
v -0.11537610739469528 -0.018500000238418579 -0.11015182733535767
v -0.11537610739469528 -0.011500000022351742 -0.11015182733535767
v -0.11528982222080231 -0.018423879519104958 -0.1097790002822876
v -0.11528982222080231 -0.011576120741665363 -0.1097790002822876
v -0.11526336520910263 -0.018366025760769844 -0.10966470837593079
v -0.11526336520910263 -0.011633974500000477 -0.10966470837593079
v -0.11521666496992111 -0.018207106739282608 -0.1094629243016243
v -0.11521666496992111 -0.011792893521487713 -0.1094629243016243
v -0.11518082767724991 -0.017999999225139618 -0.10930810868740082
v -0.11518082767724991 -0.012000000104308128 -0.10930810868740082
v -0.1151677742600441 -0.017882684245705605 -0.10925173759460449
v -0.1151677742600441 -0.012117316946387291 -0.10925173759460449
v -0.11515061557292938 -0.017500000074505806 -0.10917757451534271
v -0.11515061557292938 -0.012500000186264515 -0.10917757451534271
v -0.11513150483369827 -0.018500000238418579 -0.13231104612350464
v -0.11513150483369827 -0.011500000022351742 -0.13231104612350464
v -0.11500213295221329 -0.018500000238418579 -0.13607603311538696
v -0.11500213295221329 -0.011500000022351742 -0.13607603311538696
v -0.11489077657461166 -0.017500000074505806 -0.10920275002717972
v -0.11489077657461166 -0.012500000186264515 -0.10920275002717972
v -0.11488816142082214 -0.017882684245705605 -0.10927882790565491
v -0.11488816142082214 -0.012117316946387291 -0.10927882790565491
v -0.11488617956638336 -0.017999999225139618 -0.10933664441108704
v -0.11488617956638336 -0.012000000104308128 -0.10933664441108704
v -0.11488071829080582 -0.018207106739282608 -0.10949546843767166
v -0.11488071829080582 -0.011792893521487713 -0.10949546843767166
v -0.11487361043691635 -0.018366025760769844 -0.1097024530172348
v -0.11487361043691635 -0.011633974500000477 -0.1097024530172348
v -0.11486957967281342 -0.018423879519104958 -0.10981970280408859
v -0.11486957967281342 -0.011576120741665363 -0.10981970280408859
v -0.11485643684864044 -0.018500000238418579 -0.11020216345787048
v -0.11485643684864044 -0.011500000022351742 -0.11020216345787048
v -0.11484424769878387 -0.018500000238418579 -0.11748853325843811
v -0.11484424769878387 -0.011500000022351742 -0.11748853325843811
v -0.11476955562829971 -0.018500000238418579 -0.11966225504875183
v -0.11476955562829971 -0.011500000022351742 -0.11966225504875183
v -0.11451568454504013 -0.018500000238418579 -0.1185653880238533
v -0.11451568454504013 -0.011500000022351742 -0.1185653880238533
v -0.11430852115154266 -0.018500000238418579 -0.13307933509349823
v -0.11430852115154266 -0.011500000022351742 -0.13307933509349823
v -0.11426082253456116 -0.018500000238418579 -0.14260897040367126
v -0.11426082253456116 -0.011500000022351742 -0.14260897040367126
v -0.1142338290810585 -0.018500000238418579 -0.13525305688381195
v -0.1142338290810585 -0.011500000022351742 -0.13525305688381195
v -0.11414914578199387 -0.011576120741665363 -0.14297498762607574
v -0.1141149029135704 -0.018366025760769844 -0.14308720827102661
v -0.1141149029135704 -0.011633974500000477 -0.14308720827102661
v -0.11405446380376816 -0.011792893521487713 -0.14328528940677643
v -0.11400808393955231 -0.017999999225139618 -0.14343728125095367
v -0.11400808393955231 -0.012000000104308128 -0.14343728125095367
v -0.11399120092391968 -0.012117316946387291 -0.14349262416362762
v -0.11397995799779892 -0.018500000238418579 -0.13415618240833282
v -0.11397995799779892 -0.011500000022351742 -0.13415618240833282
v -0.11396898329257965 -0.017500000074505806 -0.14356543123722076
v -0.11396898329257965 -0.012500000186264515 -0.14356543123722076
v -0.11374583095312119 -0.018500000238418579 -0.14252308011054993
v -0.11374583095312119 -0.011500000022351742 -0.14252308011054993
v -0.11372866481542587 -0.018366025760769844 -0.14302279055118561
v -0.11372866481542587 -0.011633974500000477 -0.14302279055118561
v -0.11371609568595886 -0.017999999225139618 -0.14338858425617218
v -0.11371609568595886 -0.012000000104308128 -0.14338858425617218
v -0.11371149122714996 -0.017500000074505806 -0.1435224860906601
v -0.11371149122714996 -0.012500000186264515 -0.1435224860906601
v -0.11222030967473984 -0.017951447516679764 -0.10921874642372131
v -0.11222030967473984 -0.012048553675413132 -0.10921874642372131
v -0.11221940815448761 -0.017999999225139618 -0.10924500972032547
v -0.11221940815448761 -0.012000000104308128 -0.10924500972032547
v -0.11221446841955185 -0.017953997477889061 -0.10921982675790787
v -0.11221446841955185 -0.012046003714203835 -0.10921982675790787
v -0.11221280694007874 -0.011761093512177467 -0.10943711549043655
v -0.1122068390250206 -0.018366025760769844 -0.10961081832647324
v -0.1122068390250206 -0.011633974500000477 -0.10961081832647324
v -0.11220207810401917 -0.011567555367946625 -0.10974942147731781
v -0.11218966543674469 -0.018500000238418579 -0.11011052876710892
v -0.11218966543674469 -0.011500000022351742 -0.11011052876710892
v -0.11208906769752502 -0.018011277541518211 -0.10923720151185989
v -0.11183685064315796 -0.017844598740339279 -0.10915909707546234
v -0.11183685064315796 -0.012155400589108467 -0.10915909707546234
v -0.1118072122335434 -0.018576120957732201 -0.11009738594293594
v -0.11172185838222504 -0.018217677250504494 -0.10921730101108551
v -0.11172185838222504 -0.011782323010265827 -0.10921730101108551
v -0.11171620339155197 -0.011662098579108715 -0.1093297153711319
v -0.11170943081378937 -0.01848204992711544 -0.10952670127153397
v -0.1117040291428566 -0.011442631483078003 -0.10968387126922607
v -0.11168996244668961 -0.018633974716067314 -0.11009335517883301
v -0.11168996244668961 -0.011366025544703007 -0.11009335517883301
v -0.1116841658949852 -0.018243618309497833 -0.10920765995979309
v -0.1116841658949852 -0.011756381951272488 -0.10920765995979309
v -0.11159782856702805 -0.018189199268817902 -0.10918340086936951
v -0.11159782856702805 -0.011810800991952419 -0.10918340086936951
v -0.11154946684837341 -0.01163781713694334 -0.10916975140571594
v -0.11151428520679474 -0.017703799530863762 -0.10910772532224655
v -0.11151428520679474 -0.012296199798583984 -0.10910772532224655
v -0.11148297041654587 -0.01879289373755455 -0.11008623987436295
v -0.11144672334194183 -0.01849166676402092 -0.10914058238267899
v -0.11141330748796463 -0.011456162668764591 -0.10913105309009552
v -0.11138799041509628 -0.017599133774638176 -0.10908731073141098
v -0.11138799041509628 -0.01240086741745472 -0.10908731073141098
v -0.11135948449373245 -0.017550533637404442 -0.10908268392086029
v -0.11135948449373245 -0.012449466623365879 -0.10908268392086029
v -0.11135763674974442 -0.018646650016307831 -0.1091151162981987
v -0.11135740578174591 -0.011352880857884884 -0.10911504924297333
v -0.11134991049766541 -0.018799038603901863 -0.10933122038841248
v -0.11134952306747437 -0.017500000074505806 -0.10908106714487076
v -0.11134952306747437 -0.012500000186264515 -0.10908106714487076
v -0.11134276539087296 -0.011101332493126392 -0.10953913629055023
v -0.11132415384054184 -0.018999999389052391 -0.110080786049366
v -0.11132415384054184 -0.010999999940395355 -0.110080786049366
v -0.11132010072469711 -0.011267948895692825 -0.10910433530807495
v -0.11129501461982727 -0.018800597637891769 -0.10909711569547653
v -0.11127058416604996 -0.017907600849866867 -0.10909006744623184
v -0.11127058416604996 -0.012092399410903454 -0.10909006744623184
v -0.11126632988452911 -0.019117316231131554 -0.11007879674434662
v -0.11122459918260574 -0.027000000700354576 -0.10907676815986633
v -0.11122459918260574 -0.019232051447033882 -0.10907676815986633
v -0.11122459918260574 -0.010767948813736439 -0.10907676815986633
v -0.11122459918260574 -0.0029999997932463884 -0.10907676815986633
v -0.11121506989002228 -0.010635110549628735 -0.10935398191213608
v -0.11119025200605392 -0.019500000402331352 -0.1100761815905571
v -0.11119025200605392 -0.010499999858438969 -0.1100761815905571
v -0.11114247143268585 -0.017698265612125397 -0.10905291885137558
v -0.11114247143268585 -0.012301734648644924 -0.10905291885137558
v -0.11111851036548615 -0.029999999329447746 -0.11216408759355545
v -0.11111851036548615 -3.3527558507273625e-10 -0.11216408759355545
v -0.11111355572938919 -0.017601067200303078 -0.10904448479413986
v -0.11111355572938919 -0.012398933060467243 -0.10904448479413986
v -0.11110345274209976 -0.017500000074505806 -0.10904152691364288
v -0.11110345274209976 -0.012500000186264515 -0.10904152691364288
v -0.11107906699180603 -0.018500000238418579 -0.14243143796920776
v -0.11107906699180603 -0.011500000022351742 -0.14243143796920776
v -0.11106189340353012 -0.018366025760769844 -0.14293114840984344
v -0.11106189340353012 -0.011633974500000477 -0.14293114840984344
v -0.11104932427406311 -0.017999999225139618 -0.14329695701599121
v -0.11104932427406311 -0.012000000104308128 -0.14329695701599121
v -0.11104471981525421 -0.017500000074505806 -0.14343085885047913
v -0.11104471981525421 -0.012500000186264515 -0.14343085885047913
v -0.11104024946689606 -0.017495527863502502 -0.14343069493770599
v -0.11104024946689606 -0.012504472397267818 -0.14343069493770599
v -0.11074689030647278 -0.017195148393511772 -0.14342062175273895
v -0.11074689030647278 -0.012804850935935974 -0.14342062175273895
v -0.11069660633802414 -0.018576120957732201 -0.14241829514503479
v -0.11058914661407471 -0.017018375918269157 -0.14341519773006439
v -0.11058914661407471 -0.012981624342501163 -0.14341519773006439
v -0.11057935655117035 -0.018633974716067314 -0.14241427183151245
v -0.11057935655117035 -0.011366025544703007 -0.14241427183151245
v -0.11055988818407059 -0.01848204992711544 -0.1429809182882309
v -0.11055988818407059 -0.011517949402332306 -0.1429809182882309
v -0.11054563522338867 -0.01806698739528656 -0.14339575171470642
v -0.11054563522338867 -0.011933012865483761 -0.14339575171470642
v -0.11054178327322006 -0.017202205955982208 -0.14350779354572296
v -0.11054178327322006 -0.012797793373465538 -0.14350779354572296
v -0.11054041236639023 -0.017500000074505806 -0.14354757964611053
v -0.11054041236639023 -0.012500000186264515 -0.14354757964611053
v -0.11052282899618149 -0.017494006082415581 -0.14355716109275818
v -0.11052282899618149 -0.01249400619417429 -0.14355716109275818
v -0.11045929789543152 -0.017876353114843369 -0.14353597164154053
v -0.11045929789543152 -0.012876354157924652 -0.14353597164154053
v -0.11045510321855545 -0.017110476270318031 -0.14353457093238831
v -0.11045510321855545 -0.012110475450754166 -0.14353457093238831
v -0.11045421659946442 -0.016849018633365631 -0.14341056346893311
v -0.11045421659946442 -0.013150980696082115 -0.14341056346893311
v -0.11037236452102661 -0.01879289373755455 -0.14240714907646179
v -0.11034884303808212 -0.018166236579418182 -0.1434989869594574
v -0.11034863442182541 -0.011833273805677891 -0.14349891245365143
v -0.11034386605024338 -0.013177955523133278 -0.14349731802940369
v -0.11034360527992249 -0.016821421682834625 -0.14349722862243652
v -0.11021354794502258 -0.018999999389052391 -0.14240169525146484
v -0.11021354794502258 -0.010999999940395355 -0.14240169525146484
v -0.11020120978355408 -0.016431212425231934 -0.1434018611907959
v -0.11020120978355408 -0.013568786904215813 -0.1434018611907959
v -0.1101987436413765 -0.016474900767207146 -0.14344847202301025
v -0.1101987436413765 -0.011474900878965855 -0.14344847202301025
v -0.11019691079854965 -0.012504769489169121 -0.14344784617424011
v -0.11019507050514221 -0.018534637987613678 -0.14344723522663116
v -0.11019507050514221 -0.013534638099372387 -0.14344723522663116
v -0.11018853634595871 -0.016403311863541603 -0.14340142905712128
v -0.11018853634595871 -0.013596688397228718 -0.14340142905712128
v -0.11018779128789902 -0.018799038603901863 -0.14315126836299896
v -0.11018779128789902 -0.011200961656868458 -0.14315126836299896
v -0.110171839594841 -0.013597051613032818 -0.14343938231468201
v -0.11016938835382462 -0.016396166756749153 -0.14343856275081635
v -0.11015573143959045 -0.019117316231131554 -0.14239971339702606
v -0.11015310138463974 -0.029999999329447746 -0.14025954902172089
v -0.11015310138463974 -3.3527552956158502e-10 -0.14025954902172089
v -0.11013460904359818 -0.016267949715256691 -0.14339958131313324
v -0.11013460904359818 -0.01373205054551363 -0.14339958131313324
v -0.11012677848339081 -0.018732050433754921 -0.14342415332794189
v -0.11012677848339081 -0.01373205054551363 -0.14342415332794189
v -0.1101151779294014 -0.016228565946221352 -0.14342021942138672
v -0.1101151779294014 -0.011228565126657486 -0.14342021942138672
v -0.11007965356111526 -0.019500000402331352 -0.14239709079265594
v -0.11007965356111526 -0.010499999858438969 -0.14239709079265594
v -0.11006633192300797 -0.027585785835981369 -0.14278480410575867
v -0.11006633192300797 -0.0024142137262970209 -0.14278480410575867
v -0.11004530638456345 -0.026171572506427765 -0.14339651167392731
v -0.11004530638456345 -0.019232051447033882 -0.14339651167392731
v -0.11004530638456345 -0.01576794870197773 -0.14339651167392731
v -0.11004530638456345 -0.014232050627470016 -0.14339651167392731
v -0.11004530638456345 -0.010767948813736439 -0.14339651167392731
v -0.11004530638456345 -0.003828427055850625 -0.14339651167392731
v -0.1030561551451683 -0.027000000700354576 -0.10597527027130127
v -0.1030561551451683 -0.0029999997932463884 -0.10597527027130127
v -0.10176784545183182 -0.029999999329447746 -0.10868455469608307
v -0.10176784545183182 -3.3527558507273625e-10 -0.10868455469608307
v -0.10071851313114166 -0.029999999329447746 -0.13626930117607117
v -0.10071851313114166 -3.3527558507273625e-10 -0.13626930117607117
v -0.10015235841274261 -0.027585785835981369 -0.13868215680122375
v -0.10015235841274261 -0.0024142137262970209 -0.13868215680122375
v -0.099894814193248749 -0.026171572506427765 -0.13920827209949493
v -0.099894814193248749 -0.003828427055850625 -0.13920827209949493
v -0.097279533743858337 -0.014999999664723873 -0.12412675470113754
v -0.097271941602230072 -0.015824999660253525 -0.12434767931699753
v -0.097271941602230072 -0.014174999669194221 -0.12434767931699753
v -0.097251199185848236 -0.016428941860795021 -0.12495126575231552
v -0.097251199185848236 -0.0135710583999753 -0.12495126575231552
v -0.097222864627838135 -0.016650000587105751 -0.1257757842540741
v -0.097222864627838135 -0.014999999664723873 -0.1257757842540741
v -0.097222864627838135 -0.01334999967366457 -0.1257757842540741
v -0.09719453752040863 -0.016428941860795021 -0.12660029530525208
v -0.09719453752040863 -0.0135710583999753 -0.12660029530525208
v -0.097173795104026794 -0.015824999660253525 -0.12720388174057007
v -0.097173795104026794 -0.014174999669194221 -0.12720388174057007
v -0.097166202962398529 -0.014999999664723873 -0.12742480635643005
v -0.094872027635574341 -0.027000000700354576 -0.10115902870893478
v -0.094872027635574341 -0.0029999997932463884 -0.10115902870893478
v -0.09312903881072998 -0.029999999329447746 -0.10360074043273926
v -0.09312903881072998 -3.3527564058388748e-10 -0.10360074043273926
v -0.090899206697940826 -0.029999999329447746 -0.13050934672355652
v -0.090899206697940826 -3.3527561282831186e-10 -0.13050934672355652
v -0.089913956820964813 -0.027585785835981369 -0.1327584981918335
v -0.089913956820964813 -0.0024142137262970209 -0.1327584981918335
v -0.08958619087934494 -0.026171572506427765 -0.13324400782585144
v -0.08958619087934494 -0.003828427055850625 -0.13324400782585144
v -0.087658129632472992 -0.027000000700354576 -0.094983614981174469
v -0.087658129632472992 -0.0029999997932463884 -0.094983614981174469
v -0.085514366626739502 -0.029999999329447746 -0.097082257270812988
v -0.085514366626739502 -3.3527569609503871e-10 -0.097082257270812988
v -0.081960409879684448 -0.029999999329447746 -0.12345995754003525
v -0.081960409879684448 -3.3527564058388748e-10 -0.12345995754003525
v -0.081637531518936157 -0.027000000700354576 -0.087640009820461273
v -0.081637531518936157 -0.0029999997932463884 -0.087640009820461273
v -0.080592088401317596 -0.027585785835981369 -0.12547716498374939
v -0.080592088401317596 -0.0024142137262970209 -0.12547716498374939
v -0.080200396478176117 -0.026171572506427765 -0.12591274082660675
v -0.080200396478176117 -0.003828427055850625 -0.12591274082660675
v -0.079159297049045563 -0.029999999329447746 -0.089330680668354034
v -0.079159297049045563 -3.3527569609503871e-10 -0.089330680668354034
v -0.076996423304080963 -0.027000000700354576 -0.079355314373970032
v -0.076996423304080963 -0.0029999997932463884 -0.079355314373970032
v -0.074260346591472626 -0.029999999329447746 -0.080585718154907227
v -0.074260346591472626 -3.3527575160618994e-10 -0.080585718154907227
v -0.074070289731025696 -0.029999999329447746 -0.11525373905897141
v -0.074070289731025696 -3.3527569609503871e-10 -0.11525373905897141
v -0.072365537285804749 -0.027585785835981369 -0.11697783321142197
v -0.072365537285804749 -0.0024142137262970209 -0.11697783321142197
v -0.071917429566383362 -0.026171572506427765 -0.11735512316226959
v -0.071917429566383362 -0.003828427055850625 -0.11735512316226959
v -0.067377269268035889 -0.029999999329447746 -0.10604508221149445
v -0.067377269268035889 -3.3527572385061433e-10 -0.10604508221149445
v -0.065392084419727325 -0.027585785835981369 -0.10742348432540894
v -0.065392084419727325 -0.0024142137262970209 -0.10742348432540894
v -0.064896143972873688 -0.026171572506427765 -0.10773523896932602
v -0.064896143972873688 -0.003828427055850625 -0.10773523896932602
v -0.062007267028093338 -0.029999999329447746 -0.096007198095321655
v -0.062007267028093338 -3.3527575160618994e-10 -0.096007198095321655
v -0.059805445373058319 -0.027585785835981369 -0.096997357904911041
v -0.059805445373058319 -0.0024142137262970209 -0.096997357904911041
v -0.059271190315485001 -0.026171572506427765 -0.09723760187625885
v -0.059271190315485001 -0.003828427055850625 -0.09723760187625885
v -0.057637378573417664 -0.027000000700354576 -0.036306183785200119
v -0.057637378573417664 -0.0029999997932463884 -0.036306183785200119
v -0.054901301860809326 -0.029999999329447746 -0.037536587566137314
v -0.054901301860809326 -3.352758626284924e-10 -0.037536587566137314
v -0.051950599998235703 -0.027000000700354576 -0.025349311530590057
v -0.051950599998235703 -0.0029999997932463884 -0.025349311530590057
v -0.04936961829662323 -0.029999999329447746 -0.026878539472818375
v -0.04936961829662323 -3.3527591813964364e-10 -0.026878539472818375
v -0.045531477779150009 -0.029999999329447746 -0.059369634836912155
v -0.045531477779150009 -3.352758626284924e-10 -0.059369634836912155
v -0.045071937143802643 -0.027000000700354576 -0.015098630450665951
v -0.045071937143802643 -0.0029999997932463884 -0.015098630450665951
v -0.04332965612411499 -0.027585785835981369 -0.060359787195920944
v -0.04332965612411499 -0.0024142137262970209 -0.060359787195920944
v -0.042795401066541672 -0.026171572506427765 -0.06060003861784935
v -0.042795401066541672 -0.003828427055850625 -0.06060003861784935
v -0.042678553611040115 -0.029999999329447746 -0.016907421872019768
v -0.042678553611040115 -3.3527594589521925e-10 -0.016907421872019768
v -0.041966434568166733 -0.029999999329447746 -0.052351988852024078
v -0.041966434568166733 -3.3527591813964364e-10 -0.052351988852024078
v -0.038204777985811234 -0.027585785835981369 -0.050756096839904785
v -0.038204777985811234 -0.0024142137262970209 -0.050756096839904785
v -0.037707779556512833 -0.026171572506427765 -0.051066156476736069
v -0.037707779556512833 -0.003828427055850625 -0.051066156476736069
v -0.037088021636009216 -0.027000000700354576 -0.0056832409463822842
v -0.037088021636009216 -0.0029999997932463884 -0.0056832409463822842
v -0.036012787371873856 -0.029999999329447746 -0.043317992240190506
v -0.036012787371873856 -3.3527591813964364e-10 -0.043317992240190506
v -0.034912381321191788 -0.029999999329447746 -0.0077488156966865063
v -0.034912381321191788 -3.3527597365079487e-10 -0.0077488156966865063
v -0.034087833017110825 -0.027585785835981369 -0.044775038957595825
v -0.034087833017110825 -0.0024142137262970209 -0.044775038957595825
v -0.033005774021148682 -0.027000000700354576 -0.002193669555708766
v -0.033005774021148682 -0.0029999997932463884 -0.002193669555708766
v -0.03183235228061676 -0.027585785835981369 -0.041930712759494781
v -0.03183235228061676 -0.0024142137262970209 -0.041930712759494781
v -0.031381674110889435 -0.026171572506427765 -0.042304929345846176
v -0.031381674110889435 -0.003828427055850625 -0.042304929345846176
v -0.031303871423006058 -0.029999999329447746 -0.0046642026863992214
v -0.031303871423006058 -3.352760291619461e-10 -0.0046642026863992214
v -0.028934609144926071 -0.029999999329447746 -0.035135187208652496
v -0.028934609144926071 -3.3527597365079487e-10 -0.035135187208652496
v -0.028290597721934319 -0.027000000700354576 0.00037712531047873199
v -0.028290597721934319 -0.0029999997932463884 0.00037712531047873199
v -0.027215536683797836 -0.027585785835981369 -0.036830242723226547
v -0.027215536683797836 -0.0024142137262970209 -0.036830242723226547
v -0.027135886251926422 -0.029999999329447746 -0.0023917441722005606
v -0.027135886251926422 -3.352760291619461e-10 -0.0023917441722005606
v -0.024328650906682014 -0.027585785835981369 -0.034044675529003143
v -0.024328650906682014 -0.0024142137262970209 -0.034044675529003143
v -0.023932518437504768 -0.026171572506427765 -0.034476213157176971
v -0.023932518437504768 -0.003828427055850625 -0.034476213157176971
v -0.02145707793533802 -0.027412284165620804 -0.031757481396198273
v -0.02145707793533802 -0.0025877163279801607 -0.031757481396198273
v -0.021228805184364319 -0.0259980708360672 -0.032319117337465286
v -0.021228805184364319 -0.0040019298903644085 -0.032319117337465286
v -0.020852174609899521 -0.029999999329447746 -0.027942601591348648
v -0.020852174609899521 -3.352760291619461e-10 -0.027942601591348648
v -0.020096568390727043 -0.027531806379556656 -0.030490327626466751
v -0.020096568390727043 -0.0024681941140443087 -0.030490327626466751
v -0.019984597340226173 -0.027378767728805542 -0.03062068298459053
v -0.019984597340226173 -0.0026212336961179972 -0.03062068298459053
v -0.01941155269742012 -0.025770789012312889 -0.031176634132862091
v -0.01941155269742012 -0.0042292126454412937 -0.031176634132862091
v -0.018338555470108986 -0.027585785835981369 -0.029057718813419342
v -0.018338555470108986 -0.0024142137262970209 -0.029057718813419342
v -0.018102234229445457 -0.027280597016215324 -0.029371250420808792
v -0.018102234229445457 -0.0027194025460630655 -0.029371250420808792
v -0.017851170152425766 -0.025561194866895676 -0.030358243733644485
v -0.017851170152425766 -0.0044388058595359325 -0.030358243733644485
v -0.016193412244319916 -0.027000000700354576 0.0054220645688474178
v -0.016193412244319916 -0.0029999997932463884 0.0054220645688474178
v -0.015052618458867073 -0.027088949456810951 -0.027706144377589226
v -0.015052618458867073 -0.0029110510367900133 -0.027706144377589226
v -0.014976277947425842 -0.029999999329447746 -0.0093586631119251251
v -0.014976277947425842 -0.027900001034140587 -0.0093586631119251251
v -0.014939138665795326 -0.027585785835981369 -0.026631001383066177
v -0.014899368397891521 -0.0024142137262970209 -0.026604156941175461
v -0.014767710119485855 -0.02517789788544178 -0.029121978208422661
v -0.014767710119485855 -0.0048221028409898281 -0.029121978208422661
v -0.014576513320207596 -0.027499999850988388 -0.0093449270352721214
v -0.014576513320207596 -0.027000000700354576 -0.0093449270352721214
v -0.014575963839888573 -0.02715224027633667 -0.027168687433004379
v -0.014534026384353638 -0.0028495958540588617 -0.027145747095346451
v -0.014526543207466602 -0.0029999997932463884 -0.0093432096764445305
v -0.014526543207466602 -3.3527605691752171e-10 -0.0093432096764445305
v -0.014223402366042137 -0.029999999329447746 -0.0061058891005814075
v -0.014223402366042137 -0.027900001034140587 -0.0061058891005814075
v -0.014076808467507362 -0.0029999997932463884 -0.0093277562409639359
v -0.014001899398863316 -0.029999999329447746 -0.01255208533257246
v -0.014001899398863316 -0.027900001034140587 -0.01255208533257246
v -0.013870328664779663 -0.027499999850988388 -0.00629387516528368
v -0.013870328664779663 -0.027000000700354576 -0.00629387516528368
v -0.01382619421929121 -0.0029999997932463884 -0.0063173733651638031
v -0.01382619421929121 -3.3527608467309733e-10 -0.0063173733651638031
v -0.01366256270557642 -0.027499999850988388 -0.012340307235717773
v -0.01366256270557642 -0.027000000700354576 -0.012340307235717773
v -0.013620144687592983 -0.0029999997932463884 -0.012313834391534328
v -0.013620144687592983 -3.3527605691752171e-10 -0.012313834391534328
v -0.013577103614807129 -0.027000000700354576 -0.0093105854466557503
v -0.013577103614807129 -0.0060000005178153515 -0.0093105854466557503
v -0.013577103614807129 -0.003499999875202775 -0.0093105854466557503
v -0.013428986072540283 -0.0029999997932463884 -0.0065288576297461987
v -0.013422678224742413 -0.025065682828426361 -0.028725326061248779
v -0.013422678224742413 -0.0049343178980052471 -0.028725326061248779
v -0.013238389976322651 -0.0029999997932463884 -0.012075583450496197
v -0.012987643480300903 -0.027000000700354576 -0.00676383962854743
v -0.012987643480300903 -0.0060000005178153515 -0.00676383962854743
v -0.012987643480300903 -0.003499999875202775 -0.00676383962854743
v -0.012814219109714031 -0.027000000700354576 -0.011810861527919769
v -0.012814219109714031 -0.0060000005178153515 -0.011810861527919769
v -0.012814219109714031 -0.003499999875202775 -0.011810861527919769
v -0.012577693909406662 -0.026000000536441803 -0.0092762438580393791
v -0.012577693909406662 -0.019999999552965164 -0.0092762438580393791
v -0.012104958295822144 -0.026000000536441803 -0.0072338040918111801
v -0.012104958295822144 -0.019999999552965164 -0.0072338040918111801
v -0.011965874582529068 -0.026000000536441803 -0.011281415820121765
v -0.011965874582529068 -0.019999999552965164 -0.011281415820121765
v -0.011945007368922234 -0.029999999329447746 -0.0036653426941484213
v -0.011945007368922234 -0.027900001034140587 -0.0036653426941484213
v -0.011902820318937302 -0.029999999329447746 -0.021862465888261795
v -0.011902820318937302 -3.3527605691752171e-10 -0.021862465888261795
v -0.011893441900610924 -0.027000000700354576 -0.026335537433624268
v -0.011893441900610924 -0.0029999997932463884 -0.026335537433624268
v -0.011733228340744972 -0.027499999850988388 -0.004004680085927248
v -0.011733228340744972 -0.027000000700354576 -0.004004680085927248
v -0.011706756427884102 -0.0029999997932463884 -0.00404709717258811
v -0.011706756427884102 -3.3527608467309733e-10 -0.00404709717258811
v -0.011561352759599686 -0.029999999329447746 -0.014830480329692364
v -0.011561352759599686 -0.027900001034140587 -0.014830480329692364
v -0.01153293065726757 -0.02500000037252903 -0.028302775695919991
v -0.01153293065726757 -0.0050000003539025784 -0.028302775695919991
v -0.011528313159942627 -0.019999999552965164 -0.009240184910595417
v -0.011528313159942627 -0.0060000005178153515 -0.009240184910595417
v -0.01146850548684597 -0.0029999997932463884 -0.0044288523495197296
v -0.011373367160558701 -0.027499999850988388 -0.01447740662842989
v -0.011373367160558701 -0.027000000700354576 -0.01447740662842989
v -0.011349868960678577 -0.0029999997932463884 -0.014433272182941437
v -0.011349868960678577 -3.3527608467309733e-10 -0.014433272182941437
v -0.011203782632946968 -0.027000000700354576 -0.0048530236817896366
v -0.011203782632946968 -0.0060000005178153515 -0.0048530236817896366
v -0.011203782632946968 -0.003499999875202775 -0.0048530236817896366
v -0.011178138665854931 -0.019999999552965164 -0.0077272672206163406
v -0.011178138665854931 -0.0060000005178153515 -0.0077272672206163406
v -0.011138385161757469 -0.0029999997932463884 -0.01403606403619051
v -0.011075113900005817 -0.019999999552965164 -0.010725497268140316
v -0.011075113900005817 -0.0060000005178153515 -0.010725497268140316
v -0.010903403162956238 -0.027000000700354576 -0.013594720512628555
v -0.010903403162956238 -0.0060000005178153515 -0.013594720512628555
v -0.010903403162956238 -0.003499999875202775 -0.013594720512628555
v -0.010679150931537151 -0.027585785835981369 -0.023943586274981499
v -0.010679150931537151 -0.0024142137262970209 -0.023943586274981499
v -0.010674337856471539 -0.026000000536441803 -0.0057013677433133125
v -0.010674337856471539 -0.019999999552965164 -0.0057013677433133125
v -0.0104334382340312 -0.026000000536441803 -0.01271203625947237
v -0.0104334382340312 -0.019999999552965164 -0.01271203625947237
v -0.010350276716053486 -0.02715224027633667 -0.024502910673618317
v -0.010348021052777767 -0.0028495958540588617 -0.024506745859980583
v -0.010118419304490089 -0.019999999552965164 -0.0065921288914978504
v -0.010118419304490089 -0.0060000005178153515 -0.0065921288914978504
v -0.0099623426795005798 -0.027000000700354576 -0.025162678211927414
v -0.0099623426795005798 -0.0029999997932463884 -0.025162678211927414
v -0.0099399760365486145 -0.019999999552965164 -0.011785216629505157
v -0.0099399760365486145 -0.0060000005178153515 -0.011785216629505157
v -0.0087515851482748985 -0.029999999329447746 -0.0026909646112471819
v -0.0087515851482748985 -0.027900001034140587 -0.0026909646112471819
v -0.0087378481402993202 -0.027499999850988388 -0.003090728772804141
v -0.0087378481402993202 -0.027000000700354576 -0.003090728772804141
v -0.0087361317127943039 -0.0029999997932463884 -0.0031406991183757782
v -0.0087361317127943039 -3.3527608467309733e-10 -0.0031406991183757782
v -0.0087206773459911346 -0.0029999997932463884 -0.0035904338583350182
v -0.0087035065516829491 -0.027000000700354576 -0.0040901391766965389
v -0.0087035065516829491 -0.0060000005178153515 -0.0040901391766965389
v -0.0087035065516829491 -0.003499999875202775 -0.0040901391766965389
v -0.0086691649630665779 -0.026000000536441803 -0.0050895488820970058
v -0.0086691649630665779 -0.019999999552965164 -0.0050895488820970058
v -0.0086331069469451904 -0.019999999552965164 -0.0061389296315610409
v -0.0086331069469451904 -0.0060000005178153515 -0.0061389296315610409
v -0.0084270574152469635 -0.019999999552965164 -0.012135391123592854
v -0.0084270574152469635 -0.0060000005178153515 -0.012135391123592854
v -0.008390999399125576 -0.026000000536441803 -0.013184771873056889
v -0.008390999399125576 -0.019999999552965164 -0.013184771873056889
v -0.0083566578105092049 -0.027000000700354576 -0.014184181578457355
v -0.0083566578105092049 -0.0060000005178153515 -0.014184181578457355
v -0.0083566578105092049 -0.003499999875202775 -0.014184181578457355
v -0.0083394870162010193 -0.0029999997932463884 -0.014683887362480164
v -0.0083240335807204247 -0.0029999997932463884 -0.015133621171116829
v -0.0083240335807204247 -3.3527608467309733e-10 -0.015133621171116829
v -0.0083223162218928337 -0.027499999850988388 -0.015183591283857822
v -0.0083223162218928337 -0.027000000700354576 -0.015183591283857822
v -0.0083085792139172554 -0.029999999329447746 -0.015583355911076069
v -0.0083085792139172554 -0.027900001034140587 -0.015583355911076069
v -0.007953764870762825 -0.027000000700354576 -0.025909196585416794
v -0.007953764870762825 -0.0029999997932463884 -0.025909196585416794
v -0.0078850826248526573 -0.02500000037252903 -0.027908017858862877
v -0.0078850826248526573 -0.0050000003539025784 -0.027908017858862877
v -0.0071201887913048267 -0.019999999552965164 -0.006489104125648737
v -0.0071201887913048267 -0.0060000005178153515 -0.006489104125648737
v -0.0069417450577020645 -0.019999999552965164 -0.011682191863656044
v -0.0069417450577020645 -0.0060000005178153515 -0.011682191863656044
v -0.0066267261281609535 -0.026000000536441803 -0.0055622844956815243
v -0.0066267261281609535 -0.019999999552965164 -0.0055622844956815243
v -0.0063858269713819027 -0.026000000536441803 -0.012572952546179295
v -0.0063858269713819027 -0.019999999552965164 -0.012572952546179295
v -0.0061567616648972034 -0.027000000700354576 -0.0046795993112027645
v -0.0061567616648972034 -0.0060000005178153515 -0.0046795993112027645
v -0.0061567616648972034 -0.003499999875202775 -0.0046795993112027645
v -0.0059850509278476238 -0.019999999552965164 -0.0075488234870135784
v -0.0059850509278476238 -0.0060000005178153515 -0.0075488234870135784
v -0.0059217796660959721 -0.0029999997932463884 -0.0042382567189633846
v -0.0058820261619985104 -0.019999999552965164 -0.010547053068876266
v -0.0058820261619985104 -0.0060000005178153515 -0.010547053068876266
v -0.0058563817292451859 -0.027000000700354576 -0.013421296142041683
v -0.0058563817292451859 -0.0060000005178153515 -0.013421296142041683
v -0.0058563817292451859 -0.003499999875202775 -0.013421296142041683
v -0.0057102954015135765 -0.0029999997932463884 -0.003841048339381814
v -0.0057102954015135765 -3.3527608467309733e-10 -0.003841048339381814
v -0.0056867972016334534 -0.027499999850988388 -0.0037969138938933611
v -0.0056867972016334534 -0.027000000700354576 -0.0037969138938933611
v -0.0055916588753461838 -0.0029999997932463884 -0.013845467939972878
v -0.0055359313264489174 -0.029056748375296593 -0.019528193399310112
v -0.0055359313264489174 -0.00094325130339711905 -0.019528193399310112
v -0.0055318516679108143 -0.019999999552965164 -0.0090341363102197647
v -0.0055318516679108143 -0.0060000005178153515 -0.0090341363102197647
v -0.0054988116025924683 -0.029999999329447746 -0.0034438399598002434
v -0.0054988116025924683 -0.027900001034140587 -0.0034438399598002434
v -0.0054129664786159992 -0.027585785835981369 -0.021104758605360985
v -0.0054129664786159992 -0.0024142137262970209 -0.021104758605360985
v -0.0053534079343080521 -0.0029999997932463884 -0.014227223582565784
v -0.0053534079343080521 -3.3527608467309733e-10 -0.014227223582565784
v -0.0053269360214471817 -0.027499999850988388 -0.014269640669226646
v -0.0053269360214471817 -0.027000000700354576 -0.014269640669226646
v -0.0052548786625266075 -0.029999999329447746 -0.018348697572946548
v -0.0052548786625266075 -3.3527608467309733e-10 -0.018348697572946548
v -0.0052526579238474369 -0.027213027700781822 -0.021601038053631783
v -0.0052526579238474369 -0.0027869727928191423 -0.021601038053631783
v -0.0051151574589312077 -0.029999999329447746 -0.014608977362513542
v -0.0051151574589312077 -0.027900001034140587 -0.014608977362513542
v -0.0050942897796630859 -0.026000000536441803 -0.0069929054006934166
v -0.0050942897796630859 -0.019999999552965164 -0.0069929054006934166
v -0.0049552065320312977 -0.026000000536441803 -0.011040516197681427
v -0.0049552065320312977 -0.019999999552965164 -0.011040516197681427
v -0.0048512960784137249 -0.029999999329447746 -0.017551274970173836
v -0.0048512960784137249 -3.3527608467309733e-10 -0.017551274970173836
v -0.0048455391079187393 -0.027000000700354576 -0.022401727735996246
v -0.0048455391079187393 -0.0029999997932463884 -0.022401727735996246
v -0.0044824709184467793 -0.026000000536441803 -0.0089980773627758026
v -0.0044824709184467793 -0.019999999552965164 -0.0089980773627758026
v -0.00424594571813941 -0.027000000700354576 -0.0064634596928954124
v -0.00424594571813941 -0.0060000005178153515 -0.0064634596928954124
v -0.00424594571813941 -0.003499999875202775 -0.0064634596928954124
v -0.0040725213475525379 -0.027000000700354576 -0.011510481126606464
v -0.0040725213475525379 -0.0060000005178153515 -0.011510481126606464
v -0.0040725213475525379 -0.003499999875202775 -0.011510481126606464
v -0.0040627038106322289 -0.027000000700354576 -0.02332177571952343
v -0.0040627038106322289 -0.0029999997932463884 -0.02332177571952343
v -0.0038217741530388594 -0.0029999997932463884 -0.0061987368389964104
v -0.003631178755313158 -0.0029999997932463884 -0.011745463125407696
v -0.0034830612130463123 -0.027000000700354576 -0.0089637357741594315
v -0.0034830612130463123 -0.0060000005178153515 -0.0089637357741594315
v -0.0034830612130463123 -0.003499999875202775 -0.0089637357741594315
v -0.003440019441768527 -0.0029999997932463884 -0.0059604858979582787
v -0.003440019441768527 -3.3527611242867295e-10 -0.0059604858979582787
v -0.0033976021222770214 -0.027499999850988388 -0.005934013519436121
v -0.0033976021222770214 -0.027000000700354576 -0.005934013519436121
v -0.0033467321190983057 -0.029999999329447746 -0.016097584739327431
v -0.0033467321190983057 -3.3527608467309733e-10 -0.016097584739327431
v -0.0032476857304573059 -0.029999999329447746 0.0075704497285187244
v -0.0032476857304573059 -3.3527614018424856e-10 0.0075704497285187244
v -0.0032339703757315874 -0.0029999997932463884 -0.011956946924328804
v -0.0032339703757315874 -3.3527608467309733e-10 -0.011956946924328804
v -0.0031898359302431345 -0.027499999850988388 -0.011980446055531502
v -0.0031898359302431345 -0.027000000700354576 -0.011980446055531502
v -0.0031481417827308178 -0.029999999329447746 -0.00010817575093824416
v -0.0031481417827308178 -3.3527611242867295e-10 -0.00010817575093824416
v -0.0030582647304981947 -0.029999999329447746 -0.0057222354225814342
v -0.0030582647304981947 -0.027900001034140587 -0.0057222354225814342
v -0.0029833561275154352 -0.0029999997932463884 -0.0089465649798512459
v -0.0028367619961500168 -0.029999999329447746 -0.012168430723249912
v -0.0028367619961500168 -0.027900001034140587 -0.012168430723249912
v -0.0027804586570709944 -0.029999999329447746 0.0014803881058469415
v -0.0027804586570709944 -3.3527614018424856e-10 0.0014803881058469415
v -0.0026722829788923264 -0.029999999329447746 -0.00166775390971452
v -0.0026722829788923264 -3.3527611242867295e-10 -0.00166775390971452
v -0.0025336213875561953 -0.0029999997932463884 -0.0089311115443706512
v -0.0025336213875561953 -3.3527611242867295e-10 -0.0089311115443706512
v -0.0024902357254177332 -0.02500000037252903 -0.027722639963030815
v -0.0024902357254177332 -0.0050000003539025784 -0.027722639963030815
v -0.0024836508091539145 -0.027499999850988388 -0.0089293941855430603
v -0.0024836508091539145 -0.027000000700354576 -0.0089293941855430603
v -0.002223270945250988 -0.027000000700354576 -0.024318477138876915
v -0.002223270945250988 -0.0029999997932463884 -0.024318477138876915
v -0.0020838866475969553 -0.029999999329447746 -0.0089156581088900566
v -0.0020838866475969553 -0.027900001034140587 -0.0089156581088900566
v -0.0018007770413532853 -0.025124320760369301 -0.027574555948376656
v -0.0018007770413532853 -0.0048756790347397327 -0.027574555948376656
v -0.0016677541425451636 -0.029999999329447746 0.0026722829788923264
v -0.0016677541425451636 -3.3527614018424856e-10 0.0026722829788923264
v -0.0014803882222622633 -0.029999999329447746 -0.002780458889901638
v -0.0014803882222622633 -3.3527611242867295e-10 -0.002780458889901638
v -0.0013593384064733982 -0.027000000700354576 -0.024804428219795227
v -0.0013593384064733982 -0.0029999997932463884 -0.024804428219795227
v -0.0013474433217197657 -0.029999999329447746 -0.015481329523026943
v -0.0013474433217197657 -3.3527608467309733e-10 -0.015481329523026943
v -0.0013097132323309779 -0.029999999329447746 0.0078920628875494003
v -0.0013097132323309779 -3.3527614018424856e-10 0.0078920628875494003
v -0.0012055707629770041 -0.025481827557086945 -0.027196384966373444
v -0.0012055707629770041 -0.0045181731693446636 -0.027196384966373444
v -0.00083484186325222254 -0.027000000700354576 -0.025645516812801361
v -0.00083484186325222254 -0.0029999997932463884 -0.025645516812801361
v -0.00082896184176206589 -0.027000000700354576 -0.025664376094937325
v -0.00082896184176206589 -0.0029999997932463884 -0.025664376094937325
v -0.00077861407771706581 -0.026028074324131012 -0.026635145768523216
v -0.00077861407771706581 -0.0039719264023005962 -0.026635145768523216
v -0.00010817535076057538 -0.029999999329447746 0.0031481420155614614
v -0.00010817535076057538 -3.3527614018424856e-10 0.0031481420155614614
v 0.00010817616566782817 -0.029999999329447746 -0.0031481417827308178
v 0.00010817616566782817 -3.3527614018424856e-10 -0.0031481417827308178
v 0.00062954443274065852 -0.029999999329447746 -0.015800356864929199
v 0.00062954443274065852 -3.3527611242867295e-10 -0.015800356864929199
v 0.00071443576598539948 -0.029934696853160858 -0.015835709869861603
v 0.00071443576598539948 -6.5302810980938375e-05 -0.015835709869861603
v 0.0014803881058469415 -0.029999999329447746 0.002780458889901638
v 0.0014803881058469415 -3.3527614018424856e-10 0.002780458889901638
v 0.0015136133879423141 -0.029477927833795547 -0.015997322276234627
v 0.0015136133879423141 -0.00052207277622073889 -0.015997322276234627
v 0.0016677540261298418 -0.029999999329447746 -0.00267228321172297
v 0.0016677540261298418 -3.3527614018424856e-10 -0.00267228321172297
v 0.0019210431491956115 -0.029362022876739502 -0.01595299132168293
v 0.0019210431491956115 -0.00063797773327678442 -0.01595299132168293
v 0.0019735980313271284 -0.029999999329447746 0.0077527356334030628
v 0.0019735980313271284 -3.3527614018424856e-10 0.0077527356334030628
v 0.0023108827881515026 -0.029328679665923119 -0.015826540067791939
v 0.0023108827881515026 -0.00067132001277059317 -0.015826540067791939
v 0.0026667611673474312 -0.029379302635788918 -0.015623279847204685
v 0.0026667611673474312 -0.00062069797422736883 -0.015623279847204685
v 0.00267228321172297 -0.029999999329447746 0.0016677540261298418
v 0.00267228321172297 -3.3527614018424856e-10 0.0016677540261298418
v 0.002780458889901638 -0.029999999329447746 -0.0014803879894316196
v 0.002780458889901638 -3.3527614018424856e-10 -0.0014803879894316196
v 0.00297373509965837 -0.029511760920286179 -0.015351744368672371
v 0.00297373509965837 -0.00048823875840753317 -0.015351744368672371
v 0.0031481417827308178 -0.029999999329447746 0.00010817575821420178
v 0.0031481417827308178 -3.3527614018424856e-10 0.00010817575821420178
v 0.003392005106434226 -0.029996741563081741 -0.014651847071945667
v 0.003392005106434226 -3.2590330647508381e-06 -0.014651847071945667
v 0.0033934344537556171 -0.029999999329447746 -0.014647720381617546
v 0.0033934344537556171 -3.3527611242867295e-10 -0.014647720381617546
v 0.0049238791689276695 -0.029999999329447746 0.0063051898032426834
v 0.0049238791689276695 -3.3527614018424856e-10 0.0063051898032426834
v 0.0070432890206575394 -0.029999999329447746 0.0037936875596642494
v 0.0070432890206575394 -3.3527614018424856e-10 0.0037936875596642494
v 0.0075595136731863022 -0.029999999329447746 -0.0026179696433246136
v 0.0075595136731863022 -3.3527614018424856e-10 -0.0026179696433246136
v 0.0079741962254047394 -0.029999999329447746 0.00064202793873846531
v 0.0079741962254047394 -3.3527614018424856e-10 0.00064202793873846531
f 604 603 589
f 589 603 588
f 589 588 578
f 578 588 577
f 578 577 558
f 558 577 557
f 558 557 540
f 540 557 539
f 540 539 524
f 524 539 523
f 524 523 514
f 514 523 513
f 514 513 527
f 527 513 526
f 527 526 544
f 544 526 543
f 544 543 560
f 560 543 559
f 560 559 580
f 580 559 579
f 580 579 592
f 592 579 591
f 592 591 604
f 604 591 603
f 302 307 306
f 225 226 230
f 302 306 230
f 234 225 294
f 294 225 230
f 294 230 304
f 304 230 306
f 452 451 649
f 649 451 648
f 649 648 686
f 686 648 685
f 686 685 711
f 686 711 712
f 712 711 729
f 712 729 730
f 730 729 731
f 730 731 732
f 732 731 735
f 732 735 736
f 736 735 733
f 736 733 734
f 725 726 727
f 727 726 728
f 727 728 733
f 733 728 734
f 432 431 418
f 418 431 417
f 418 417 404
f 404 417 403
f 404 403 396
f 396 403 395
f 379 380 395
f 395 380 396
f 310 311 321
f 306 307 320
f 320 307 298
f 320 298 285
f 269 277 320
f 320 277 282
f 320 282 292
f 265 269 267
f 267 269 320
f 267 320 274
f 274 320 285
f 292 300 320
f 320 300 308
f 320 308 309
f 301 320 283
f 283 320 284
f 283 284 275
f 275 284 270
f 309 299 320
f 320 299 291
f 320 291 284
f 284 291 286
f 284 286 276
f 276 268 284
f 284 268 266
f 284 266 270
f 310 321 301
f 301 321 320
f 320 321 344
f 320 344 343
f 343 344 356
f 343 356 355
f 355 356 368
f 355 368 367
f 367 368 374
f 367 374 373
f 373 374 380
f 373 380 379
f 235 231 228
f 228 231 229
f 228 229 227
f 235 295 231
f 231 295 305
f 231 305 303
f 303 305 311
f 303 311 310
f 226 225 312
f 232 222 312
f 220 313 227
f 227 313 228
f 220 213 223
f 213 207 223
f 223 207 202
f 223 202 201
f 201 202 199
f 220 223 313
f 313 223 233
f 313 233 237
f 239 238 312
f 312 238 236
f 312 236 232
f 200 198 206
f 200 206 222
f 222 206 212
f 222 212 312
f 312 212 221
f 312 221 226
f 237 239 313
f 313 239 312
f 313 312 336
f 336 312 335
f 336 335 346
f 346 335 345
f 346 345 352
f 352 345 351
f 352 351 360
f 360 351 359
f 381 382 359
f 359 382 360
f 382 381 385
f 382 385 386
f 386 385 391
f 386 391 392
f 392 391 405
f 392 405 406
f 406 405 413
f 406 413 414
f 414 413 423
f 414 423 424
f 724 723 718
f 718 723 717
f 718 717 704
f 704 717 703
f 704 703 696
f 696 703 695
f 696 695 678
f 678 695 677
f 678 677 662
f 662 677 661
f 662 661 655
f 655 661 654
f 655 654 664
f 664 654 663
f 664 663 680
f 680 663 679
f 680 679 698
f 698 679 697
f 698 697 708
f 708 697 707
f 708 707 720
f 720 707 719
f 720 719 724
f 724 719 723
f 451 452 423
f 423 452 424
f 519 568 502
f 466 479 398
f 700 698 728
f 728 698 708
f 728 708 734
f 734 708 720
f 734 720 736
f 736 720 724
f 736 724 732
f 732 724 718
f 732 718 730
f 730 718 704
f 730 704 712
f 712 704 696
f 712 696 686
f 686 696 649
f 649 696 678
f 649 678 428
f 428 678 662
f 428 662 655
f 295 235 317
f 317 235 315
f 438 422 384
f 384 422 408
f 643 597 664
f 664 597 655
f 655 597 550
f 655 550 428
f 502 438 519
f 519 438 384
f 519 384 479
f 479 384 388
f 479 388 398
f 614 502 624
f 624 502 568
f 624 568 647
f 647 568 610
f 647 610 684
f 684 610 651
f 684 651 700
f 700 651 666
f 700 666 698
f 698 666 643
f 698 643 680
f 680 643 664
f 550 508 428
f 428 508 475
f 428 475 420
f 420 475 466
f 420 466 410
f 410 466 398
f 408 400 384
f 384 400 390
f 384 390 362
f 362 390 376
f 362 376 358
f 358 376 370
f 358 370 348
f 348 370 364
f 348 364 338
f 338 364 350
f 338 350 315
f 315 350 340
f 315 340 317
f 733 673 727
f 727 673 659
f 697 656 707
f 707 656 673
f 707 673 719
f 719 673 733
f 719 733 723
f 723 733 735
f 723 735 717
f 717 735 731
f 717 731 703
f 699 727 683
f 683 727 659
f 683 659 646
f 646 659 617
f 646 617 623
f 623 617 571
f 623 571 613
f 361 357 375
f 399 407 383
f 383 407 421
f 387 383 470
f 470 383 421
f 470 421 509
f 509 421 437
f 509 437 571
f 571 437 501
f 571 501 613
f 679 545 697
f 697 545 605
f 697 605 656
f 375 357 369
f 369 357 347
f 369 347 363
f 363 347 349
f 349 347 337
f 349 337 339
f 339 337 314
f 339 314 316
f 316 314 234
f 316 234 294
f 427 419 455
f 455 419 409
f 455 409 470
f 470 409 397
f 470 397 387
f 361 375 383
f 383 375 389
f 383 389 399
f 455 467 427
f 427 467 499
f 427 499 545
f 679 663 545
f 545 663 654
f 545 654 427
f 427 654 661
f 427 661 648
f 648 661 677
f 648 677 685
f 685 677 695
f 685 695 711
f 711 695 703
f 711 703 729
f 729 703 731
f 377 375 371
f 371 375 369
f 371 369 365
f 365 369 363
f 365 363 353
f 353 363 349
f 353 349 341
f 341 349 339
f 341 339 318
f 318 339 316
f 318 316 304
f 304 316 294
f 393 389 377
f 377 389 375
f 531 607 501
f 501 607 601
f 501 601 613
f 437 439 445
f 437 445 501
f 501 445 457
f 501 457 531
f 421 425 429
f 421 429 437
f 437 429 433
f 437 433 439
f 425 421 415
f 415 421 407
f 415 407 411
f 411 407 399
f 411 399 401
f 401 399 389
f 401 389 393
f 725 727 701
f 701 727 699
f 701 705 709
f 721 725 715
f 715 725 701
f 715 701 713
f 713 701 709
f 225 234 312
f 312 234 314
f 312 314 335
f 335 314 337
f 335 337 345
f 345 337 347
f 345 347 351
f 351 347 357
f 351 357 359
f 359 357 361
f 383 381 361
f 361 381 359
f 409 405 391
f 409 391 397
f 397 391 385
f 397 385 387
f 387 385 381
f 387 381 383
f 427 423 413
f 427 413 419
f 419 413 405
f 419 405 409
f 648 451 427
f 427 451 423
f 360 362 352
f 352 362 358
f 352 358 346
f 346 358 348
f 346 348 336
f 336 348 338
f 336 338 313
f 313 338 315
f 313 315 228
f 228 315 235
f 382 384 360
f 360 384 362
f 384 382 386
f 384 386 388
f 388 386 392
f 388 392 398
f 398 392 406
f 398 406 410
f 410 406 414
f 410 414 420
f 420 414 424
f 420 424 428
f 452 649 424
f 424 649 428
f 305 295 319
f 319 295 317
f 319 317 342
f 342 317 340
f 342 340 354
f 354 340 350
f 354 350 366
f 366 350 364
f 366 364 372
f 372 364 370
f 372 370 378
f 378 370 376
f 378 376 394
f 394 376 390
f 446 440 438
f 438 440 434
f 438 434 422
f 502 614 602
f 446 438 458
f 458 438 502
f 458 502 532
f 532 502 602
f 532 602 608
f 402 394 390
f 390 400 402
f 402 400 408
f 402 408 412
f 434 430 422
f 422 430 426
f 422 426 408
f 408 426 416
f 408 416 412
f 702 700 728
f 728 726 702
f 702 726 722
f 702 722 716
f 716 714 702
f 702 714 710
f 702 710 706
f 216 131 215
f 215 131 130
f 248 246 173
f 174 247 173
f 173 247 249
f 248 173 250
f 250 173 249
f 250 249 251
f 272 281 287
f 287 281 288
f 287 288 297
f 297 309 287
f 287 309 308
f 287 308 296
f 280 271 251
f 251 271 253
f 251 253 250
f 280 251 287
f 287 251 254
f 287 254 272
f 165 78 166
f 166 78 79
f 19 17 2
f 45 24 26
f 45 26 46
f 46 26 28
f 46 28 27
f 24 45 22
f 22 45 1
f 22 1 20
f 2 17 1
f 1 17 18
f 1 18 20
f 27 25 46
f 46 25 23
f 46 23 2
f 2 23 21
f 2 21 19
f 44 43 125
f 125 43 124
f 89 85 95
f 87 91 70
f 70 91 99
f 70 99 153
f 153 99 107
f 153 107 168
f 168 107 129
f 168 129 241
f 129 155 241
f 241 155 164
f 241 164 111
f 111 147 241
f 241 147 149
f 241 149 186
f 186 149 145
f 186 145 109
f 89 87 85
f 85 87 70
f 85 70 81
f 81 70 38
f 81 38 83
f 83 38 93
f 164 151 111
f 111 151 127
f 111 127 103
f 103 127 105
f 103 105 95
f 95 105 97
f 95 97 89
f 93 38 101
f 101 38 113
f 101 113 109
f 109 113 143
f 109 143 186
f 163 154 240
f 240 154 128
f 240 185 148
f 148 146 240
f 240 146 110
f 240 110 163
f 163 110 150
f 98 69 106
f 106 69 152
f 106 152 128
f 128 152 167
f 128 167 240
f 37 69 80
f 80 69 84
f 98 90 69
f 69 90 86
f 69 86 84
f 84 86 88
f 84 88 94
f 94 88 96
f 94 96 102
f 102 96 104
f 102 104 110
f 110 104 126
f 110 126 150
f 80 82 37
f 37 82 92
f 37 92 112
f 112 92 100
f 112 100 142
f 142 100 108
f 142 108 185
f 185 108 144
f 185 144 148
f 86 87 88
f 88 87 89
f 88 89 96
f 96 89 97
f 96 97 104
f 104 97 105
f 104 105 126
f 126 105 127
f 126 127 150
f 150 127 151
f 150 151 163
f 163 151 164
f 163 164 154
f 154 164 155
f 154 155 128
f 128 155 129
f 128 129 106
f 106 129 107
f 106 107 98
f 98 107 99
f 98 99 90
f 90 99 91
f 90 91 86
f 86 91 87
f 80 81 82
f 82 81 83
f 82 83 92
f 92 83 93
f 92 93 100
f 100 93 101
f 100 101 108
f 108 101 109
f 108 109 144
f 144 109 145
f 144 145 148
f 148 145 149
f 148 149 146
f 146 149 147
f 146 147 110
f 110 147 111
f 110 111 102
f 102 111 103
f 102 103 94
f 94 103 95
f 94 95 84
f 84 95 85
f 84 85 80
f 80 85 81
f 177 175 132
f 132 175 130
f 130 175 188
f 130 188 203
f 203 208 130
f 130 208 210
f 130 210 215
f 132 134 177
f 177 134 136
f 177 136 182
f 142 185 140
f 140 185 182
f 140 182 138
f 138 182 136
f 130 124 132
f 132 124 122
f 132 122 134
f 134 122 120
f 134 120 136
f 136 120 118
f 136 118 138
f 138 118 116
f 138 116 140
f 140 116 114
f 140 114 142
f 142 114 112
f 186 143 184
f 184 143 141
f 184 141 183
f 183 141 139
f 183 139 181
f 181 139 137
f 181 137 178
f 209 204 211
f 211 204 131
f 211 131 216
f 204 189 131
f 131 189 176
f 131 176 133
f 133 176 178
f 133 178 135
f 135 178 137
f 130 131 124
f 124 131 125
f 124 43 122
f 122 43 41
f 122 41 120
f 120 41 118
f 118 41 39
f 118 39 116
f 116 39 114
f 114 39 37
f 114 37 112
f 143 113 141
f 141 113 115
f 141 115 139
f 139 115 117
f 139 117 137
f 137 117 119
f 137 119 135
f 135 119 121
f 135 121 133
f 133 121 123
f 133 123 131
f 131 123 125
f 5 13 15
f 37 35 29
f 39 35 37
f 15 13 37
f 7 29 11
f 11 29 35
f 11 35 33
f 33 35 39
f 33 39 41
f 1 7 3
f 3 7 11
f 3 11 9
f 9 11 33
f 9 33 31
f 31 33 41
f 31 41 43
f 1 5 7
f 7 5 15
f 7 15 29
f 29 15 37
f 125 123 44
f 44 123 42
f 123 121 42
f 42 121 119
f 42 119 40
f 113 38 115
f 115 38 40
f 115 40 117
f 117 40 119
f 2 1 3
f 2 3 4
f 4 3 9
f 4 9 10
f 10 9 31
f 10 31 32
f 32 31 43
f 32 43 44
f 1 45 49
f 1 49 5
f 5 49 57
f 5 57 13
f 13 57 69
f 13 69 37
f 42 40 36
f 38 16 30
f 14 16 38
f 36 40 38
f 34 30 12
f 12 30 16
f 12 16 8
f 8 16 14
f 8 14 6
f 44 34 32
f 32 34 12
f 32 12 10
f 10 12 8
f 10 8 4
f 4 8 6
f 4 6 2
f 44 42 34
f 34 42 36
f 34 36 30
f 30 36 38
f 75 72 67
f 69 59 61
f 57 59 69
f 67 72 69
f 65 61 55
f 55 61 59
f 55 59 51
f 51 59 57
f 51 57 49
f 78 65 63
f 63 65 55
f 63 55 53
f 53 55 51
f 53 51 47
f 47 51 49
f 47 49 45
f 78 75 65
f 65 75 67
f 65 67 61
f 61 67 69
f 46 2 6
f 46 6 50
f 50 6 14
f 50 14 58
f 58 14 38
f 58 38 70
f 79 78 63
f 79 63 64
f 64 63 53
f 64 53 54
f 54 53 47
f 54 47 48
f 48 47 45
f 48 45 46
f 78 165 160
f 78 160 75
f 75 160 157
f 75 157 72
f 72 157 152
f 72 152 69
f 173 246 244
f 173 244 171
f 171 244 242
f 171 242 169
f 169 242 240
f 169 240 167
f 46 50 52
f 70 62 60
f 68 62 70
f 71 68 70
f 50 60 52
f 52 60 62
f 52 62 56
f 56 62 68
f 56 68 66
f 50 58 60
f 60 58 70
f 71 73 68
f 68 73 74
f 68 74 66
f 66 74 76
f 66 76 77
f 46 52 48
f 48 52 56
f 48 56 54
f 54 56 66
f 54 66 64
f 64 66 77
f 64 77 79
f 165 173 160
f 160 173 171
f 160 171 157
f 157 171 169
f 157 169 152
f 152 169 167
f 79 77 166
f 166 77 162
f 162 77 161
f 161 77 76
f 161 76 159
f 159 76 74
f 159 74 158
f 158 74 73
f 158 73 156
f 73 71 156
f 156 71 70
f 156 70 153
f 165 166 173
f 173 166 174
f 153 168 156
f 156 168 170
f 156 170 158
f 172 174 166
f 166 162 172
f 172 162 161
f 172 161 170
f 170 161 159
f 170 159 158
f 247 174 172
f 247 172 245
f 245 172 170
f 245 170 243
f 243 170 168
f 243 168 241
f 243 241 256
f 281 291 288
f 268 262 264
f 291 281 286
f 288 291 297
f 297 291 299
f 297 299 309
f 283 275 260
f 260 275 270
f 260 270 264
f 264 270 266
f 264 266 268
f 260 258 283
f 283 258 290
f 283 290 301
f 301 290 310
f 286 281 276
f 276 281 272
f 276 272 268
f 268 272 254
f 268 254 262
f 262 254 251
f 262 251 264
f 243 258 245
f 245 258 260
f 245 260 247
f 247 260 264
f 247 264 249
f 249 264 251
f 243 256 258
f 258 256 279
f 258 279 290
f 290 279 303
f 290 303 310
f 231 303 219
f 219 303 279
f 219 279 197
f 197 279 256
f 197 256 186
f 186 256 241
f 202 207 193
f 227 229 220
f 220 229 217
f 220 217 213
f 193 181 178
f 176 180 178
f 178 180 192
f 178 192 193
f 193 192 199
f 193 199 202
f 186 184 195
f 195 184 183
f 213 217 207
f 207 217 195
f 207 195 193
f 193 195 183
f 193 183 181
f 186 195 197
f 197 195 217
f 197 217 219
f 219 217 229
f 219 229 231
f 180 176 189
f 201 199 192
f 180 189 192
f 192 189 201
f 201 189 204
f 201 204 223
f 223 204 209
f 223 209 233
f 233 209 211
f 233 211 237
f 237 211 216
f 237 216 239
f 216 215 239
f 239 215 238
f 191 198 200
f 191 200 187
f 187 188 179
f 179 188 175
f 187 200 188
f 188 200 222
f 188 222 203
f 203 222 232
f 203 232 208
f 208 232 236
f 208 236 210
f 210 236 238
f 210 238 215
f 179 175 177
f 212 214 221
f 221 214 226
f 206 198 194
f 194 198 191
f 194 191 187
f 179 177 187
f 187 177 182
f 187 182 194
f 194 182 185
f 194 185 190
f 190 196 194
f 194 196 214
f 194 214 206
f 206 214 212
f 196 205 214
f 214 205 218
f 214 218 226
f 226 218 224
f 226 224 230
f 302 230 293
f 293 230 224
f 293 224 278
f 278 224 218
f 278 218 273
f 273 218 205
f 273 205 255
f 255 205 196
f 255 196 252
f 252 196 190
f 252 190 240
f 240 190 185
f 298 307 289
f 298 289 285
f 285 289 257
f 285 257 274
f 265 267 259
f 244 246 263
f 263 246 248
f 263 248 261
f 261 248 250
f 261 250 253
f 257 255 252
f 267 274 259
f 259 274 257
f 259 257 242
f 242 257 252
f 242 252 240
f 242 244 259
f 259 244 263
f 259 263 265
f 265 263 261
f 265 261 269
f 269 261 253
f 269 253 277
f 277 253 271
f 277 271 282
f 282 271 280
f 282 280 292
f 292 280 287
f 292 287 300
f 300 287 296
f 300 296 308
f 255 257 273
f 273 257 289
f 273 289 278
f 278 289 293
f 293 289 307
f 293 307 302
f 465 466 474
f 474 466 475
f 474 475 507
f 507 475 508
f 507 508 549
f 549 508 550
f 549 550 596
f 596 550 597
f 596 597 642
f 642 597 643
f 642 643 665
f 665 643 666
f 665 666 650
f 650 666 651
f 650 651 609
f 609 651 610
f 609 610 567
f 567 610 568
f 567 568 518
f 518 568 519
f 518 519 478
f 478 519 479
f 478 479 465
f 465 479 466
f 515 507 551
f 551 507 549
f 551 549 590
f 590 549 596
f 590 596 637
f 637 596 642
f 637 642 658
f 658 642 665
f 658 665 638
f 638 665 650
f 638 650 600
f 600 650 609
f 600 609 566
f 566 609 567
f 566 567 525
f 525 567 518
f 525 518 486
f 486 518 478
f 486 478 469
f 469 478 465
f 469 465 483
f 483 465 474
f 483 474 515
f 515 474 507
f 481 482 488
f 488 482 489
f 488 489 521
f 521 489 522
f 521 522 553
f 553 522 554
f 553 554 586
f 586 554 587
f 586 587 630
f 630 587 631
f 630 631 640
f 640 631 641
f 640 641 633
f 633 641 634
f 633 634 594
f 594 634 595
f 594 595 564
f 564 595 565
f 564 565 529
f 529 565 530
f 529 530 491
f 491 530 492
f 491 492 481
f 481 492 482
f 558 553 578
f 578 553 586
f 578 586 589
f 589 586 630
f 589 630 604
f 604 630 640
f 604 640 592
f 592 640 633
f 592 633 580
f 580 633 594
f 580 594 560
f 560 594 564
f 560 564 544
f 544 564 529
f 544 529 527
f 527 529 491
f 527 491 514
f 514 491 481
f 514 481 524
f 524 481 488
f 524 488 540
f 540 488 521
f 540 521 558
f 558 521 553
f 489 483 522
f 522 483 515
f 522 515 554
f 554 515 551
f 554 551 587
f 587 551 590
f 587 590 631
f 631 590 637
f 631 637 641
f 641 637 658
f 641 658 634
f 634 658 638
f 634 638 595
f 595 638 600
f 595 600 565
f 565 600 566
f 565 566 530
f 530 566 525
f 530 525 492
f 492 525 486
f 492 486 482
f 482 486 469
f 482 469 489
f 489 469 483
f 674 673 657
f 657 673 656
f 657 656 606
f 606 656 605
f 606 605 546
f 546 605 545
f 546 545 500
f 500 545 499
f 500 499 468
f 468 499 467
f 468 467 456
f 456 467 455
f 456 455 471
f 471 455 470
f 471 470 510
f 510 470 509
f 510 509 572
f 572 509 571
f 572 571 618
f 618 571 617
f 618 617 660
f 660 617 659
f 660 659 674
f 674 659 673
f 670 669 645
f 645 669 644
f 645 644 599
f 599 644 598
f 599 598 548
f 548 598 547
f 548 547 506
f 506 547 505
f 506 505 473
f 473 505 472
f 473 472 462
f 462 472 461
f 462 461 477
f 477 461 476
f 477 476 517
f 517 476 516
f 517 516 570
f 570 516 569
f 570 569 612
f 612 569 611
f 612 611 653
f 653 611 652
f 653 652 670
f 670 652 669
f 585 599 552
f 552 599 548
f 552 548 520
f 520 548 506
f 520 506 487
f 487 506 473
f 487 473 480
f 480 473 462
f 480 462 490
f 490 462 477
f 490 477 528
f 528 477 517
f 528 517 563
f 563 517 570
f 563 570 593
f 593 570 612
f 593 612 632
f 632 612 653
f 632 653 639
f 639 653 670
f 639 670 629
f 629 670 645
f 629 645 585
f 585 645 599
f 628 627 620
f 620 627 619
f 620 619 582
f 582 619 581
f 582 581 556
f 556 581 555
f 556 555 534
f 534 555 533
f 534 533 496
f 496 533 495
f 496 495 494
f 494 495 493
f 494 493 498
f 498 493 497
f 498 497 536
f 536 497 535
f 536 535 562
f 562 535 561
f 562 561 584
f 584 561 583
f 584 583 622
f 622 583 621
f 622 621 628
f 628 621 627
f 557 556 539
f 539 556 534
f 539 534 523
f 523 534 496
f 523 496 513
f 513 496 494
f 513 494 526
f 526 494 498
f 526 498 543
f 543 498 536
f 543 536 559
f 559 536 562
f 559 562 579
f 579 562 584
f 579 584 591
f 591 584 622
f 591 622 603
f 603 622 628
f 603 628 588
f 588 628 620
f 588 620 577
f 577 620 582
f 577 582 557
f 557 582 556
f 644 657 598
f 598 657 606
f 598 606 547
f 547 606 546
f 547 546 505
f 505 546 500
f 505 500 472
f 472 500 468
f 472 468 461
f 461 468 456
f 461 456 476
f 476 456 471
f 476 471 516
f 516 471 510
f 516 510 569
f 569 510 572
f 569 572 611
f 611 572 618
f 611 618 652
f 652 618 660
f 652 660 669
f 669 660 674
f 669 674 644
f 644 674 657
f 619 629 581
f 581 629 585
f 581 585 555
f 555 585 552
f 555 552 533
f 533 552 520
f 533 520 495
f 495 520 487
f 495 487 493
f 493 487 480
f 493 480 497
f 497 480 490
f 497 490 535
f 535 490 528
f 535 528 561
f 561 528 563
f 561 563 583
f 583 563 593
f 583 593 621
f 621 593 632
f 621 632 627
f 627 632 639
f 627 639 619
f 619 639 629
f 327 22 325
f 325 22 20
f 325 20 323
f 323 20 18
f 323 18 322
f 322 18 17
f 322 17 324
f 324 17 19
f 324 19 326
f 326 19 21
f 326 21 329
f 329 21 23
f 329 23 331
f 331 23 25
f 331 25 333
f 333 25 27
f 333 27 334
f 334 27 28
f 334 28 332
f 332 28 26
f 332 26 330
f 330 26 24
f 330 24 327
f 327 24 22
f 332 330 328
f 328 330 327
f 328 327 325
f 331 333 328
f 328 333 334
f 328 334 332
f 324 326 328
f 328 326 329
f 328 329 331
f 325 323 328
f 328 323 322
f 328 322 324
f 576 575 512
f 512 575 511
f 512 511 485
f 485 511 484
f 485 484 460
f 460 484 459
f 460 459 450
f 450 459 444
f 459 449 444
f 444 449 443
f 444 443 436
f 436 443 435
f 436 435 432
f 432 435 431
f 575 576 667
f 667 576 668
f 573 691 689
f 635 625 573
f 573 625 541
f 573 541 503
f 635 573 671
f 671 573 689
f 671 689 681
f 574 636 672
f 626 636 542
f 542 636 574
f 542 574 504
f 672 682 574
f 574 682 690
f 574 690 692
f 702 701 700
f 700 701 699
f 700 699 683
f 671 672 635
f 635 672 636
f 635 636 625
f 625 636 626
f 625 626 615
f 615 626 616
f 615 616 607
f 607 616 608
f 607 608 601
f 601 608 602
f 601 602 613
f 613 602 614
f 613 614 623
f 623 614 624
f 623 624 646
f 646 624 647
f 646 647 683
f 683 647 684
f 683 684 700
f 702 706 701
f 701 706 705
f 705 706 709
f 709 706 710
f 709 710 713
f 713 710 714
f 713 714 715
f 714 716 715
f 715 716 722
f 715 722 721
f 721 722 726
f 721 726 725
f 694 692 693
f 693 692 690
f 693 690 691
f 691 690 689
f 689 690 682
f 689 682 681
f 681 682 672
f 681 672 671
f 694 693 687
f 694 687 688
f 688 687 675
f 688 675 676
f 676 675 667
f 676 667 668
f 433 441 439
f 439 441 447
f 439 447 445
f 531 457 463
f 445 447 453
f 463 537 531
f 531 537 615
f 531 615 607
f 625 615 541
f 541 615 537
f 541 537 503
f 503 537 463
f 503 463 453
f 453 463 457
f 453 457 445
f 538 616 626
f 608 616 532
f 532 616 538
f 532 538 458
f 538 464 458
f 458 464 448
f 458 448 446
f 626 542 538
f 538 542 504
f 538 504 464
f 464 504 454
f 464 454 448
f 434 440 442
f 442 440 446
f 442 446 448
f 573 575 691
f 691 575 667
f 667 675 691
f 691 675 687
f 691 687 693
f 575 573 511
f 511 573 503
f 453 447 449
f 511 503 484
f 484 503 453
f 484 453 459
f 459 453 449
f 449 447 443
f 443 447 441
f 443 441 435
f 435 441 433
f 435 433 431
f 431 433 429
f 393 395 401
f 401 395 403
f 401 403 411
f 411 403 417
f 411 417 415
f 415 417 425
f 425 417 431
f 425 431 429
f 377 379 393
f 393 379 395
f 318 304 306
f 306 320 318
f 318 320 343
f 318 343 341
f 341 343 355
f 341 355 353
f 353 355 367
f 353 367 365
f 365 367 373
f 365 373 371
f 371 373 379
f 371 379 377
f 688 676 668
f 694 688 692
f 692 688 668
f 692 668 574
f 574 668 576
f 512 504 576
f 576 504 574
f 454 504 512
f 450 448 460
f 460 448 454
f 460 454 485
f 485 454 512
f 436 434 444
f 444 434 442
f 444 442 450
f 450 442 448
f 434 436 430
f 430 436 432
f 418 416 432
f 432 416 426
f 432 426 430
f 396 394 404
f 404 394 402
f 404 402 418
f 418 402 412
f 418 412 416
f 380 378 396
f 396 378 394
f 321 311 305
f 305 319 321
f 321 319 342
f 321 342 344
f 344 342 354
f 344 354 356
f 356 354 366
f 356 366 368
f 368 366 372
f 368 372 374
f 374 372 378
f 374 378 380
