# Original visual geometry, without decimation. Units: metres.
v -0.12282460182905197 0.012500000186264515 -0.10869348794221878
v -0.12282460182905197 0.017500000074505806 -0.10869348794221878
v -0.12273672223091125 0.012500000186264515 -0.10824792087078094
v -0.12273672223091125 0.017500000074505806 -0.10824792087078094
v -0.12269069999456406 0.012000000104308128 -0.10868889093399048
v -0.12269069999456406 0.017999999225139618 -0.10868889093399048
v -0.12261459976434708 0.012000000104308128 -0.1083030104637146
v -0.12261459976434708 0.017999999225139618 -0.1083030104637146
v -0.12246083468198776 0.012500000186264515 -0.10788716375827789
v -0.12246083468198776 0.017500000074505806 -0.10788716375827789
v -0.12237567454576492 0.012000000104308128 -0.10799058526754379
v -0.12237567454576492 0.017999999225139618 -0.10799058526754379
v -0.12232489138841629 0.011633974500000477 -0.10867632180452347
v -0.12232489138841629 0.018366025760769844 -0.10867632180452347
v -0.12228096276521683 0.011633974500000477 -0.10845353454351425
v -0.12228096276521683 0.018366025760769844 -0.10845353454351425
v -0.12226478755474091 0.014999999664723873 -0.12498529255390167
v -0.12225719541311264 0.014174999669194221 -0.12520621716976166
v -0.12225719541311264 0.015824999660253525 -0.12520621716976166
v -0.1222364529967308 0.0135710583999753 -0.12580980360507965
v -0.1222364529967308 0.016428941860795021 -0.12580980360507965
v -0.1222081184387207 0.01334999967366457 -0.12663431465625763
v -0.1222081184387207 0.016650000587105751 -0.12663431465625763
v -0.1221797913312912 0.0135710583999753 -0.12745882570743561
v -0.1221797913312912 0.016428941860795021 -0.12745882570743561
v -0.12215904891490936 0.014174999669194221 -0.1280624121427536
v -0.12215904891490936 0.015824999660253525 -0.1280624121427536
v -0.1221514567732811 0.014999999664723873 -0.12828333675861359
v -0.12214301526546478 0.011633974500000477 -0.10827314853668213
v -0.12214301526546478 0.018366025760769844 -0.10827314853668213
v -0.1220538467168808 0.012500000186264515 -0.1076856404542923
v -0.1220538467168808 0.017500000074505806 -0.1076856404542923
v -0.12202321738004684 0.012000000104308128 -0.10781606286764145
v -0.12202321738004684 0.017999999225139618 -0.10781606286764145
v -0.121939517557621 0.011633974500000477 -0.10817238688468933
v -0.121939517557621 0.018366025760769844 -0.10817238688468933
v -0.12182518839836121 0.011500000022351742 -0.10865914821624756
v -0.12182518839836121 0.018500000238418579 -0.10865914821624756
v -0.12171243876218796 0.011633974500000477 -0.10817202180624008
v -0.12171243876218796 0.018366025760769844 -0.10817202180624008
v -0.12162990123033524 0.012000000104308128 -0.10781542211771011
v -0.12162990123033524 0.017999999225139618 -0.10781542211771011
v -0.12159969657659531 0.012500000186264515 -0.1076849028468132
v -0.12159969657659531 0.017500000074505806 -0.1076849028468132
v -0.12159164249897003 0.012500000186264515 -0.14457513391971588
v -0.12159164249897003 0.017500000074505806 -0.14457513391971588
v -0.12147338688373566 0.012500000186264515 -0.14501363039016724
v -0.12147338688373566 0.017500000074505806 -0.14501363039016724
v -0.12145774811506271 0.012000000104308128 -0.14457054436206818
v -0.12145774811506271 0.017999999225139618 -0.14457054436206818
v -0.1213553324341774 0.012000000104308128 -0.14495028555393219
v -0.1213553324341774 0.017999999225139618 -0.14495028555393219
v -0.12117338925600052 0.012500000186264515 -0.14535459876060486
v -0.12117338925600052 0.017500000074505806 -0.14535459876060486
v -0.12109552323818207 0.012000000104308128 -0.14524558186531067
v -0.12109552323818207 0.017999999225139618 -0.14524558186531067
v -0.12109193950891495 0.011633974500000477 -0.14455796778202057
v -0.12109193950891495 0.018366025760769844 -0.14455796778202057
v -0.12103281170129776 0.011633974500000477 -0.14477722346782684
v -0.12103281170129776 0.018366025760769844 -0.14477722346782684
v -0.12088281661272049 0.011633974500000477 -0.14494770765304565
v -0.12088281661272049 0.018366025760769844 -0.14494770765304565
v -0.12075352668762207 0.012500000186264515 -0.14552772045135498
v -0.12075352668762207 0.017500000074505806 -0.14552772045135498
v -0.12073192000389099 0.012000000104308128 -0.14539550244808197
v -0.12073192000389099 0.017999999225139618 -0.14539550244808197
v -0.12067288160324097 0.011633974500000477 -0.14503425359725952
v -0.12067288160324097 0.018366025760769844 -0.14503425359725952
v -0.12059222906827927 0.011500000022351742 -0.14454080164432526
v -0.12059222906827927 0.018500000238418579 -0.14454080164432526
v -0.12048055231571198 0.011576120741665363 -0.14490683376789093
v -0.12044630944728851 0.011633974500000477 -0.1450190395116806
v -0.12044630944728851 0.018366025760769844 -0.1450190395116806
v -0.12038587033748627 0.011792893521487713 -0.14521713554859161
v -0.12033949047327042 0.012000000104308128 -0.14536912739276886
v -0.12033949047327042 0.017999999225139618 -0.14536912739276886
v -0.12032261490821838 0.012117316946387291 -0.14542445540428162
v -0.12030038982629776 0.012500000186264515 -0.14549727737903595
v -0.12030038982629776 0.017500000074505806 -0.14549727737903595
v -0.11886312067508698 0.011500000022351742 -0.11871477216482162
v -0.11886312067508698 0.018500000238418579 -0.11871477216482162
v -0.1186092421412468 0.011500000022351742 -0.1176179051399231
v -0.1186092421412468 0.018500000238418579 -0.1176179051399231
v -0.11853455007076263 0.011500000022351742 -0.11979162693023682
v -0.11853455007076263 0.018500000238418579 -0.11979162693023682
v -0.11832738667726517 0.011500000022351742 -0.13430556654930115
v -0.11832738667726517 0.018500000238418579 -0.13430556654930115
v -0.11807351559400558 0.011500000022351742 -0.13320870697498322
v -0.11807351559400558 0.018500000238418579 -0.13320870697498322
v -0.11799882352352142 0.011500000022351742 -0.13538242876529694
v -0.11799882352352142 0.018500000238418579 -0.13538242876529694
v -0.11784094572067261 0.011500000022351742 -0.11679493635892868
v -0.11784094572067261 0.018500000238418579 -0.11679493635892868
v -0.11771157383918762 0.011500000022351742 -0.120559923350811
v -0.11771157383918762 0.018500000238418579 -0.120559923350811
v -0.1173052117228508 0.011500000022351742 -0.1323857307434082
v -0.1173052117228508 0.018500000238418579 -0.1323857307434082
v -0.11717584729194641 0.011500000022351742 -0.13615071773529053
v -0.11717584729194641 0.018500000238418579 -0.13615071773529053
v -0.11676409095525742 0.011500000022351742 -0.11646635830402374
v -0.11676409095525742 0.018500000238418579 -0.11646635830402374
v -0.11661470681428909 0.011500000022351742 -0.12081380188465118
v -0.11661470681428909 0.018500000238418579 -0.12081380188465118
v -0.1162283644080162 0.011500000022351742 -0.13205716013908386
v -0.1162283644080162 0.018500000238418579 -0.13205716013908386
v -0.11607898026704788 0.011500000022351742 -0.13640458881855011
v -0.11607898026704788 0.018500000238418579 -0.13640458881855011
v -0.11566723138093948 0.011500000022351742 -0.11672024428844452
v -0.11566723138093948 0.018500000238418579 -0.11672024428844452
v -0.1155378594994545 0.011500000022351742 -0.12048522382974625
v -0.1155378594994545 0.018500000238418579 -0.12048522382974625
v -0.11537610739469528 0.011500000022351742 -0.11015182733535767
v -0.11537610739469528 0.018500000238418579 -0.11015182733535767
v -0.11526336520910263 0.011633974500000477 -0.10966470837593079
v -0.11526336520910263 0.018366025760769844 -0.10966470837593079
v -0.11518082767724991 0.012000000104308128 -0.10930810868740082
v -0.11518082767724991 0.017999999225139618 -0.10930810868740082
v -0.11515061557292938 0.012500000186264515 -0.10917757451534271
v -0.11515061557292938 0.017500000074505806 -0.10917757451534271
v -0.11513150483369827 0.011500000022351742 -0.13231104612350464
v -0.11513150483369827 0.018500000238418579 -0.13231104612350464
v -0.11500213295221329 0.011500000022351742 -0.13607603311538696
v -0.11500213295221329 0.018500000238418579 -0.13607603311538696
v -0.11489077657461166 0.012500000186264515 -0.10920275002717972
v -0.11489077657461166 0.017500000074505806 -0.10920275002717972
v -0.11488617956638336 0.012000000104308128 -0.10933664441108704
v -0.11488617956638336 0.017999999225139618 -0.10933664441108704
v -0.11487361043691635 0.011633974500000477 -0.1097024530172348
v -0.11487361043691635 0.018366025760769844 -0.1097024530172348
v -0.11485643684864044 0.011500000022351742 -0.11020216345787048
v -0.11485643684864044 0.018500000238418579 -0.11020216345787048
v -0.11484424769878387 0.011500000022351742 -0.11748853325843811
v -0.11484424769878387 0.018500000238418579 -0.11748853325843811
v -0.11476955562829971 0.011500000022351742 -0.11966225504875183
v -0.11476955562829971 0.018500000238418579 -0.11966225504875183
v -0.11451568454504013 0.011500000022351742 -0.1185653880238533
v -0.11451568454504013 0.018500000238418579 -0.1185653880238533
v -0.11430852115154266 0.011500000022351742 -0.13307933509349823
v -0.11430852115154266 0.018500000238418579 -0.13307933509349823
v -0.11426082253456116 0.011500000022351742 -0.14260897040367126
v -0.11426082253456116 0.018500000238418579 -0.14260897040367126
v -0.1142338290810585 0.011500000022351742 -0.13525305688381195
v -0.1142338290810585 0.018500000238418579 -0.13525305688381195
v -0.11414914578199387 0.011576120741665363 -0.14297498762607574
v -0.1141149029135704 0.011633974500000477 -0.14308720827102661
v -0.1141149029135704 0.018366025760769844 -0.14308720827102661
v -0.11405446380376816 0.011792893521487713 -0.14328528940677643
v -0.11400808393955231 0.012000000104308128 -0.14343728125095367
v -0.11400808393955231 0.017999999225139618 -0.14343728125095367
v -0.11399120092391968 0.012117316946387291 -0.14349262416362762
v -0.11397995799779892 0.011500000022351742 -0.13415618240833282
v -0.11397995799779892 0.018500000238418579 -0.13415618240833282
v -0.11396898329257965 0.012500000186264515 -0.14356543123722076
v -0.11396898329257965 0.017500000074505806 -0.14356543123722076
v -0.11374583095312119 0.011500000022351742 -0.14252308011054993
v -0.11374583095312119 0.018500000238418579 -0.14252308011054993
v -0.11372866481542587 0.011633974500000477 -0.14302279055118561
v -0.11372866481542587 0.018366025760769844 -0.14302279055118561
v -0.11371609568595886 0.012000000104308128 -0.14338858425617218
v -0.11371609568595886 0.017999999225139618 -0.14338858425617218
v -0.11371149122714996 0.012500000186264515 -0.1435224860906601
v -0.11371149122714996 0.017500000074505806 -0.1435224860906601
v -0.11222030967473984 0.012048553675413132 -0.10921874642372131
v -0.11222030967473984 0.017951447516679764 -0.10921874642372131
v -0.11221940815448761 0.012000000104308128 -0.10924500972032547
v -0.11221940815448761 0.017999999225139618 -0.10924500972032547
v -0.11221446841955185 0.012046003714203835 -0.10921982675790787
v -0.11221446841955185 0.017953997477889061 -0.10921982675790787
v -0.11221280694007874 0.011761093512177467 -0.10943711549043655
v -0.1122068390250206 0.011633974500000477 -0.10961081832647324
v -0.1122068390250206 0.018366025760769844 -0.10961081832647324
v -0.11220207810401917 0.011567555367946625 -0.10974942147731781
v -0.11218966543674469 0.011500000022351742 -0.11011052876710892
v -0.11218966543674469 0.018500000238418579 -0.11011052876710892
v -0.11208906769752502 0.018011277541518211 -0.10923720151185989
v -0.11183685064315796 0.012155400589108467 -0.10915909707546234
v -0.11183685064315796 0.017844598740339279 -0.10915909707546234
v -0.1118072122335434 0.018576120957732201 -0.11009738594293594
v -0.11172185838222504 0.011782323010265827 -0.10921730101108551
v -0.11172185838222504 0.018217677250504494 -0.10921730101108551
v -0.11171620339155197 0.011662098579108715 -0.1093297153711319
v -0.11170943081378937 0.01848204992711544 -0.10952670127153397
v -0.1117040291428566 0.011442631483078003 -0.10968387126922607
v -0.11168996244668961 0.011366025544703007 -0.11009335517883301
v -0.11168996244668961 0.018633974716067314 -0.11009335517883301
v -0.1116841658949852 0.011756381951272488 -0.10920765995979309
v -0.1116841658949852 0.018243618309497833 -0.10920765995979309
v -0.11159782856702805 0.011810800991952419 -0.10918340086936951
v -0.11159782856702805 0.018189199268817902 -0.10918340086936951
v -0.11154946684837341 0.01163781713694334 -0.10916975140571594
v -0.11151428520679474 0.012296199798583984 -0.10910772532224655
v -0.11151428520679474 0.017703799530863762 -0.10910772532224655
v -0.11148297041654587 0.01879289373755455 -0.11008623987436295
v -0.11144672334194183 0.01849166676402092 -0.10914058238267899
v -0.11141330748796463 0.011456162668764591 -0.10913105309009552
v -0.11138799041509628 0.01240086741745472 -0.10908731073141098
v -0.11138799041509628 0.017599133774638176 -0.10908731073141098
v -0.11135948449373245 0.012449466623365879 -0.10908268392086029
v -0.11135948449373245 0.017550533637404442 -0.10908268392086029
v -0.11135763674974442 0.018646650016307831 -0.1091151162981987
v -0.11135740578174591 0.011352880857884884 -0.10911504924297333
v -0.11134991049766541 0.018799038603901863 -0.10933122038841248
v -0.11134952306747437 0.012500000186264515 -0.10908106714487076
v -0.11134952306747437 0.017500000074505806 -0.10908106714487076
v -0.11134276539087296 0.011101332493126392 -0.10953913629055023
v -0.11132415384054184 0.010999999940395355 -0.110080786049366
v -0.11132415384054184 0.018999999389052391 -0.110080786049366
v -0.11132010072469711 0.011267948895692825 -0.10910433530807495
v -0.11129501461982727 0.018800597637891769 -0.10909711569547653
v -0.11127058416604996 0.012092399410903454 -0.10909006744623184
v -0.11127058416604996 0.017907600849866867 -0.10909006744623184
v -0.11126632988452911 0.019117316231131554 -0.11007879674434662
v -0.11122459918260574 0.0029999997932463884 -0.10907676815986633
v -0.11122459918260574 0.010767948813736439 -0.10907676815986633
v -0.11122459918260574 0.019232051447033882 -0.10907676815986633
v -0.11122459918260574 0.027000000700354576 -0.10907676815986633
v -0.11121506989002228 0.010635110549628735 -0.10935398191213608
v -0.11119025200605392 0.010499999858438969 -0.1100761815905571
v -0.11119025200605392 0.019500000402331352 -0.1100761815905571
v -0.11114247143268585 0.012301734648644924 -0.10905291885137558
v -0.11114247143268585 0.017698265612125397 -0.10905291885137558
v -0.11111851036548615 3.3527683407363895e-10 -0.11216408759355545
v -0.11111851036548615 0.029999999329447746 -0.11216408759355545
v -0.11111355572938919 0.012398933060467243 -0.10904448479413986
v -0.11111355572938919 0.017601067200303078 -0.10904448479413986
v -0.11110345274209976 0.012500000186264515 -0.10904152691364288
v -0.11110345274209976 0.017500000074505806 -0.10904152691364288
v -0.11107906699180603 0.011500000022351742 -0.14243143796920776
v -0.11107906699180603 0.018500000238418579 -0.14243143796920776
v -0.11106189340353012 0.011633974500000477 -0.14293114840984344
v -0.11106189340353012 0.018366025760769844 -0.14293114840984344
v -0.11104932427406311 0.012000000104308128 -0.14329695701599121
v -0.11104932427406311 0.017999999225139618 -0.14329695701599121
v -0.11104471981525421 0.012500000186264515 -0.14343085885047913
v -0.11104471981525421 0.017500000074505806 -0.14343085885047913
v -0.11104024946689606 0.012504472397267818 -0.14343069493770599
v -0.11104024946689606 0.017495527863502502 -0.14343069493770599
v -0.11074689030647278 0.012804850935935974 -0.14342062175273895
v -0.11074689030647278 0.017195148393511772 -0.14342062175273895
v -0.11069660633802414 0.018576120957732201 -0.14241829514503479
v -0.11058914661407471 0.012981624342501163 -0.14341519773006439
v -0.11058914661407471 0.017018375918269157 -0.14341519773006439
v -0.11057935655117035 0.011366025544703007 -0.14241427183151245
v -0.11057935655117035 0.018633974716067314 -0.14241427183151245
v -0.11055988818407059 0.011517949402332306 -0.1429809182882309
v -0.11055988818407059 0.01848204992711544 -0.1429809182882309
v -0.11054563522338867 0.011933012865483761 -0.14339575171470642
v -0.11054563522338867 0.01806698739528656 -0.14339575171470642
v -0.11054178327322006 0.012797793373465538 -0.14350779354572296
v -0.11054178327322006 0.017202205955982208 -0.14350779354572296
v -0.11054041236639023 0.012500000186264515 -0.14354757964611053
v -0.11054041236639023 0.017500000074505806 -0.14354757964611053
v -0.11052282899618149 0.01249400619417429 -0.14355716109275818
v -0.11052282899618149 0.017494006082415581 -0.14355716109275818
v -0.11045929789543152 0.012876354157924652 -0.14353597164154053
v -0.11045929789543152 0.017876353114843369 -0.14353597164154053
v -0.11045510321855545 0.012110475450754166 -0.14353457093238831
v -0.11045510321855545 0.017110476270318031 -0.14353457093238831
v -0.11045421659946442 0.013150980696082115 -0.14341056346893311
v -0.11045421659946442 0.016849018633365631 -0.14341056346893311
v -0.11037236452102661 0.01879289373755455 -0.14240714907646179
v -0.11034884303808212 0.018166236579418182 -0.1434989869594574
v -0.11034863442182541 0.011833273805677891 -0.14349891245365143
v -0.11034386605024338 0.013177955523133278 -0.14349731802940369
v -0.11034360527992249 0.016821421682834625 -0.14349722862243652
v -0.11021354794502258 0.010999999940395355 -0.14240169525146484
v -0.11021354794502258 0.018999999389052391 -0.14240169525146484
v -0.11020120978355408 0.013568786904215813 -0.1434018611907959
v -0.11020120978355408 0.016431212425231934 -0.1434018611907959
v -0.1101987436413765 0.011474900878965855 -0.14344847202301025
v -0.1101987436413765 0.016474900767207146 -0.14344847202301025
v -0.11019691079854965 0.012504769489169121 -0.14344784617424011
v -0.11019507050514221 0.013534638099372387 -0.14344723522663116
v -0.11019507050514221 0.018534637987613678 -0.14344723522663116
v -0.11018853634595871 0.013596688397228718 -0.14340142905712128
v -0.11018853634595871 0.016403311863541603 -0.14340142905712128
v -0.11018779128789902 0.011200961656868458 -0.14315126836299896
v -0.11018779128789902 0.018799038603901863 -0.14315126836299896
v -0.110171839594841 0.013597051613032818 -0.14343938231468201
v -0.11016938835382462 0.016396166756749153 -0.14343856275081635
v -0.11015573143959045 0.019117316231131554 -0.14239971339702606
v -0.11015310138463974 3.3527683407363895e-10 -0.14025954902172089
v -0.11015310138463974 0.029999999329447746 -0.14025954902172089
v -0.11013460904359818 0.01373205054551363 -0.14339958131313324
v -0.11013460904359818 0.016267949715256691 -0.14339958131313324
v -0.11012677848339081 0.01373205054551363 -0.14342415332794189
v -0.11012677848339081 0.018732050433754921 -0.14342415332794189
v -0.1101151779294014 0.011228565126657486 -0.14342021942138672
v -0.1101151779294014 0.016228565946221352 -0.14342021942138672
v -0.11007965356111526 0.010499999858438969 -0.14239709079265594
v -0.11007965356111526 0.019500000402331352 -0.14239709079265594
v -0.11006633192300797 0.0024142137262970209 -0.14278480410575867
v -0.11006633192300797 0.027585785835981369 -0.14278480410575867
v -0.11004530638456345 0.003828427055850625 -0.14339651167392731
v -0.11004530638456345 0.010767948813736439 -0.14339651167392731
v -0.11004530638456345 0.014232050627470016 -0.14339651167392731
v -0.11004530638456345 0.01576794870197773 -0.14339651167392731
v -0.11004530638456345 0.019232051447033882 -0.14339651167392731
v -0.11004530638456345 0.026171572506427765 -0.14339651167392731
v -0.1030561551451683 0.0029999997932463884 -0.10597527027130127
v -0.1030561551451683 0.027000000700354576 -0.10597527027130127
v -0.10176784545183182 3.3527677856248772e-10 -0.10868455469608307
v -0.10176784545183182 0.029999999329447746 -0.10868455469608307
v -0.10071851313114166 3.352767508069121e-10 -0.13626930117607117
v -0.10071851313114166 0.029999999329447746 -0.13626930117607117
v -0.099894814193248749 0.003828427055850625 -0.13920827209949493
v -0.099894814193248749 0.026171572506427765 -0.13920827209949493
v -0.099642686545848846 0.0024142137262970209 -0.13843055069446564
v -0.099642686545848846 0.027585785835981369 -0.13843055069446564
v -0.097279533743858337 0.014999999664723873 -0.12412675470113754
v -0.097271941602230072 0.014174999669194221 -0.12434767931699753
v -0.097271941602230072 0.015824999660253525 -0.12434767931699753
v -0.097251199185848236 0.0135710583999753 -0.12495126575231552
v -0.097251199185848236 0.016428941860795021 -0.12495126575231552
v -0.097222864627838135 0.01334999967366457 -0.1257757842540741
v -0.097222864627838135 0.014999999664723873 -0.1257757842540741
v -0.097222864627838135 0.016650000587105751 -0.1257757842540741
v -0.09719453752040863 0.0135710583999753 -0.12660029530525208
v -0.09719453752040863 0.016428941860795021 -0.12660029530525208
v -0.097173795104026794 0.014174999669194221 -0.12720388174057007
v -0.097173795104026794 0.015824999660253525 -0.12720388174057007
v -0.097166202962398529 0.014999999664723873 -0.12742480635643005
v -0.094872027635574341 0.0029999997932463884 -0.10115902870893478
v -0.094872027635574341 0.027000000700354576 -0.10115902870893478
v -0.09312903881072998 3.3527672305133649e-10 -0.10360074043273926
v -0.09312903881072998 0.029999999329447746 -0.10360074043273926
v -0.090899206697940826 3.3527669529576087e-10 -0.13050934672355652
v -0.090899206697940826 0.029999999329447746 -0.13050934672355652
v -0.08958619087934494 0.003828427055850625 -0.13324400782585144
v -0.08958619087934494 0.026171572506427765 -0.13324400782585144
v -0.089537754654884338 0.0024142137262970209 -0.13250306248664856
v -0.089537754654884338 0.027585785835981369 -0.13250306248664856
v -0.087658129632472992 0.0029999997932463884 -0.094983614981174469
v -0.087658129632472992 0.027000000700354576 -0.094983614981174469
v -0.085514366626739502 3.3527666754018526e-10 -0.097082257270812988
v -0.085514366626739502 0.029999999329447746 -0.097082257270812988
v -0.081960409879684448 3.3527663978460964e-10 -0.12345995754003525
v -0.081960409879684448 0.029999999329447746 -0.12345995754003525
v -0.081637531518936157 0.0029999997932463884 -0.087640009820461273
v -0.081637531518936157 0.027000000700354576 -0.087640009820461273
v -0.080338962376117706 0.0024142137262970209 -0.12524862587451935
v -0.080338962376117706 0.027585785835981369 -0.12524862587451935
v -0.080200396478176117 0.003828427055850625 -0.12591274082660675
v -0.080200396478176117 0.026171572506427765 -0.12591274082660675
v -0.079159297049045563 3.3527663978460964e-10 -0.089330680668354034
v -0.079159297049045563 0.029999999329447746 -0.089330680668354034
v -0.076996423304080963 0.0029999997932463884 -0.079355314373970032
v -0.076996423304080963 0.027000000700354576 -0.079355314373970032
v -0.074260346591472626 3.3527658427345841e-10 -0.080585718154907227
v -0.074260346591472626 0.029999999329447746 -0.080585718154907227
v -0.074070289731025696 3.3527658427345841e-10 -0.11525373905897141
v -0.074070289731025696 0.029999999329447746 -0.11525373905897141
v -0.072219341993331909 0.0024142137262970209 -0.11680372059345245
v -0.072219341993331909 0.027585785835981369 -0.11680372059345245
v -0.071917429566383362 0.003828427055850625 -0.11735512316226959
v -0.071917429566383362 0.026171572506427765 -0.11735512316226959
v -0.067377269268035889 3.352765565178828e-10 -0.10604508221149445
v -0.067377269268035889 0.029999999329447746 -0.10604508221149445
v -0.065331645309925079 0.0024142137262970209 -0.10732720047235489
v -0.065331645309925079 0.027585785835981369 -0.10732720047235489
v -0.064896143972873688 0.003828427055850625 -0.10773523896932602
v -0.064896143972873688 0.026171572506427765 -0.10773523896932602
v -0.062007267028093338 3.3527652876230718e-10 -0.096007198095321655
v -0.062007267028093338 0.029999999329447746 -0.096007198095321655
v -0.059805445373058319 0.0024142137262970209 -0.096997357904911041
v -0.059805445373058319 0.027585785835981369 -0.096997357904911041
v -0.059271190315485001 0.003828427055850625 -0.09723760187625885
v -0.059271190315485001 0.026171572506427765 -0.09723760187625885
v -0.057637378573417664 0.0029999997932463884 -0.036306183785200119
v -0.057637378573417664 0.027000000700354576 -0.036306183785200119
v -0.054901301860809326 3.3527647325115595e-10 -0.037536587566137314
v -0.054901301860809326 0.029999999329447746 -0.037536587566137314
v -0.051950599998235703 0.0029999997932463884 -0.025349311530590057
v -0.051950599998235703 0.027000000700354576 -0.025349311530590057
v -0.04936961829662323 3.3527644549558033e-10 -0.026878539472818375
v -0.04936961829662323 0.029999999329447746 -0.026878539472818375
v -0.045531477779150009 3.3527641774000472e-10 -0.059369634836912155
v -0.045531477779150009 0.029999999329447746 -0.059369634836912155
v -0.045071937143802643 0.0029999997932463884 -0.015098630450665951
v -0.045071937143802643 0.027000000700354576 -0.015098630450665951
v -0.04332965612411499 0.0024142137262970209 -0.060359787195920944
v -0.04332965612411499 0.027585785835981369 -0.060359787195920944
v -0.042795401066541672 0.003828427055850625 -0.06060003861784935
v -0.042795401066541672 0.026171572506427765 -0.06060003861784935
v -0.042678553611040115 3.3527641774000472e-10 -0.016907421872019768
v -0.042678553611040115 0.029999999329447746 -0.016907421872019768
v -0.041966434568166733 3.352763899844291e-10 -0.052351988852024078
v -0.041966434568166733 0.029999999329447746 -0.052351988852024078
v -0.039868306368589401 0.0024142137262970209 -0.05354626476764679
v -0.039868306368589401 0.027585785835981369 -0.05354626476764679
v -0.038204777985811234 0.0024142137262970209 -0.050756096839904785
v -0.038204777985811234 0.027585785835981369 -0.050756096839904785
v -0.037707779556512833 0.003828427055850625 -0.051066156476736069
v -0.037707779556512833 0.026171572506427765 -0.051066156476736069
v -0.037088021636009216 0.0029999997932463884 -0.0056832409463822842
v -0.037088021636009216 0.027000000700354576 -0.0056832409463822842
v -0.036012787371873856 3.3527636222885349e-10 -0.043317992240190506
v -0.036012787371873856 0.029999999329447746 -0.043317992240190506
v -0.034912381321191788 3.3527636222885349e-10 -0.0077488156966865063
v -0.034912381321191788 0.029999999329447746 -0.0077488156966865063
v -0.034087833017110825 0.0024142137262970209 -0.044775038957595825
v -0.034087833017110825 0.027585785835981369 -0.044775038957595825
v -0.033005774021148682 0.0029999997932463884 -0.002193669555708766
v -0.033005774021148682 0.027000000700354576 -0.002193669555708766
v -0.03183235228061676 0.0024142137262970209 -0.041930712759494781
v -0.03183235228061676 0.027585785835981369 -0.041930712759494781
v -0.031381674110889435 0.003828427055850625 -0.042304929345846176
v -0.031381674110889435 0.026171572506427765 -0.042304929345846176
v -0.031303871423006058 3.3527633447327787e-10 -0.0046642026863992214
v -0.031303871423006058 0.029999999329447746 -0.0046642026863992214
v -0.028934609144926071 3.3527630671770225e-10 -0.035135187208652496
v -0.028934609144926071 0.029999999329447746 -0.035135187208652496
v -0.028290597721934319 0.0029999997932463884 0.00037712531047873199
v -0.028290597721934319 0.027000000700354576 0.00037712531047873199
v -0.027215536683797836 0.0024142137262970209 -0.036830242723226547
v -0.027215536683797836 0.027585785835981369 -0.036830242723226547
v -0.027135886251926422 3.3527630671770225e-10 -0.0023917441722005606
v -0.027135886251926422 0.029999999329447746 -0.0023917441722005606
v -0.024328650906682014 0.0024142137262970209 -0.034044675529003143
v -0.024328650906682014 0.027585785835981369 -0.034044675529003143
v -0.023932518437504768 0.003828427055850625 -0.034476213157176971
v -0.023932518437504768 0.026171572506427765 -0.034476213157176971
v -0.02145707793533802 0.0025877163279801607 -0.031757481396198273
v -0.02145707793533802 0.027412284165620804 -0.031757481396198273
v -0.021228805184364319 0.0040019298903644085 -0.032319117337465286
v -0.021228805184364319 0.0259980708360672 -0.032319117337465286
v -0.020852174609899521 3.3527625120655102e-10 -0.027942601591348648
v -0.020852174609899521 0.029999999329447746 -0.027942601591348648
v -0.020096568390727043 0.0024681941140443087 -0.030490327626466751
v -0.020096568390727043 0.027531806379556656 -0.030490327626466751
v -0.019984597340226173 0.0026212336961179972 -0.03062068298459053
v -0.019984597340226173 0.027378767728805542 -0.03062068298459053
v -0.01941155269742012 0.0042292126454412937 -0.031176634132862091
v -0.01941155269742012 0.025770789012312889 -0.031176634132862091
v -0.018338555470108986 0.0024142137262970209 -0.029057718813419342
v -0.018338555470108986 0.027585785835981369 -0.029057718813419342
v -0.018102234229445457 0.0027194025460630655 -0.029371250420808792
v -0.018102234229445457 0.027280597016215324 -0.029371250420808792
v -0.017851170152425766 0.0044388058595359325 -0.030358243733644485
v -0.017851170152425766 0.025561194866895676 -0.030358243733644485
v -0.016193412244319916 0.0029999997932463884 0.0054220645688474178
v -0.016193412244319916 0.027000000700354576 0.0054220645688474178
v -0.015052618458867073 0.0029110510367900133 -0.027706144377589226
v -0.015052618458867073 0.027088949456810951 -0.027706144377589226
v -0.014976277947425842 0.027900001034140587 -0.0093586631119251251
v -0.014976277947425842 0.029999999329447746 -0.0093586631119251251
v -0.014939138665795326 0.0024142137262970209 -0.026631001383066177
v -0.014899368397891521 0.027585785835981369 -0.026604156941175461
v -0.014767710119485855 0.0048221028409898281 -0.029121978208422661
v -0.014767710119485855 0.02517789788544178 -0.029121978208422661
v -0.014576513320207596 0.027000000700354576 -0.0093449270352721214
v -0.014576513320207596 0.027499999850988388 -0.0093449270352721214
v -0.014575963839888573 0.00284775928594172 -0.027168687433004379
v -0.014534026384353638 0.027150403708219528 -0.027145747095346451
v -0.014526543207466602 3.3527622345097541e-10 -0.0093432096764445305
v -0.014526543207466602 0.0029999997932463884 -0.0093432096764445305
v -0.014223402366042137 0.027900001034140587 -0.0061058891005814075
v -0.014223402366042137 0.029999999329447746 -0.0061058891005814075
v -0.014076808467507362 0.0029999997932463884 -0.0093277562409639359
v -0.014001899398863316 0.027900001034140587 -0.01255208533257246
v -0.014001899398863316 0.029999999329447746 -0.01255208533257246
v -0.013870328664779663 0.027000000700354576 -0.00629387516528368
v -0.013870328664779663 0.027499999850988388 -0.00629387516528368
v -0.01382619421929121 3.3527619569539979e-10 -0.0063173733651638031
v -0.01382619421929121 0.0029999997932463884 -0.0063173733651638031
v -0.01366256270557642 0.027000000700354576 -0.012340307235717773
v -0.01366256270557642 0.027499999850988388 -0.012340307235717773
v -0.013620144687592983 3.3527619569539979e-10 -0.012313834391534328
v -0.013620144687592983 0.0029999997932463884 -0.012313834391534328
v -0.013577103614807129 0.003499999875202775 -0.0093105854466557503
v -0.013577103614807129 0.0060000005178153515 -0.0093105854466557503
v -0.013577103614807129 0.027000000700354576 -0.0093105854466557503
v -0.013428986072540283 0.0029999997932463884 -0.0065288576297461987
v -0.013422678224742413 0.0049343178980052471 -0.028725326061248779
v -0.013422678224742413 0.025065682828426361 -0.028725326061248779
v -0.013238389976322651 0.0029999997932463884 -0.012075583450496197
v -0.012987643480300903 0.003499999875202775 -0.00676383962854743
v -0.012987643480300903 0.0060000005178153515 -0.00676383962854743
v -0.012987643480300903 0.027000000700354576 -0.00676383962854743
v -0.012814219109714031 0.003499999875202775 -0.011810861527919769
v -0.012814219109714031 0.0060000005178153515 -0.011810861527919769
v -0.012814219109714031 0.027000000700354576 -0.011810861527919769
v -0.012577693909406662 0.019999999552965164 -0.0092762438580393791
v -0.012577693909406662 0.026000000536441803 -0.0092762438580393791
v -0.012104958295822144 0.019999999552965164 -0.0072338040918111801
v -0.012104958295822144 0.026000000536441803 -0.0072338040918111801
v -0.011965874582529068 0.019999999552965164 -0.011281415820121765
v -0.011965874582529068 0.026000000536441803 -0.011281415820121765
v -0.011945007368922234 0.027900001034140587 -0.0036653426941484213
v -0.011945007368922234 0.029999999329447746 -0.0036653426941484213
v -0.011902820318937302 3.3527619569539979e-10 -0.021862465888261795
v -0.011902820318937302 0.029999999329447746 -0.021862465888261795
v -0.011893441900610924 0.0029999997932463884 -0.026335537433624268
v -0.011893441900610924 0.027000000700354576 -0.026335537433624268
v -0.011733228340744972 0.027000000700354576 -0.004004680085927248
v -0.011733228340744972 0.027499999850988388 -0.004004680085927248
v -0.011706756427884102 3.3527619569539979e-10 -0.00404709717258811
v -0.011706756427884102 0.0029999997932463884 -0.00404709717258811
v -0.011561352759599686 0.027900001034140587 -0.014830480329692364
v -0.011561352759599686 0.029999999329447746 -0.014830480329692364
v -0.01153293065726757 0.0050000003539025784 -0.028302775695919991
v -0.01153293065726757 0.02500000037252903 -0.028302775695919991
v -0.011528313159942627 0.0060000005178153515 -0.009240184910595417
v -0.011528313159942627 0.019999999552965164 -0.009240184910595417
v -0.01146850548684597 0.0029999997932463884 -0.0044288523495197296
v -0.011373367160558701 0.027000000700354576 -0.01447740662842989
v -0.011373367160558701 0.027499999850988388 -0.01447740662842989
v -0.011349868960678577 3.3527619569539979e-10 -0.014433272182941437
v -0.011349868960678577 0.0029999997932463884 -0.014433272182941437
v -0.011203782632946968 0.003499999875202775 -0.0048530236817896366
v -0.011203782632946968 0.0060000005178153515 -0.0048530236817896366
v -0.011203782632946968 0.027000000700354576 -0.0048530236817896366
v -0.011178138665854931 0.0060000005178153515 -0.0077272672206163406
v -0.011178138665854931 0.019999999552965164 -0.0077272672206163406
v -0.011138385161757469 0.0029999997932463884 -0.01403606403619051
v -0.011075113900005817 0.0060000005178153515 -0.010725497268140316
v -0.011075113900005817 0.019999999552965164 -0.010725497268140316
v -0.010903403162956238 0.003499999875202775 -0.013594720512628555
v -0.010903403162956238 0.0060000005178153515 -0.013594720512628555
v -0.010903403162956238 0.027000000700354576 -0.013594720512628555
v -0.010679150931537151 0.0024142137262970209 -0.023943586274981499
v -0.010679150931537151 0.027585785835981369 -0.023943586274981499
v -0.010674337856471539 0.019999999552965164 -0.0057013677433133125
v -0.010674337856471539 0.026000000536441803 -0.0057013677433133125
v -0.0104334382340312 0.019999999552965164 -0.01271203625947237
v -0.0104334382340312 0.026000000536441803 -0.01271203625947237
v -0.010350276716053486 0.00284775928594172 -0.024502910673618317
v -0.010348021052777767 0.027150403708219528 -0.024506745859980583
v -0.010118419304490089 0.0060000005178153515 -0.0065921288914978504
v -0.010118419304490089 0.019999999552965164 -0.0065921288914978504
v -0.0099623426795005798 0.0029999997932463884 -0.025162678211927414
v -0.0099623426795005798 0.027000000700354576 -0.025162678211927414
v -0.0099399760365486145 0.0060000005178153515 -0.011785216629505157
v -0.0099399760365486145 0.019999999552965164 -0.011785216629505157
v -0.0087515851482748985 0.027900001034140587 -0.0026909646112471819
v -0.0087515851482748985 0.029999999329447746 -0.0026909646112471819
v -0.0087378481402993202 0.027000000700354576 -0.003090728772804141
v -0.0087378481402993202 0.027499999850988388 -0.003090728772804141
v -0.0087361317127943039 3.3527619569539979e-10 -0.0031406991183757782
v -0.0087361317127943039 0.0029999997932463884 -0.0031406991183757782
v -0.0087206773459911346 0.0029999997932463884 -0.0035904338583350182
v -0.0087035065516829491 0.003499999875202775 -0.0040901391766965389
v -0.0087035065516829491 0.0060000005178153515 -0.0040901391766965389
v -0.0087035065516829491 0.027000000700354576 -0.0040901391766965389
v -0.0086691649630665779 0.019999999552965164 -0.0050895488820970058
v -0.0086691649630665779 0.026000000536441803 -0.0050895488820970058
v -0.0086331069469451904 0.0060000005178153515 -0.0061389296315610409
v -0.0086331069469451904 0.019999999552965164 -0.0061389296315610409
v -0.0084270574152469635 0.0060000005178153515 -0.012135391123592854
v -0.0084270574152469635 0.019999999552965164 -0.012135391123592854
v -0.008390999399125576 0.019999999552965164 -0.013184771873056889
v -0.008390999399125576 0.026000000536441803 -0.013184771873056889
v -0.0083566578105092049 0.003499999875202775 -0.014184181578457355
v -0.0083566578105092049 0.0060000005178153515 -0.014184181578457355
v -0.0083566578105092049 0.027000000700354576 -0.014184181578457355
v -0.0083394870162010193 0.0029999997932463884 -0.014683887362480164
v -0.0083240335807204247 3.3527616793982418e-10 -0.015133621171116829
v -0.0083240335807204247 0.0029999997932463884 -0.015133621171116829
v -0.0083223162218928337 0.027000000700354576 -0.015183591283857822
v -0.0083223162218928337 0.027499999850988388 -0.015183591283857822
v -0.0083085792139172554 0.027900001034140587 -0.015583355911076069
v -0.0083085792139172554 0.029999999329447746 -0.015583355911076069
v -0.007953764870762825 0.0029999997932463884 -0.025909196585416794
v -0.007953764870762825 0.027000000700354576 -0.025909196585416794
v -0.0078850826248526573 0.0050000003539025784 -0.027908017858862877
v -0.0078850826248526573 0.02500000037252903 -0.027908017858862877
v -0.0071201887913048267 0.0060000005178153515 -0.006489104125648737
v -0.0071201887913048267 0.019999999552965164 -0.006489104125648737
v -0.0069417450577020645 0.0060000005178153515 -0.011682191863656044
v -0.0069417450577020645 0.019999999552965164 -0.011682191863656044
v -0.0066267261281609535 0.019999999552965164 -0.0055622844956815243
v -0.0066267261281609535 0.026000000536441803 -0.0055622844956815243
v -0.0063858269713819027 0.019999999552965164 -0.012572952546179295
v -0.0063858269713819027 0.026000000536441803 -0.012572952546179295
v -0.0061567616648972034 0.003499999875202775 -0.0046795993112027645
v -0.0061567616648972034 0.0060000005178153515 -0.0046795993112027645
v -0.0061567616648972034 0.027000000700354576 -0.0046795993112027645
v -0.0059850509278476238 0.0060000005178153515 -0.0075488234870135784
v -0.0059850509278476238 0.019999999552965164 -0.0075488234870135784
v -0.0059217796660959721 0.0029999997932463884 -0.0042382567189633846
v -0.0058820261619985104 0.0060000005178153515 -0.010547053068876266
v -0.0058820261619985104 0.019999999552965164 -0.010547053068876266
v -0.0058563817292451859 0.003499999875202775 -0.013421296142041683
v -0.0058563817292451859 0.0060000005178153515 -0.013421296142041683
v -0.0058563817292451859 0.027000000700354576 -0.013421296142041683
v -0.0057102954015135765 3.3527614018424856e-10 -0.003841048339381814
v -0.0057102954015135765 0.0029999997932463884 -0.003841048339381814
v -0.0056867972016334534 0.027000000700354576 -0.0037969138938933611
v -0.0056867972016334534 0.027499999850988388 -0.0037969138938933611
v -0.0055916588753461838 0.0029999997932463884 -0.013845467939972878
v -0.0055359313264489174 0.00094325130339711905 -0.019528193399310112
v -0.0055359313264489174 0.029056748375296593 -0.019528193399310112
v -0.0055318516679108143 0.0060000005178153515 -0.0090341363102197647
v -0.0055318516679108143 0.019999999552965164 -0.0090341363102197647
v -0.0054988116025924683 0.027900001034140587 -0.0034438399598002434
v -0.0054988116025924683 0.029999999329447746 -0.0034438399598002434
v -0.0054129664786159992 0.0024142137262970209 -0.021104758605360985
v -0.0054129664786159992 0.027585785835981369 -0.021104758605360985
v -0.0053534079343080521 3.3527614018424856e-10 -0.014227223582565784
v -0.0053534079343080521 0.0029999997932463884 -0.014227223582565784
v -0.0053269360214471817 0.027000000700354576 -0.014269640669226646
v -0.0053269360214471817 0.027499999850988388 -0.014269640669226646
v -0.0052548786625266075 3.3527614018424856e-10 -0.018348697572946548
v -0.0052548786625266075 0.029999999329447746 -0.018348697572946548
v -0.0052526579238474369 0.0027869727928191423 -0.021601038053631783
v -0.0052526579238474369 0.027213027700781822 -0.021601038053631783
v -0.0051151574589312077 0.027900001034140587 -0.014608977362513542
v -0.0051151574589312077 0.029999999329447746 -0.014608977362513542
v -0.0050942897796630859 0.019999999552965164 -0.0069929054006934166
v -0.0050942897796630859 0.026000000536441803 -0.0069929054006934166
v -0.0049552065320312977 0.019999999552965164 -0.011040516197681427
v -0.0049552065320312977 0.026000000536441803 -0.011040516197681427
v -0.0048512960784137249 3.3527614018424856e-10 -0.017551274970173836
v -0.0048512960784137249 0.029999999329447746 -0.017551274970173836
v -0.0048455391079187393 0.0029999997932463884 -0.022401727735996246
v -0.0048455391079187393 0.027000000700354576 -0.022401727735996246
v -0.0044824709184467793 0.019999999552965164 -0.0089980773627758026
v -0.0044824709184467793 0.026000000536441803 -0.0089980773627758026
v -0.00424594571813941 0.003499999875202775 -0.0064634596928954124
v -0.00424594571813941 0.0060000005178153515 -0.0064634596928954124
v -0.00424594571813941 0.027000000700354576 -0.0064634596928954124
v -0.0040725213475525379 0.003499999875202775 -0.011510481126606464
v -0.0040725213475525379 0.0060000005178153515 -0.011510481126606464
v -0.0040725213475525379 0.027000000700354576 -0.011510481126606464
v -0.0040627038106322289 0.0029999997932463884 -0.02332177571952343
v -0.0040627038106322289 0.027000000700354576 -0.02332177571952343
v -0.0038217741530388594 0.0029999997932463884 -0.0061987368389964104
v -0.003631178755313158 0.0029999997932463884 -0.011745463125407696
v -0.0034830612130463123 0.003499999875202775 -0.0089637357741594315
v -0.0034830612130463123 0.0060000005178153515 -0.0089637357741594315
v -0.0034830612130463123 0.027000000700354576 -0.0089637357741594315
v -0.003440019441768527 3.3527614018424856e-10 -0.0059604858979582787
v -0.003440019441768527 0.0029999997932463884 -0.0059604858979582787
v -0.0033976021222770214 0.027000000700354576 -0.005934013519436121
v -0.0033976021222770214 0.027499999850988388 -0.005934013519436121
v -0.0033467321190983057 3.3527614018424856e-10 -0.016097584739327431
v -0.0033467321190983057 0.029999999329447746 -0.016097584739327431
v -0.0032476857304573059 3.3527614018424856e-10 0.0075704497285187244
v -0.0032476857304573059 0.029999999329447746 0.0075704497285187244
v -0.0032339703757315874 3.3527614018424856e-10 -0.011956946924328804
v -0.0032339703757315874 0.0029999997932463884 -0.011956946924328804
v -0.0031898359302431345 0.027000000700354576 -0.011980446055531502
v -0.0031898359302431345 0.027499999850988388 -0.011980446055531502
v -0.0031481417827308178 3.3527614018424856e-10 -0.00010817575093824416
v -0.0031481417827308178 0.029999999329447746 -0.00010817575093824416
v -0.0030582647304981947 0.027900001034140587 -0.0057222354225814342
v -0.0030582647304981947 0.029999999329447746 -0.0057222354225814342
v -0.0029833561275154352 0.0029999997932463884 -0.0089465649798512459
v -0.0028367619961500168 0.027900001034140587 -0.012168430723249912
v -0.0028367619961500168 0.029999999329447746 -0.012168430723249912
v -0.0027804586570709944 3.3527614018424856e-10 0.0014803881058469415
v -0.0027804586570709944 0.029999999329447746 0.0014803881058469415
v -0.0026722829788923264 3.3527614018424856e-10 -0.00166775390971452
v -0.0026722829788923264 0.029999999329447746 -0.00166775390971452
v -0.0025336213875561953 3.3527614018424856e-10 -0.0089311115443706512
v -0.0025336213875561953 0.0029999997932463884 -0.0089311115443706512
v -0.0024902357254177332 0.0050000003539025784 -0.027722639963030815
v -0.0024902357254177332 0.02500000037252903 -0.027722639963030815
v -0.0024836508091539145 0.027000000700354576 -0.0089293941855430603
v -0.0024836508091539145 0.027499999850988388 -0.0089293941855430603
v -0.002223270945250988 0.0029999997932463884 -0.024318477138876915
v -0.002223270945250988 0.027000000700354576 -0.024318477138876915
v -0.0020838866475969553 0.027900001034140587 -0.0089156581088900566
v -0.0020838866475969553 0.029999999329447746 -0.0089156581088900566
v -0.0018007770413532853 0.0048756790347397327 -0.027574555948376656
v -0.0018007770413532853 0.025124320760369301 -0.027574555948376656
v -0.0016677541425451636 3.3527614018424856e-10 0.0026722829788923264
v -0.0016677541425451636 0.029999999329447746 0.0026722829788923264
v -0.0014803882222622633 3.3527614018424856e-10 -0.002780458889901638
v -0.0014803882222622633 0.029999999329447746 -0.002780458889901638
v -0.0013593384064733982 0.0029999997932463884 -0.024804428219795227
v -0.0013593384064733982 0.027000000700354576 -0.024804428219795227
v -0.0013474433217197657 3.3527614018424856e-10 -0.015481329523026943
v -0.0013474433217197657 0.029999999329447746 -0.015481329523026943
v -0.0013097132323309779 3.3527614018424856e-10 0.0078920628875494003
v -0.0013097132323309779 0.029999999329447746 0.0078920628875494003
v -0.0012055707629770041 0.0045181731693446636 -0.027196384966373444
v -0.0012055707629770041 0.025481827557086945 -0.027196384966373444
v -0.00083484186325222254 0.0029999997932463884 -0.025645516812801361
v -0.00083484186325222254 0.027000000700354576 -0.025645516812801361
v -0.00082896184176206589 0.0029999997932463884 -0.025664376094937325
v -0.00082896184176206589 0.027000000700354576 -0.025664376094937325
v -0.00077861407771706581 0.0039719264023005962 -0.026635145768523216
v -0.00077861407771706581 0.026028074324131012 -0.026635145768523216
v -0.00010817535076057538 3.3527614018424856e-10 0.0031481420155614614
v -0.00010817535076057538 0.029999999329447746 0.0031481420155614614
v 0.00010817616566782817 3.3527614018424856e-10 -0.0031481417827308178
v 0.00010817616566782817 0.029999999329447746 -0.0031481417827308178
v 0.00062954443274065852 3.3527611242867295e-10 -0.015800356864929199
v 0.00062954443274065852 0.029999999329447746 -0.015800356864929199
v 0.00071443576598539948 6.5302810980938375e-05 -0.015835709869861603
v 0.00071443576598539948 0.029934696853160858 -0.015835709869861603
v 0.0014803881058469415 3.3527611242867295e-10 0.002780458889901638
v 0.0014803881058469415 0.029999999329447746 0.002780458889901638
v 0.0015136133879423141 0.00052207277622073889 -0.015997322276234627
v 0.0015136133879423141 0.029477927833795547 -0.015997322276234627
v 0.0016677540261298418 3.3527611242867295e-10 -0.00267228321172297
v 0.0016677540261298418 0.029999999329447746 -0.00267228321172297
v 0.0019210431491956115 0.00063797773327678442 -0.01595299132168293
v 0.0019210431491956115 0.029362022876739502 -0.01595299132168293
v 0.0019735980313271284 3.3527611242867295e-10 0.0077527356334030628
v 0.0019735980313271284 0.029999999329447746 0.0077527356334030628
v 0.0023108827881515026 0.00067132001277059317 -0.015826540067791939
v 0.0023108827881515026 0.029328679665923119 -0.015826540067791939
v 0.0026667611673474312 0.00062069797422736883 -0.015623279847204685
v 0.0026667611673474312 0.029379302635788918 -0.015623279847204685
v 0.00267228321172297 3.3527608467309733e-10 0.0016677540261298418
v 0.00267228321172297 0.029999999329447746 0.0016677540261298418
v 0.002780458889901638 3.3527608467309733e-10 -0.0014803879894316196
v 0.002780458889901638 0.029999999329447746 -0.0014803879894316196
v 0.00297373509965837 0.00048823875840753317 -0.015351744368672371
v 0.00297373509965837 0.029511760920286179 -0.015351744368672371
v 0.0031481417827308178 3.3527608467309733e-10 0.00010817575821420178
v 0.0031481417827308178 0.029999999329447746 0.00010817575821420178
v 0.003392005106434226 3.2590330647508381e-06 -0.014651847071945667
v 0.003392005106434226 0.029996741563081741 -0.014651847071945667
v 0.0033934344537556171 3.3527608467309733e-10 -0.014647720381617546
v 0.0033934344537556171 0.029999999329447746 -0.014647720381617546
v 0.0049238791689276695 3.3527608467309733e-10 0.0063051898032426834
v 0.0049238791689276695 0.029999999329447746 0.0063051898032426834
v 0.0070432890206575394 3.3527608467309733e-10 0.0037936875596642494
v 0.0070432890206575394 0.029999999329447746 0.0037936875596642494
v 0.0075595136731863022 3.3527608467309733e-10 -0.0026179696433246136
v 0.0075595136731863022 0.029999999329447746 -0.0026179696433246136
v 0.0079741962254047394 3.3527608467309733e-10 0.00064202793873846531
v 0.0079741962254047394 0.029999999329447746 0.00064202793873846531
f 593 594 581
f 581 594 582
f 581 582 569
f 569 582 570
f 569 570 549
f 549 570 550
f 549 550 533
f 533 550 534
f 533 534 516
f 516 534 517
f 516 517 503
f 503 517 504
f 503 504 513
f 513 504 514
f 513 514 529
f 529 514 530
f 529 530 547
f 547 530 548
f 547 548 567
f 567 548 568
f 567 568 578
f 578 568 579
f 578 579 593
f 593 579 594
f 215 216 219
f 219 216 223
f 223 283 219
f 219 283 293
f 219 293 291
f 291 293 299
f 291 299 298
f 675 676 639
f 675 639 638
f 638 639 442
f 638 442 441
f 723 724 726
f 723 726 725
f 725 726 722
f 725 722 721
f 721 722 720
f 721 720 719
f 719 720 702
f 719 702 701
f 701 702 676
f 701 676 675
f 724 723 717
f 715 716 717
f 717 716 718
f 717 718 724
f 383 384 393
f 393 384 394
f 393 394 407
f 407 394 408
f 407 408 421
f 421 408 422
f 367 368 383
f 383 368 384
f 306 294 295
f 257 253 272
f 272 253 255
f 272 255 264
f 295 288 307
f 307 288 270
f 307 270 272
f 272 270 263
f 272 263 257
f 264 273 272
f 272 273 279
f 272 279 307
f 307 279 286
f 307 286 296
f 262 274 307
f 296 297 307
f 307 297 289
f 307 289 280
f 280 271 307
f 307 271 265
f 307 265 258
f 258 254 307
f 307 254 256
f 307 256 262
f 274 287 307
f 307 287 298
f 307 298 299
f 295 307 306
f 306 307 330
f 306 330 329
f 329 330 344
f 329 344 343
f 343 344 356
f 343 356 355
f 355 356 362
f 355 362 361
f 361 362 368
f 361 368 367
f 290 295 294
f 214 217 213
f 213 217 218
f 290 294 218
f 222 213 282
f 282 213 218
f 282 218 292
f 292 218 294
f 214 213 300
f 209 301 215
f 215 301 216
f 209 200 211
f 211 200 194
f 211 194 189
f 189 194 187
f 220 210 300
f 209 211 301
f 301 211 221
f 301 221 225
f 227 226 300
f 300 226 224
f 300 224 220
f 186 190 188
f 188 190 210
f 190 195 210
f 210 195 201
f 210 201 300
f 300 201 208
f 300 208 214
f 347 348 339
f 339 348 340
f 339 340 333
f 333 340 334
f 333 334 323
f 323 334 324
f 323 324 300
f 300 324 301
f 300 301 227
f 227 301 225
f 369 370 347
f 347 370 348
f 395 396 380
f 395 380 379
f 379 380 374
f 379 374 373
f 373 374 370
f 373 370 369
f 413 414 404
f 413 404 403
f 403 404 396
f 403 396 395
f 713 714 709
f 709 714 710
f 709 710 697
f 697 710 698
f 697 698 687
f 687 698 688
f 687 688 669
f 669 688 670
f 669 670 653
f 653 670 654
f 653 654 644
f 644 654 645
f 644 645 651
f 651 645 652
f 651 652 667
f 667 652 668
f 667 668 685
f 685 668 686
f 685 686 693
f 693 686 694
f 693 694 707
f 707 694 708
f 707 708 713
f 713 708 714
f 441 442 413
f 413 442 414
f 697 632 655
f 673 689 717
f 640 599 636
f 539 638 497
f 497 638 417
f 497 417 464
f 464 417 455
f 709 723 713
f 713 723 725
f 713 725 707
f 707 725 721
f 707 721 693
f 636 599 613
f 613 599 557
f 613 557 603
f 508 427 557
f 557 427 491
f 557 491 603
f 709 697 723
f 723 697 655
f 723 655 717
f 717 655 640
f 717 640 673
f 673 640 636
f 417 409 455
f 455 409 399
f 455 399 468
f 468 399 385
f 468 385 375
f 697 687 632
f 632 687 669
f 632 669 586
f 586 669 653
f 586 653 539
f 387 397 371
f 349 345 363
f 375 371 468
f 468 371 397
f 468 397 508
f 508 397 411
f 508 411 427
f 363 345 357
f 357 345 335
f 357 335 351
f 351 335 337
f 337 335 325
f 337 325 327
f 327 325 302
f 327 302 304
f 304 302 222
f 304 222 282
f 653 644 539
f 539 644 651
f 539 651 638
f 638 651 667
f 638 667 675
f 675 667 685
f 675 685 701
f 701 685 693
f 701 693 719
f 719 693 721
f 349 363 371
f 371 363 377
f 371 377 387
f 686 668 639
f 639 668 418
f 614 604 492
f 446 461 386
f 718 690 650
f 650 690 674
f 650 674 608
f 608 674 637
f 608 637 562
f 718 650 724
f 724 650 664
f 724 664 647
f 668 652 418
f 418 652 645
f 418 645 536
f 283 223 305
f 305 223 303
f 500 372 461
f 461 372 376
f 461 376 386
f 639 676 686
f 686 676 702
f 686 702 694
f 694 702 720
f 694 720 708
f 708 720 722
f 708 722 714
f 714 722 726
f 714 726 710
f 710 726 724
f 710 724 698
f 698 724 647
f 698 647 688
f 637 614 562
f 562 614 492
f 562 492 500
f 500 492 428
f 500 428 372
f 372 428 412
f 372 412 398
f 536 645 596
f 596 645 654
f 596 654 647
f 647 654 670
f 647 670 688
f 536 490 418
f 418 490 458
f 418 458 410
f 410 458 446
f 410 446 400
f 400 446 386
f 398 388 372
f 372 388 378
f 372 378 350
f 350 378 364
f 350 364 346
f 346 364 358
f 346 358 336
f 336 358 352
f 336 352 326
f 326 352 338
f 326 338 303
f 303 338 328
f 303 328 305
f 309 293 283
f 283 305 309
f 309 305 328
f 309 328 332
f 332 328 338
f 332 338 342
f 342 338 352
f 342 352 354
f 354 352 358
f 354 358 360
f 360 358 364
f 360 364 366
f 378 382 364
f 364 382 366
f 382 378 390
f 390 378 388
f 398 412 416
f 416 406 398
f 398 406 402
f 398 402 388
f 388 402 392
f 388 392 390
f 436 430 428
f 428 430 424
f 428 424 412
f 412 424 420
f 412 420 416
f 492 604 592
f 436 428 448
f 448 428 492
f 448 492 522
f 522 492 592
f 522 592 598
f 692 690 718
f 718 716 692
f 692 716 712
f 692 712 706
f 706 704 692
f 692 704 700
f 692 700 696
f 348 350 340
f 340 350 346
f 340 346 334
f 334 346 336
f 334 336 324
f 324 336 326
f 324 326 301
f 301 326 303
f 301 303 216
f 216 303 223
f 370 372 348
f 348 372 350
f 372 370 374
f 372 374 376
f 376 374 380
f 376 380 386
f 386 380 396
f 386 396 400
f 400 396 404
f 400 404 410
f 410 404 414
f 410 414 418
f 442 639 414
f 414 639 418
f 213 222 300
f 300 222 302
f 300 302 323
f 323 302 325
f 323 325 333
f 333 325 335
f 333 335 339
f 339 335 345
f 339 345 347
f 347 345 349
f 371 369 349
f 349 369 347
f 399 395 379
f 399 379 385
f 385 379 373
f 385 373 375
f 375 373 369
f 375 369 371
f 417 413 403
f 417 403 409
f 409 403 395
f 409 395 399
f 638 441 417
f 417 441 413
f 304 282 292
f 292 308 304
f 304 308 331
f 304 331 327
f 327 331 341
f 327 341 337
f 337 341 353
f 337 353 351
f 351 353 359
f 351 359 357
f 357 359 365
f 357 365 363
f 363 365 377
f 377 365 381
f 411 419 427
f 427 419 423
f 397 405 411
f 411 405 415
f 411 415 419
f 387 391 397
f 397 391 401
f 397 401 405
f 377 381 387
f 387 381 389
f 387 389 391
f 521 597 491
f 491 597 591
f 491 591 603
f 423 429 427
f 427 429 435
f 427 435 491
f 491 435 447
f 491 447 521
f 715 717 691
f 691 717 689
f 691 695 699
f 711 715 705
f 705 715 691
f 705 691 703
f 703 691 699
f 124 203 125
f 125 203 204
f 162 235 237
f 234 161 236
f 236 161 162
f 236 162 238
f 238 162 237
f 238 237 239
f 296 276 297
f 297 276 285
f 260 269 275
f 275 269 276
f 275 276 284
f 284 276 296
f 268 259 239
f 239 259 241
f 239 241 238
f 268 239 275
f 275 239 242
f 275 242 260
f 79 154 78
f 78 154 153
f 18 20 1
f 1 20 22
f 1 22 45
f 45 22 24
f 2 46 23
f 23 46 25
f 24 26 45
f 45 26 28
f 45 28 46
f 46 28 27
f 46 27 25
f 23 21 2
f 2 21 19
f 2 19 1
f 1 19 17
f 1 17 18
f 44 43 119
f 119 43 118
f 173 136 228
f 228 136 134
f 228 134 110
f 120 138 110
f 110 138 151
f 110 151 228
f 228 151 142
f 228 142 122
f 98 69 106
f 106 69 140
f 106 140 122
f 122 140 155
f 122 155 228
f 98 90 69
f 69 90 86
f 69 86 37
f 37 86 88
f 37 88 80
f 80 82 37
f 37 82 92
f 37 92 112
f 112 92 100
f 112 100 130
f 130 100 108
f 130 108 173
f 173 108 132
f 173 132 136
f 120 110 104
f 104 110 102
f 104 102 96
f 96 102 94
f 96 94 88
f 88 94 84
f 88 84 80
f 83 81 38
f 70 38 87
f 87 38 89
f 38 81 89
f 89 81 85
f 89 85 95
f 131 174 109
f 111 135 229
f 229 135 137
f 229 137 174
f 174 137 133
f 174 133 109
f 131 109 113
f 113 109 101
f 113 101 38
f 38 101 93
f 38 93 83
f 87 91 70
f 70 91 99
f 70 99 141
f 141 99 107
f 141 107 156
f 156 107 123
f 156 123 229
f 123 143 229
f 229 143 152
f 229 152 111
f 152 139 111
f 111 139 121
f 111 121 103
f 103 121 105
f 103 105 95
f 95 105 97
f 95 97 89
f 87 86 91
f 91 86 90
f 91 90 99
f 99 90 98
f 99 98 107
f 107 98 106
f 107 106 123
f 123 106 122
f 123 122 143
f 143 122 142
f 143 142 152
f 152 142 151
f 152 151 139
f 139 151 138
f 139 138 121
f 121 138 120
f 121 120 105
f 105 120 104
f 105 104 97
f 97 104 96
f 97 96 89
f 89 96 88
f 89 88 87
f 87 88 86
f 81 80 85
f 85 80 84
f 85 84 95
f 95 84 94
f 95 94 103
f 103 94 102
f 103 102 111
f 111 102 110
f 111 110 135
f 135 110 134
f 135 134 137
f 137 134 136
f 137 136 133
f 133 136 132
f 133 132 109
f 109 132 108
f 109 108 101
f 101 108 100
f 101 100 93
f 93 100 92
f 93 92 83
f 83 92 82
f 83 82 81
f 81 82 80
f 127 171 129
f 129 171 174
f 129 174 131
f 197 192 199
f 199 192 125
f 199 125 204
f 192 177 125
f 125 177 164
f 125 164 127
f 127 164 166
f 127 166 171
f 119 125 117
f 117 125 127
f 117 127 115
f 115 127 129
f 115 129 113
f 113 129 131
f 163 176 124
f 124 176 191
f 191 196 124
f 124 196 198
f 124 198 203
f 163 124 165
f 165 124 126
f 165 126 169
f 169 126 128
f 169 128 170
f 170 128 172
f 172 128 130
f 172 130 173
f 119 118 125
f 125 118 124
f 113 38 40
f 113 40 115
f 115 40 42
f 115 42 117
f 117 42 44
f 117 44 119
f 112 130 114
f 114 130 128
f 114 128 116
f 116 128 126
f 116 126 118
f 118 126 124
f 42 40 36
f 38 16 30
f 14 16 38
f 36 40 38
f 34 30 12
f 12 30 16
f 12 16 8
f 8 16 14
f 8 14 6
f 44 34 32
f 32 34 12
f 32 12 10
f 10 12 8
f 10 8 4
f 4 8 6
f 4 6 2
f 44 42 34
f 34 42 36
f 34 36 30
f 30 36 38
f 37 112 114
f 37 114 39
f 39 114 116
f 39 116 41
f 41 116 118
f 41 118 43
f 43 44 32
f 43 32 31
f 31 32 10
f 31 10 9
f 9 10 4
f 9 4 3
f 3 4 2
f 3 2 1
f 38 70 58
f 38 58 14
f 14 58 50
f 14 50 6
f 6 50 46
f 6 46 2
f 5 13 15
f 37 35 29
f 39 35 37
f 15 13 37
f 7 29 11
f 11 29 35
f 11 35 33
f 33 35 39
f 33 39 41
f 1 7 3
f 3 7 11
f 3 11 9
f 9 11 33
f 9 33 31
f 31 33 41
f 31 41 43
f 1 5 7
f 7 5 15
f 7 15 29
f 29 15 37
f 50 58 60
f 70 68 62
f 73 68 70
f 60 58 70
f 52 62 56
f 56 62 68
f 56 68 66
f 66 68 73
f 66 73 76
f 46 52 48
f 48 52 56
f 48 56 54
f 54 56 66
f 54 66 64
f 64 66 76
f 64 76 79
f 46 50 52
f 52 50 60
f 52 60 62
f 62 60 70
f 69 37 13
f 69 13 57
f 57 13 5
f 57 5 49
f 49 5 1
f 49 1 45
f 45 46 48
f 45 48 47
f 47 48 54
f 47 54 53
f 53 54 64
f 53 64 63
f 63 64 79
f 63 79 78
f 70 141 146
f 70 146 73
f 73 146 149
f 73 149 76
f 76 149 154
f 76 154 79
f 156 229 231
f 156 231 158
f 158 231 233
f 158 233 160
f 160 233 235
f 160 235 162
f 77 75 65
f 69 59 61
f 57 59 69
f 74 72 67
f 67 72 71
f 67 71 69
f 65 61 55
f 55 61 59
f 55 59 51
f 51 59 57
f 51 57 49
f 63 78 77
f 77 65 63
f 63 65 55
f 63 55 53
f 53 55 51
f 53 51 47
f 47 51 49
f 47 49 45
f 75 74 65
f 65 74 67
f 65 67 61
f 61 67 69
f 162 154 160
f 160 154 149
f 160 149 158
f 158 149 146
f 158 146 156
f 156 146 141
f 69 71 140
f 140 71 144
f 144 71 145
f 145 71 72
f 145 72 147
f 147 72 74
f 147 74 148
f 148 74 75
f 148 75 150
f 75 77 150
f 150 77 78
f 150 78 153
f 162 161 154
f 154 161 153
f 155 140 157
f 157 140 144
f 144 145 157
f 157 145 147
f 157 147 159
f 153 161 150
f 150 161 159
f 150 159 148
f 148 159 147
f 228 155 157
f 228 157 230
f 230 157 159
f 230 159 232
f 232 159 161
f 232 161 234
f 288 295 277
f 288 277 270
f 270 277 245
f 270 245 263
f 253 257 247
f 232 234 251
f 251 234 236
f 251 236 249
f 249 236 238
f 249 238 241
f 228 230 245
f 245 230 247
f 245 247 263
f 263 247 257
f 230 232 247
f 247 232 251
f 247 251 253
f 253 251 249
f 253 249 255
f 255 249 241
f 255 241 264
f 264 241 259
f 264 259 273
f 273 259 268
f 273 268 279
f 279 268 275
f 279 275 286
f 286 275 284
f 286 284 296
f 228 245 243
f 243 245 277
f 243 277 266
f 266 277 295
f 266 295 290
f 173 228 184
f 184 228 243
f 184 243 206
f 206 243 266
f 206 266 218
f 218 266 290
f 172 173 184
f 186 179 181
f 167 163 165
f 167 165 179
f 186 181 190
f 205 201 195
f 190 181 195
f 195 181 183
f 195 183 205
f 201 205 208
f 208 205 217
f 208 217 214
f 179 165 181
f 181 165 169
f 181 169 183
f 183 169 170
f 183 170 172
f 172 184 183
f 183 184 206
f 183 206 205
f 205 206 218
f 205 218 217
f 179 186 188
f 179 188 167
f 176 163 167
f 167 188 176
f 176 188 210
f 176 210 191
f 191 210 220
f 191 220 196
f 196 220 224
f 196 224 198
f 198 224 226
f 198 226 203
f 226 227 203
f 203 227 204
f 189 187 180
f 180 175 177
f 177 175 168
f 177 168 164
f 180 177 189
f 189 177 192
f 189 192 211
f 211 192 197
f 211 197 221
f 221 197 199
f 221 199 225
f 225 199 204
f 225 204 227
f 178 174 171
f 175 180 182
f 209 215 202
f 180 187 182
f 182 187 194
f 182 194 202
f 202 194 200
f 202 200 209
f 185 178 182
f 182 178 171
f 182 171 175
f 175 171 166
f 175 166 168
f 168 166 164
f 185 182 193
f 193 182 202
f 193 202 207
f 207 202 212
f 212 202 215
f 212 215 219
f 229 174 240
f 240 174 178
f 240 178 244
f 244 178 185
f 244 185 261
f 261 185 193
f 261 193 267
f 267 193 207
f 267 207 281
f 281 207 212
f 281 212 291
f 291 212 219
f 269 280 276
f 258 250 252
f 252 250 239
f 239 250 242
f 242 250 258
f 242 258 260
f 260 258 265
f 260 265 269
f 269 265 271
f 269 271 280
f 276 280 285
f 285 280 289
f 285 289 297
f 248 256 252
f 252 256 254
f 252 254 258
f 274 278 287
f 287 278 298
f 231 246 233
f 233 246 248
f 233 248 235
f 235 248 252
f 235 252 237
f 237 252 239
f 231 229 246
f 246 229 240
f 246 240 244
f 244 278 246
f 246 278 274
f 246 274 248
f 248 274 262
f 248 262 256
f 244 261 278
f 278 261 267
f 278 267 298
f 298 267 281
f 298 281 291
f 456 455 469
f 469 455 468
f 469 468 509
f 509 468 508
f 509 508 558
f 558 508 557
f 558 557 600
f 600 557 599
f 600 599 641
f 641 599 640
f 641 640 656
f 656 640 655
f 656 655 633
f 633 655 632
f 633 632 587
f 587 632 586
f 587 586 540
f 540 586 539
f 540 539 498
f 498 539 497
f 498 497 465
f 465 497 464
f 465 464 456
f 456 464 455
f 473 465 459
f 459 465 456
f 459 456 476
f 476 456 469
f 476 469 515
f 515 469 509
f 515 509 556
f 556 509 558
f 556 558 590
f 590 558 600
f 590 600 628
f 628 600 641
f 628 641 648
f 648 641 656
f 648 656 627
f 627 656 633
f 627 633 580
f 580 633 587
f 580 587 541
f 541 587 540
f 541 540 505
f 505 540 498
f 505 498 473
f 473 498 465
f 471 470 481
f 481 470 480
f 481 480 519
f 519 480 518
f 519 518 554
f 554 518 553
f 554 553 584
f 584 553 583
f 584 583 623
f 623 583 622
f 623 622 630
f 630 622 629
f 630 629 620
f 620 629 619
f 620 619 576
f 576 619 575
f 576 575 543
f 543 575 542
f 543 542 511
f 511 542 510
f 511 510 478
f 478 510 477
f 478 477 471
f 471 477 470
f 567 576 547
f 547 576 543
f 547 543 529
f 529 543 511
f 529 511 513
f 513 511 478
f 513 478 503
f 503 478 471
f 503 471 516
f 516 471 481
f 516 481 533
f 533 481 519
f 533 519 549
f 549 519 554
f 549 554 569
f 569 554 584
f 569 584 581
f 581 584 623
f 581 623 593
f 593 623 630
f 593 630 578
f 578 630 620
f 578 620 567
f 567 620 576
f 480 476 518
f 518 476 515
f 518 515 553
f 553 515 556
f 553 556 583
f 583 556 590
f 583 590 622
f 622 590 628
f 622 628 629
f 629 628 648
f 629 648 619
f 619 648 627
f 619 627 575
f 575 627 580
f 575 580 542
f 542 580 541
f 542 541 510
f 510 541 505
f 510 505 477
f 477 505 473
f 477 473 470
f 470 473 459
f 470 459 480
f 480 459 476
f 663 664 649
f 649 664 650
f 649 650 607
f 607 650 608
f 607 608 561
f 561 608 562
f 561 562 499
f 499 562 500
f 499 500 460
f 460 500 461
f 460 461 445
f 445 461 446
f 445 446 457
f 457 446 458
f 457 458 489
f 489 458 490
f 489 490 535
f 535 490 536
f 535 536 595
f 595 536 596
f 595 596 646
f 646 596 647
f 646 647 663
f 663 647 664
f 659 660 642
f 642 660 643
f 642 643 601
f 601 643 602
f 601 602 559
f 559 602 560
f 559 560 506
f 506 560 507
f 506 507 466
f 466 507 467
f 466 467 451
f 451 467 452
f 451 452 462
f 462 452 463
f 462 463 495
f 495 463 496
f 495 496 537
f 537 496 538
f 537 538 588
f 588 538 589
f 588 589 634
f 634 589 635
f 634 635 659
f 659 635 660
f 585 601 555
f 555 601 559
f 555 559 520
f 520 559 506
f 520 506 482
f 482 506 466
f 482 466 472
f 472 466 451
f 472 451 479
f 479 451 462
f 479 462 512
f 512 462 495
f 512 495 544
f 544 495 537
f 544 537 577
f 577 537 588
f 577 588 621
f 621 588 634
f 621 634 631
f 631 634 659
f 631 659 624
f 624 659 642
f 624 642 585
f 585 642 601
f 617 618 611
f 611 618 612
f 611 612 573
f 573 612 574
f 573 574 551
f 551 574 552
f 551 552 525
f 525 552 526
f 525 526 487
f 487 526 488
f 487 488 483
f 483 488 484
f 483 484 485
f 485 484 486
f 485 486 523
f 523 486 524
f 523 524 545
f 545 524 546
f 545 546 571
f 571 546 572
f 571 572 609
f 609 572 610
f 609 610 617
f 617 610 618
f 582 611 570
f 570 611 573
f 570 573 550
f 550 573 551
f 550 551 534
f 534 551 525
f 534 525 517
f 517 525 487
f 517 487 504
f 504 487 483
f 504 483 514
f 514 483 485
f 514 485 530
f 530 485 523
f 530 523 548
f 548 523 545
f 548 545 568
f 568 545 571
f 568 571 579
f 579 571 609
f 579 609 594
f 594 609 617
f 594 617 582
f 582 617 611
f 643 649 602
f 602 649 607
f 602 607 560
f 560 607 561
f 560 561 507
f 507 561 499
f 507 499 467
f 467 499 460
f 467 460 452
f 452 460 445
f 452 445 463
f 463 445 457
f 463 457 496
f 496 457 489
f 496 489 538
f 538 489 535
f 538 535 589
f 589 535 595
f 589 595 635
f 635 595 646
f 635 646 660
f 660 646 663
f 660 663 643
f 643 663 649
f 612 624 574
f 574 624 585
f 574 585 552
f 552 585 555
f 552 555 526
f 526 555 520
f 526 520 488
f 488 520 482
f 488 482 484
f 484 482 472
f 484 472 486
f 486 472 479
f 486 479 524
f 524 479 512
f 524 512 546
f 546 512 544
f 546 544 572
f 572 544 577
f 572 577 610
f 610 577 621
f 610 621 618
f 618 621 631
f 618 631 612
f 612 631 624
f 317 23 319
f 319 23 25
f 319 25 321
f 321 25 27
f 321 27 322
f 322 27 28
f 322 28 320
f 320 28 26
f 320 26 318
f 318 26 24
f 318 24 315
f 315 24 22
f 315 22 313
f 313 22 20
f 313 20 311
f 311 20 18
f 311 18 310
f 310 18 17
f 310 17 312
f 312 17 19
f 312 19 314
f 314 19 21
f 314 21 317
f 317 21 23
f 312 314 316
f 316 314 317
f 316 317 319
f 313 311 316
f 316 311 310
f 316 310 312
f 320 318 316
f 316 318 315
f 316 315 313
f 319 321 316
f 316 321 322
f 316 322 320
f 450 439 440
f 440 439 433
f 440 433 434
f 434 433 425
f 434 425 426
f 426 425 421
f 426 421 422
f 566 565 502
f 502 565 501
f 502 501 475
f 475 501 474
f 475 474 450
f 450 474 449
f 450 449 439
f 565 566 657
f 657 566 658
f 564 626 662
f 616 626 532
f 532 626 564
f 532 564 494
f 662 672 564
f 564 672 680
f 564 680 682
f 563 681 679
f 625 615 563
f 563 615 531
f 563 531 493
f 625 563 661
f 661 563 679
f 661 679 671
f 598 592 597
f 604 614 603
f 604 603 592
f 592 603 591
f 592 591 597
f 598 597 606
f 606 597 605
f 606 605 615
f 661 662 625
f 625 662 626
f 625 626 615
f 615 626 616
f 615 616 606
f 692 691 690
f 690 691 689
f 690 689 674
f 674 689 673
f 674 673 637
f 637 673 636
f 637 636 614
f 614 636 613
f 614 613 603
f 715 711 716
f 716 711 712
f 712 711 706
f 706 711 705
f 706 705 704
f 704 705 703
f 704 703 700
f 703 699 700
f 700 699 695
f 700 695 696
f 696 695 691
f 696 691 692
f 684 682 680
f 681 683 679
f 679 683 684
f 684 680 679
f 679 680 672
f 679 672 671
f 671 672 662
f 671 662 661
f 684 683 677
f 684 677 678
f 678 677 665
f 678 665 666
f 666 665 657
f 666 657 658
f 424 430 432
f 432 430 436
f 432 436 438
f 494 454 528
f 438 436 444
f 444 436 448
f 494 528 532
f 532 528 606
f 532 606 616
f 598 606 522
f 522 606 528
f 522 528 448
f 448 528 454
f 448 454 444
f 444 454 494
f 531 527 493
f 493 527 453
f 493 453 443
f 443 453 437
f 605 597 521
f 435 437 447
f 447 437 453
f 447 453 521
f 521 453 527
f 521 527 605
f 605 527 531
f 605 531 615
f 423 431 429
f 429 431 437
f 429 437 435
f 678 666 658
f 684 678 682
f 682 678 658
f 682 658 564
f 564 658 566
f 502 494 566
f 566 494 564
f 444 494 502
f 440 438 450
f 450 438 444
f 450 444 475
f 475 444 502
f 426 424 434
f 434 424 432
f 434 432 440
f 440 432 438
f 424 426 420
f 420 426 422
f 408 406 422
f 422 406 416
f 422 416 420
f 394 384 382
f 382 390 394
f 394 390 392
f 394 392 408
f 408 392 402
f 408 402 406
f 368 366 384
f 384 366 382
f 299 293 307
f 307 293 309
f 307 309 330
f 330 309 332
f 330 332 344
f 344 332 342
f 344 342 356
f 356 342 354
f 356 354 362
f 362 354 360
f 362 360 368
f 368 360 366
f 563 565 681
f 681 565 657
f 657 665 681
f 681 665 677
f 681 677 683
f 565 563 501
f 501 563 493
f 443 437 439
f 501 493 474
f 474 493 443
f 474 443 449
f 449 443 439
f 439 437 433
f 433 437 431
f 433 431 425
f 425 431 423
f 425 423 421
f 421 423 419
f 381 383 389
f 389 383 393
f 389 393 391
f 391 393 401
f 401 393 407
f 401 407 405
f 405 407 415
f 415 407 421
f 415 421 419
f 365 367 381
f 381 367 383
f 367 365 361
f 361 365 359
f 361 359 355
f 355 359 353
f 355 353 343
f 343 353 341
f 343 341 329
f 329 341 331
f 329 331 306
f 306 331 308
f 306 308 294
f 294 308 292
