# Original visual geometry, without decimation. Units: metres.
v -0.12282460182905197 -0.016999999061226845 -0.10869348794221878
v -0.12282460182905197 -0.012000000104308128 -0.10869348794221878
v -0.12273672223091125 -0.016999999061226845 -0.10824792087078094
v -0.12273672223091125 -0.012000000104308128 -0.10824792087078094
v -0.12269069999456406 -0.017500000074505806 -0.10868889093399048
v -0.12269069999456406 -0.011500000022351742 -0.10868889093399048
v -0.12261459976434708 -0.017500000074505806 -0.1083030104637146
v -0.12261459976434708 -0.011500000022351742 -0.1083030104637146
v -0.12246083468198776 -0.016999999061226845 -0.10788716375827789
v -0.12246083468198776 -0.012000000104308128 -0.10788716375827789
v -0.12237567454576492 -0.017500000074505806 -0.10799058526754379
v -0.12237567454576492 -0.011500000022351742 -0.10799058526754379
v -0.12232489138841629 -0.017866024747490883 -0.10867632180452347
v -0.12232489138841629 -0.01113397441804409 -0.10867632180452347
v -0.12228096276521683 -0.017866024747490883 -0.10845353454351425
v -0.12228096276521683 -0.01113397441804409 -0.10845353454351425
v -0.12214301526546478 -0.017866024747490883 -0.10827314853668213
v -0.12214301526546478 -0.01113397441804409 -0.10827314853668213
v -0.1220538467168808 -0.016999999061226845 -0.1076856404542923
v -0.1220538467168808 -0.012000000104308128 -0.1076856404542923
v -0.12202321738004684 -0.017500000074505806 -0.10781606286764145
v -0.12202321738004684 -0.011500000022351742 -0.10781606286764145
v -0.121939517557621 -0.017866024747490883 -0.10817238688468933
v -0.121939517557621 -0.01113397441804409 -0.10817238688468933
v -0.12182518839836121 -0.017999999225139618 -0.10865914821624756
v -0.12182518839836121 -0.010999999940395355 -0.10865914821624756
v -0.12171243876218796 -0.017866024747490883 -0.10817202180624008
v -0.12171243876218796 -0.01113397441804409 -0.10817202180624008
v -0.12162990123033524 -0.017500000074505806 -0.10781542211771011
v -0.12162990123033524 -0.011500000022351742 -0.10781542211771011
v -0.12159969657659531 -0.016999999061226845 -0.1076849028468132
v -0.12159969657659531 -0.012000000104308128 -0.1076849028468132
v -0.12159164249897003 -0.016999999061226845 -0.14457513391971588
v -0.12159164249897003 -0.012000000104308128 -0.14457513391971588
v -0.12151556462049484 -0.011617316864430904 -0.14457252621650696
v -0.12147338688373566 -0.016999999061226845 -0.14501363039016724
v -0.12147338688373566 -0.012000000104308128 -0.14501363039016724
v -0.12145774811506271 -0.017500000074505806 -0.14457054436206818
v -0.12145774811506271 -0.011500000022351742 -0.14457054436206818
v -0.12140631675720215 -0.011617316864430904 -0.14497764408588409
v -0.1213553324341774 -0.017500000074505806 -0.14495028555393219
v -0.12129892408847809 -0.011292893439531326 -0.14456507563591003
v -0.12121529877185822 -0.011292893439531326 -0.14487513899803162
v -0.12117338925600052 -0.016999999061226845 -0.14535459876060486
v -0.12117338925600052 -0.012000000104308128 -0.14535459876060486
v -0.12112914770841599 -0.011617316864430904 -0.14529265463352203
v -0.12109552323818207 -0.017500000074505806 -0.14524558186531067
v -0.12109193950891495 -0.017866024747490883 -0.14455796778202057
v -0.12109193950891495 -0.01113397441804409 -0.14455796778202057
v -0.12103281170129776 -0.017866024747490883 -0.14477722346782684
v -0.1210031732916832 -0.011292893439531326 -0.14511625468730927
v -0.12097468972206116 -0.011076120659708977 -0.14455394446849823
v -0.12092943489551544 -0.011076120659708977 -0.14472174644470215
v -0.12088281661272049 -0.017866024747490883 -0.14494770765304565
v -0.12081462889909744 -0.011076120659708977 -0.14485223591327667
v -0.12075352668762207 -0.016999999061226845 -0.14552772045135498
v -0.12075352668762207 -0.012000000104308128 -0.14552772045135498
v -0.12074124813079834 -0.011617316864430904 -0.1454525887966156
v -0.12073192000389099 -0.017500000074505806 -0.14539550244808197
v -0.12070629000663757 -0.011292893439531326 -0.14523865282535553
v -0.12067288160324097 -0.017866024747490883 -0.14503425359725952
v -0.12065395712852478 -0.011076120659708977 -0.14491847157478333
v -0.12059222906827927 -0.017999999225139618 -0.14454080164432526
v -0.12059222906827927 -0.010999999940395355 -0.14454080164432526
v -0.12048055231571198 -0.011076120659708977 -0.14490683376789093
v -0.12044630944728851 -0.017866024747490883 -0.1450190395116806
v -0.12044630944728851 -0.01113397441804409 -0.1450190395116806
v -0.12038587033748627 -0.011292893439531326 -0.14521713554859161
v -0.12033949047327042 -0.017500000074505806 -0.14536912739276886
v -0.12033949047327042 -0.011500000022351742 -0.14536912739276886
v -0.12032261490821838 -0.011617316864430904 -0.14542445540428162
v -0.12030038982629776 -0.016999999061226845 -0.14549727737903595
v -0.12030038982629776 -0.012000000104308128 -0.14549727737903595
v -0.11869821697473526 -0.017999999225139618 -0.11870910972356796
v -0.11869821697473526 -0.010999999940395355 -0.11870910972356796
v -0.11846359819173813 -0.017999999225139618 -0.11769545078277588
v -0.11846359819173813 -0.010999999940395355 -0.11769545078277588
v -0.11839457601308823 -0.017999999225139618 -0.11970426887273788
v -0.11839457601308823 -0.010999999940395355 -0.11970426887273788
v -0.11816249042749405 -0.017999999225139618 -0.13429990410804749
v -0.11816249042749405 -0.010999999940395355 -0.13429990410804749
v -0.11792787164449692 -0.017999999225139618 -0.133286252617836
v -0.11792787164449692 -0.010999999940395355 -0.133286252617836
v -0.11785884201526642 -0.017999999225139618 -0.13529506325721741
v -0.11785884201526642 -0.010999999940395355 -0.13529506325721741
v -0.11775358766317368 -0.017999999225139618 -0.11693491041660309
v -0.11775358766317368 -0.010999999940395355 -0.11693491041660309
v -0.11763402819633484 -0.017999999225139618 -0.12041427940130234
v -0.11763402819633484 -0.010999999940395355 -0.12041427940130234
v -0.11721785366535187 -0.017999999225139618 -0.13252571225166321
v -0.11721785366535187 -0.010999999940395355 -0.13252571225166321
v -0.11709830164909363 -0.017999999225139618 -0.13600507378578186
v -0.11709830164909363 -0.010999999940395355 -0.13600507378578186
v -0.11675842106342316 -0.017999999225139618 -0.11663126200437546
v -0.11675842106342316 -0.010999999940395355 -0.11663126200437546
v -0.11662036925554276 -0.017999999225139618 -0.12064889818429947
v -0.11662036925554276 -0.010999999940395355 -0.12064889818429947
v -0.11622269451618195 -0.017999999225139618 -0.13222205638885498
v -0.11622269451618195 -0.010999999940395355 -0.13222205638885498
v -0.11608464270830154 -0.017999999225139618 -0.13623969256877899
v -0.11608464270830154 -0.010999999940395355 -0.13623969256877899
v -0.11574477702379227 -0.017999999225139618 -0.11686588823795319
v -0.11574477702379227 -0.010999999940395355 -0.11686588823795319
v -0.11562521755695343 -0.017999999225139618 -0.12034524977207184
v -0.11562521755695343 -0.010999999940395355 -0.12034524977207184
v -0.11537610739469528 -0.017999999225139618 -0.11015182733535767
v -0.11537610739469528 -0.010999999940395355 -0.11015182733535767
v -0.11526336520910263 -0.017866024747490883 -0.10966470837593079
v -0.11526336520910263 -0.01113397441804409 -0.10966470837593079
v -0.11520905047655106 -0.017999999225139618 -0.13245667517185211
v -0.11520905047655106 -0.010999999940395355 -0.13245667517185211
v -0.11518082767724991 -0.017500000074505806 -0.10930810868740082
v -0.11518082767724991 -0.011500000022351742 -0.10930810868740082
v -0.11515061557292938 -0.016999999061226845 -0.10917757451534271
v -0.11515061557292938 -0.012000000104308128 -0.10917757451534271
v -0.11508949100971222 -0.017999999225139618 -0.13593605160713196
v -0.11508949100971222 -0.010999999940395355 -0.13593605160713196
v -0.11498422920703888 -0.017999999225139618 -0.11757589131593704
v -0.11498422920703888 -0.010999999940395355 -0.11757589131593704
v -0.11491519957780838 -0.017999999225139618 -0.11958470940589905
v -0.11491519957780838 -0.010999999940395355 -0.11958470940589905
v -0.11489077657461166 -0.016999999061226845 -0.10920275002717972
v -0.11489077657461166 -0.012000000104308128 -0.10920275002717972
v -0.11488816142082214 -0.017382683232426643 -0.10927882790565491
v -0.11488617956638336 -0.017500000074505806 -0.10933664441108704
v -0.11488617956638336 -0.011500000022351742 -0.10933664441108704
v -0.11488071829080582 -0.017707107588648796 -0.10949546843767166
v -0.11487361043691635 -0.017866024747490883 -0.1097024530172348
v -0.11487361043691635 -0.01113397441804409 -0.1097024530172348
v -0.11485643684864044 -0.017999999225139618 -0.11020216345787048
v -0.11485643684864044 -0.010999999940395355 -0.11020216345787048
v -0.11468058824539185 -0.017999999225139618 -0.11857105791568756
v -0.11468058824539185 -0.010999999940395355 -0.11857105791568756
v -0.11444850265979767 -0.017999999225139618 -0.13316670060157776
v -0.11444850265979767 -0.010999999940395355 -0.13316670060157776
v -0.11437947303056717 -0.017999999225139618 -0.13517551124095917
v -0.11437947303056717 -0.010999999940395355 -0.13517551124095917
v -0.11426082253456116 -0.017999999225139618 -0.14260897040367126
v -0.11426082253456116 -0.010999999940395355 -0.14260897040367126
v -0.11414486169815063 -0.017999999225139618 -0.13416184484958649
v -0.11414486169815063 -0.010999999940395355 -0.13416184484958649
v -0.1141149029135704 -0.017866024747490883 -0.14308720827102661
v -0.1141149029135704 -0.01113397441804409 -0.14308720827102661
v -0.11400808393955231 -0.017500000074505806 -0.14343728125095367
v -0.11400808393955231 -0.011500000022351742 -0.14343728125095367
v -0.11396898329257965 -0.016999999061226845 -0.14356543123722076
v -0.11396898329257965 -0.012000000104308128 -0.14356543123722076
v -0.11374583095312119 -0.017999999225139618 -0.14252308011054993
v -0.11374583095312119 -0.010999999940395355 -0.14252308011054993
v -0.11372866481542587 -0.017866024747490883 -0.14302279055118561
v -0.11372866481542587 -0.01113397441804409 -0.14302279055118561
v -0.11371609568595886 -0.017500000074505806 -0.14338858425617218
v -0.11371609568595886 -0.011500000022351742 -0.14338858425617218
v -0.11371149122714996 -0.016999999061226845 -0.1435224860906601
v -0.11371149122714996 -0.012000000104308128 -0.1435224860906601
v -0.11222030967473984 -0.017451446503400803 -0.10921874642372131
v -0.11222030967473984 -0.011548553593456745 -0.10921874642372131
v -0.11221940815448761 -0.011500000022351742 -0.10924500972032547
v -0.11221446841955185 -0.0174539964646101 -0.10921982675790787
v -0.11221446841955185 -0.011546003632247448 -0.10921982675790787
v -0.11221280694007874 -0.017738906666636467 -0.10943711549043655
v -0.11221280694007874 -0.011261093430221081 -0.10943711549043655
v -0.1122068390250206 -0.01113397441804409 -0.10961081832647324
v -0.11220207810401917 -0.01793244481086731 -0.10974942147731781
v -0.11220207810401917 -0.011067555285990238 -0.10974942147731781
v -0.11218966543674469 -0.017999999225139618 -0.11011052876710892
v -0.11218966543674469 -0.010999999940395355 -0.11011052876710892
v -0.11184202134609222 -0.017642049118876457 -0.10923715680837631
v -0.11183685064315796 -0.017344599589705467 -0.10915909707546234
v -0.11183685064315796 -0.011655400507152081 -0.10915909707546234
v -0.11183211207389832 -0.017795152962207794 -0.10937271267175674
v -0.11182056367397308 -0.018003422766923904 -0.10970879346132278
v -0.1118072122335434 -0.018076119944453239 -0.11009738594293594
v -0.11172185838222504 -0.011282322928309441 -0.10921730101108551
v -0.11171620339155197 -0.011162098497152328 -0.1093297153711319
v -0.1117040291428566 -0.010942631401121616 -0.10968387126922607
v -0.11168996244668961 -0.01086602546274662 -0.11009335517883301
v -0.1116841658949852 -0.017743617296218872 -0.10920765995979309
v -0.1116841658949852 -0.011256381869316101 -0.10920765995979309
v -0.11159782856702805 -0.01768919825553894 -0.10918340086936951
v -0.11159782856702805 -0.011310800909996033 -0.10918340086936951
v -0.11154946684837341 -0.011137817054986954 -0.10916975140571594
v -0.11151428520679474 -0.01720380038022995 -0.10910772532224655
v -0.11151428520679474 -0.011796199716627598 -0.10910772532224655
v -0.11151289194822311 -0.017955327406525612 -0.10921558737754822
v -0.11149901151657104 -0.018205551430583 -0.1096193715929985
v -0.11148297041654587 -0.018292892724275589 -0.11008623987436295
v -0.11144672334194183 -0.017991667613387108 -0.10914058238267899
v -0.11141330748796463 -0.010956162586808205 -0.10913105309009552
v -0.11141257733106613 -0.018045058473944664 -0.10913083702325821
v -0.11138799041509628 -0.017099132761359215 -0.10908731073141098
v -0.11138799041509628 -0.011900867335498333 -0.10908731073141098
v -0.11135948449373245 -0.017050532624125481 -0.10908268392086029
v -0.11135948449373245 -0.011949466541409492 -0.10908268392086029
v -0.11135740578174591 -0.010852880775928497 -0.10911504924297333
v -0.11134952306747437 -0.016999999061226845 -0.10908106714487076
v -0.11134952306747437 -0.012000000104308128 -0.10908106714487076
v -0.11134276539087296 -0.010601332411170006 -0.10953913629055023
v -0.11132415384054184 -0.010499999858438969 -0.110080786049366
v -0.11132010072469711 -0.010767948813736439 -0.10910433530807495
v -0.11129501461982727 -0.018300596624612808 -0.10909711569547653
v -0.11128640174865723 -0.018508058041334152 -0.10949478298425674
v -0.11127058416604996 -0.017407599836587906 -0.10909006744623184
v -0.11127058416604996 -0.011592399328947067 -0.10909006744623184
v -0.11126632988452911 -0.018617317080497742 -0.11007879674434662
v -0.11122459918260574 -0.019500000402331352 -0.10907676815986633
v -0.11122459918260574 -0.018732050433754921 -0.10907676815986633
v -0.11122459918260574 -0.010267948731780052 -0.10907676815986633
v -0.11122459918260574 -0.0094999996945261955 -0.10907676815986633
v -0.11121506989002228 -0.018864888697862625 -0.10935398191213608
v -0.11121506989002228 -0.010135110467672348 -0.10935398191213608
v -0.11119025200605392 -0.018999999389052391 -0.1100761815905571
v -0.11119025200605392 -0.0099999997764825821 -0.1100761815905571
v -0.11114247143268585 -0.017198266461491585 -0.10905291885137558
v -0.11114247143268585 -0.011801734566688538 -0.10905291885137558
v -0.11111355572938919 -0.017101066187024117 -0.10904448479413986
v -0.11111355572938919 -0.011898932978510857 -0.10904448479413986
v -0.11110345274209976 -0.016999999061226845 -0.10904152691364288
v -0.11110345274209976 -0.012000000104308128 -0.10904152691364288
v -0.11107906699180603 -0.017999999225139618 -0.14243143796920776
v -0.11107906699180603 -0.010999999940395355 -0.14243143796920776
v -0.11106189340353012 -0.017866024747490883 -0.14293114840984344
v -0.11106189340353012 -0.01113397441804409 -0.14293114840984344
v -0.11104932427406311 -0.017500000074505806 -0.14329695701599121
v -0.11104932427406311 -0.011500000022351742 -0.14329695701599121
v -0.11104471981525421 -0.016999999061226845 -0.14343085885047913
v -0.11104471981525421 -0.012000000104308128 -0.14343085885047913
v -0.11104024946689606 -0.01699552871286869 -0.14343069493770599
v -0.11104024946689606 -0.012004472315311432 -0.14343069493770599
v -0.11074689030647278 -0.01669514924287796 -0.14342062175273895
v -0.11074689030647278 -0.012304850853979588 -0.14342062175273895
v -0.11058914661407471 -0.016518374904990196 -0.14341519773006439
v -0.11058914661407471 -0.012481624260544777 -0.14341519773006439
v -0.11057935655117035 -0.018133973702788353 -0.14241427183151245
v -0.11057935655117035 -0.01086602546274662 -0.14241427183151245
v -0.11055988818407059 -0.017982050776481628 -0.1429809182882309
v -0.11055988818407059 -0.011017949320375919 -0.1429809182882309
v -0.11054563522338867 -0.017566986382007599 -0.14339575171470642
v -0.11054563522338867 -0.011433012783527374 -0.14339575171470642
v -0.11054178327322006 -0.016702206805348396 -0.14350779354572296
v -0.11054178327322006 -0.012297793291509151 -0.14350779354572296
v -0.11054041236639023 -0.016999999061226845 -0.14354757964611053
v -0.11054041236639023 -0.012000000104308128 -0.14354757964611053
v -0.11052282899618149 -0.016994006931781769 -0.14355716109275818
v -0.11052282899618149 -0.011994006112217903 -0.14355716109275818
v -0.11045929789543152 -0.017376353964209557 -0.14353597164154053
v -0.11045929789543152 -0.012376354075968266 -0.14353597164154053
v -0.11045510321855545 -0.01661047525703907 -0.14353457093238831
v -0.11045510321855545 -0.011610475368797779 -0.14353457093238831
v -0.11045421659946442 -0.016349019482731819 -0.14341056346893311
v -0.11045421659946442 -0.012650980614125729 -0.14341056346893311
v -0.11037236452102661 -0.018292892724275589 -0.14240714907646179
v -0.11034884303808212 -0.01766623742878437 -0.1434989869594574
v -0.11034864187240601 -0.011333291418850422 -0.14349892735481262
v -0.11034386605024338 -0.012677955441176891 -0.14349731802940369
v -0.11034361273050308 -0.016321439296007156 -0.14349722862243652
v -0.11021354794502258 -0.018500000238418579 -0.14240169525146484
v -0.11021354794502258 -0.010499999858438969 -0.14240169525146484
v -0.11020120978355408 -0.015931213274598122 -0.1434018611907959
v -0.11020120978355408 -0.013068787753582001 -0.1434018611907959
v -0.11019870638847351 -0.01597481407225132 -0.14344845712184906
v -0.11019870638847351 -0.010974813252687454 -0.14344845712184906
v -0.11019507050514221 -0.018034638836979866 -0.14344723522663116
v -0.11019507050514221 -0.013034638017416 -0.14344723522663116
v -0.11018853634595871 -0.015903310850262642 -0.14340142905712128
v -0.11018853634595871 -0.013096688315272331 -0.14340142905712128
v -0.11018779128789902 -0.018299037590622902 -0.14315126836299896
v -0.11018779128789902 -0.010700961574912071 -0.14315126836299896
v -0.110171839594841 -0.013097051531076431 -0.14343938231468201
v -0.11016941070556641 -0.015896227210760117 -0.14343857765197754
v -0.11013460904359818 -0.01576794870197773 -0.14339958131313324
v -0.11013460904359818 -0.013232050463557243 -0.14339958131313324
v -0.11012677848339081 -0.018232051283121109 -0.14342415332794189
v -0.11012677848339081 -0.013232050463557243 -0.14342415332794189
v -0.11011527478694916 -0.015728890895843506 -0.14342024922370911
v -0.11011527478694916 -0.01072889007627964 -0.14342024922370911
v -0.11007965356111526 -0.018999999389052391 -0.14239709079265594
v -0.11007965356111526 -0.0099999997764825821 -0.14239709079265594
v -0.11004530638456345 -0.019500000402331352 -0.14339651167392731
v -0.11004530638456345 -0.018732050433754921 -0.14339651167392731
v -0.11004530638456345 -0.015267949551343918 -0.14339651167392731
v -0.11004530638456345 -0.01373205054551363 -0.14339651167392731
v -0.11004530638456345 -0.010267948731780052 -0.14339651167392731
v -0.11004530638456345 -0.0094999996945261955 -0.14339651167392731
v -0.10807249695062637 -0.019500000402331352 -0.11345167458057404
v -0.10807249695062637 -0.017500000074505806 -0.11345167458057404
v -0.10807249695062637 -0.011500000022351742 -0.11345167458057404
v -0.10807249695062637 -0.0094999996945261955 -0.11345167458057404
v -0.10785971581935883 -0.019500000402331352 -0.11223451793193817
v -0.10785971581935883 -0.017500000074505806 -0.11223451793193817
v -0.10785971581935883 -0.011500000022351742 -0.11223451793193817
v -0.10785971581935883 -0.0094999996945261955 -0.11223451793193817
v -0.10733962804079056 -0.019500000402331352 -0.13477976620197296
v -0.10733962804079056 -0.017500000074505806 -0.13477976620197296
v -0.10733962804079056 -0.011500000022351742 -0.13477976620197296
v -0.10733962804079056 -0.0094999996945261955 -0.13477976620197296
v -0.10717440396547318 -0.019500000402331352 -0.11120636761188507
v -0.10717440396547318 -0.017500000074505806 -0.11120636761188507
v -0.10717440396547318 -0.011500000022351742 -0.11120636761188507
v -0.10717440396547318 -0.0094999996945261955 -0.11120636761188507
v -0.10693584382534027 -0.019500000402331352 -0.1361829936504364
v -0.10693584382534027 -0.017500000074505806 -0.1361829936504364
v -0.10693584382534027 -0.011500000022351742 -0.1361829936504364
v -0.10693584382534027 -0.0094999996945261955 -0.1361829936504364
v -0.10613284260034561 -0.019500000402331352 -0.11054161936044693
v -0.10613284260034561 -0.017500000074505806 -0.11054161936044693
v -0.10613284260034561 -0.011500000022351742 -0.11054161936044693
v -0.10613284260034561 -0.0094999996945261955 -0.11054161936044693
v -0.10591743886470795 -0.019500000402331352 -0.13722941279411316
v -0.10591743886470795 -0.017500000074505806 -0.13722941279411316
v -0.10591743886470795 -0.011500000022351742 -0.13722941279411316
v -0.10591743886470795 -0.0094999996945261955 -0.13722941279411316
v -0.10452567040920258 -0.019500000402331352 -0.1376710832118988
v -0.10452567040920258 -0.017500000074505806 -0.1376710832118988
v -0.10452567040920258 -0.011500000022351742 -0.1376710832118988
v -0.10452567040920258 -0.0094999996945261955 -0.1376710832118988
v -0.10309024900197983 -0.019500000402331352 -0.13740339875221252
v -0.10309024900197983 -0.017500000074505806 -0.13740339875221252
v -0.10309024900197983 -0.011500000022351742 -0.13740339875221252
v -0.10309024900197983 -0.0094999996945261955 -0.13740339875221252
v -0.1030561551451683 -0.019500000402331352 -0.10597527027130127
v -0.1030561551451683 -0.0094999996945261955 -0.10597527027130127
v -0.099894814193248749 -0.019500000402331352 -0.13920827209949493
v -0.099894814193248749 -0.0094999996945261955 -0.13920827209949493
v -0.098015733063220978 -0.019500000402331352 -0.10672638565301895
v -0.098015733063220978 -0.017500000074505806 -0.10672638565301895
v -0.098015733063220978 -0.011500000022351742 -0.10672638565301895
v -0.098015733063220978 -0.0094999996945261955 -0.10672638565301895
v -0.094872027635574341 -0.019500000402331352 -0.10115902870893478
v -0.094872027635574341 -0.0094999996945261955 -0.10115902870893478
v -0.092650942504405975 -0.019500000402331352 -0.13167327642440796
v -0.092650942504405975 -0.017500000074505806 -0.13167327642440796
v -0.092650942504405975 -0.011500000022351742 -0.13167327642440796
v -0.092650942504405975 -0.0094999996945261955 -0.13167327642440796
v -0.090597599744796753 -0.019500000402331352 -0.10168509185314178
v -0.090597599744796753 -0.017500000074505806 -0.10168509185314178
v -0.090597599744796753 -0.011500000022351742 -0.10168509185314178
v -0.090597599744796753 -0.0094999996945261955 -0.10168509185314178
v -0.08958619087934494 -0.019500000402331352 -0.13324400782585144
v -0.08958619087934494 -0.0094999996945261955 -0.13324400782585144
v -0.087658129632472992 -0.019500000402331352 -0.094983614981174469
v -0.087658129632472992 -0.0094999996945261955 -0.094983614981174469
v -0.084062084555625916 -0.019500000402331352 -0.095542579889297485
v -0.084062084555625916 -0.017500000074505806 -0.095542579889297485
v -0.084062084555625916 -0.011500000022351742 -0.095542579889297485
v -0.084062084555625916 -0.0094999996945261955 -0.095542579889297485
v -0.083139106631278992 -0.019500000402331352 -0.12450822442770004
v -0.083139106631278992 -0.017500000074505806 -0.12450822442770004
v -0.083139106631278992 -0.011500000022351742 -0.12450822442770004
v -0.083139106631278992 -0.0094999996945261955 -0.12450822442770004
v -0.081637531518936157 -0.019500000402331352 -0.087640009820461273
v -0.081637531518936157 -0.0094999996945261955 -0.087640009820461273
v -0.080200396478176117 -0.019500000402331352 -0.12591274082660675
v -0.080200396478176117 -0.0094999996945261955 -0.12591274082660675
v -0.078571014106273651 -0.019500000402331352 -0.088450923562049866
v -0.078571014106273651 -0.017500000074505806 -0.088450923562049866
v -0.078571014106273651 -0.011500000022351742 -0.088450923562049866
v -0.078571014106273651 -0.0094999996945261955 -0.088450923562049866
v -0.076996423304080963 -0.019500000402331352 -0.079355314373970032
v -0.076996423304080963 -0.0094999996945261955 -0.079355314373970032
v -0.074750542640686035 -0.019500000402331352 -0.11605570465326309
v -0.074750542640686035 -0.017500000074505806 -0.11605570465326309
v -0.074750542640686035 -0.011500000022351742 -0.11605570465326309
v -0.074750542640686035 -0.0094999996945261955 -0.11605570465326309
v -0.074260346591472626 -0.019500000402331352 -0.080585718154907227
v -0.074260346591472626 -0.017500000074505806 -0.080585718154907227
v -0.074260346591472626 -0.011500000022351742 -0.080585718154907227
v -0.074260346591472626 -0.0094999996945261955 -0.080585718154907227
v -0.071917429566383362 -0.019500000402331352 -0.11735512316226959
v -0.071917429566383362 -0.0094999996945261955 -0.11735512316226959
v -0.067657917737960815 -0.019500000402331352 -0.10648972541093826
v -0.067657917737960815 -0.017500000074505806 -0.10648972541093826
v -0.067657917737960815 -0.011500000022351742 -0.10648972541093826
v -0.067657917737960815 -0.0094999996945261955 -0.10648972541093826
v -0.064896143972873688 -0.019500000402331352 -0.10773523896932602
v -0.064896143972873688 -0.0094999996945261955 -0.10773523896932602
v -0.062007267028093338 -0.019500000402331352 -0.096007198095321655
v -0.062007267028093338 -0.017500000074505806 -0.096007198095321655
v -0.062007267028093338 -0.011500000022351742 -0.096007198095321655
v -0.062007267028093338 -0.0094999996945261955 -0.096007198095321655
v -0.059271190315485001 -0.019500000402331352 -0.09723760187625885
v -0.059271190315485001 -0.0094999996945261955 -0.09723760187625885
v -0.057637378573417664 -0.019500000402331352 -0.036306183785200119
v -0.057637378573417664 -0.0094999996945261955 -0.036306183785200119
v -0.054901301860809326 -0.019500000402331352 -0.037536587566137314
v -0.054901301860809326 -0.017500000074505806 -0.037536587566137314
v -0.054901301860809326 -0.011500000022351742 -0.037536587566137314
v -0.054901301860809326 -0.0094999996945261955 -0.037536587566137314
v -0.051950599998235703 -0.019500000402331352 -0.025349311530590057
v -0.051950599998235703 -0.0094999996945261955 -0.025349311530590057
v -0.04936961829662323 -0.019500000402331352 -0.026878539472818375
v -0.04936961829662323 -0.017500000074505806 -0.026878539472818375
v -0.04936961829662323 -0.011500000022351742 -0.026878539472818375
v -0.04936961829662323 -0.0094999996945261955 -0.026878539472818375
v -0.045531477779150009 -0.019500000402331352 -0.059369634836912155
v -0.045531477779150009 -0.017500000074505806 -0.059369634836912155
v -0.045531477779150009 -0.011500000022351742 -0.059369634836912155
v -0.045531477779150009 -0.0094999996945261955 -0.059369634836912155
v -0.045071937143802643 -0.019500000402331352 -0.015098630450665951
v -0.045071937143802643 -0.0094999996945261955 -0.015098630450665951
v -0.042795401066541672 -0.019500000402331352 -0.06060003861784935
v -0.042795401066541672 -0.0094999996945261955 -0.06060003861784935
v -0.042678553611040115 -0.019500000402331352 -0.016907421872019768
v -0.042678553611040115 -0.017500000074505806 -0.016907421872019768
v -0.042678553611040115 -0.011500000022351742 -0.016907421872019768
v -0.042678553611040115 -0.0094999996945261955 -0.016907421872019768
v -0.040253069251775742 -0.019500000402331352 -0.049478236585855484
v -0.040253069251775742 -0.017500000074505806 -0.049478236585855484
v -0.040253069251775742 -0.011500000022351742 -0.049478236585855484
v -0.040253069251775742 -0.0094999996945261955 -0.049478236585855484
v -0.037707779556512833 -0.019500000402331352 -0.051066156476736069
v -0.037707779556512833 -0.0094999996945261955 -0.051066156476736069
v -0.037088021636009216 -0.019500000402331352 -0.0056832409463822842
v -0.037088021636009216 -0.0094999996945261955 -0.0056832409463822842
v -0.034912381321191788 -0.019500000402331352 -0.0077488156966865063
v -0.034912381321191788 -0.017500000074505806 -0.0077488156966865063
v -0.034912381321191788 -0.011500000022351742 -0.0077488156966865063
v -0.034912381321191788 -0.0094999996945261955 -0.0077488156966865063
v -0.033689737319946289 -0.019500000402331352 -0.040388461202383041
v -0.033689737319946289 -0.017500000074505806 -0.040388461202383041
v -0.033689737319946289 -0.011500000022351742 -0.040388461202383041
v -0.033689737319946289 -0.0094999996945261955 -0.040388461202383041
v -0.033005774021148682 -0.019500000402331352 -0.002193669555708766
v -0.033005774021148682 -0.0094999996945261955 -0.002193669555708766
v -0.032306589186191559 -0.019500000402331352 -0.0053958934731781483
v -0.032306589186191559 -0.017500000074505806 -0.0053958934731781483
v -0.032306589186191559 -0.011500000022351742 -0.0053958934731781483
v -0.032306589186191559 -0.0094999996945261955 -0.0053958934731781483
v -0.031381674110889435 -0.019500000402331352 -0.042304929345846176
v -0.031381674110889435 -0.0094999996945261955 -0.042304929345846176
v -0.029371116310358047 -0.019500000402331352 -0.0034699158277362585
v -0.029371116310358047 -0.017500000074505806 -0.0034699158277362585
v -0.029371116310358047 -0.011500000022351742 -0.0034699158277362585
v -0.029371116310358047 -0.0094999996945261955 -0.0034699158277362585
v -0.028290597721934319 -0.019500000402331352 0.00037712531047873199
v -0.028290597721934319 -0.0094999996945261955 0.00037712531047873199
v -0.028064306825399399 -0.019500000402331352 -0.0031005712226033211
v -0.028064306825399399 -0.017500000074505806 -0.0031005712226033211
v -0.028064306825399399 -0.011500000022351742 -0.0031005712226033211
v -0.028064306825399399 -0.0094999996945261955 -0.0031005712226033211
v -0.026728536933660507 -0.019500000402331352 -0.0033452641218900681
v -0.026728536933660507 -0.017500000074505806 -0.0033452641218900681
v -0.026728536933660507 -0.011500000022351742 -0.0033452641218900681
v -0.026728536933660507 -0.0094999996945261955 -0.0033452641218900681
v -0.025961235165596008 -0.019500000402331352 -0.032266166061162949
v -0.025961235165596008 -0.017500000074505806 -0.032266166061162949
v -0.025961235165596008 -0.011500000022351742 -0.032266166061162949
v -0.025961235165596008 -0.0094999996945261955 -0.032266166061162949
v -0.025637507438659668 -0.019500000402331352 -0.0041538551449775696
v -0.025637507438659668 -0.017500000074505806 -0.0041538551449775696
v -0.025637507438659668 -0.011500000022351742 -0.0041538551449775696
v -0.025637507438659668 -0.0094999996945261955 -0.0041538551449775696
v -0.023932518437504768 -0.019500000402331352 -0.034476213157176971
v -0.023932518437504768 -0.0094999996945261955 -0.034476213157176971
v -0.02001127228140831 -0.019500000402331352 -0.02808607742190361
v -0.02001127228140831 -0.017500000074505806 -0.02808607742190361
v -0.02001127228140831 -0.011500000022351742 -0.02808607742190361
v -0.02001127228140831 -0.0094999996945261955 -0.02808607742190361
v -0.019155547022819519 -0.019500000402331352 -0.031032636761665344
v -0.019155547022819519 -0.0094999996945261955 -0.031032636761665344
v -0.016444331035017967 -0.028500000014901161 -0.010305352509021759
v -0.016444331035017967 -0.019500000402331352 -0.010305352509021759
v -0.016444331035017967 -0.0094999996945261955 -0.010305352509021759
v -0.016444331035017967 -0.00049999955808743834 -0.010305352509021759
v -0.016193412244319916 -0.019500000402331352 0.0054220645688474178
v -0.016193412244319916 -0.0094999996945261955 0.0054220645688474178
v -0.016167433932423592 -0.028500000014901161 -0.0067558013834059238
v -0.016167433932423592 -0.019500000402331352 -0.0067558013834059238
v -0.016167433932423592 -0.0094999996945261955 -0.0067558013834059238
v -0.016167433932423592 -0.00049999955808743834 -0.0067558013834059238
v -0.015949690714478493 -0.028999999165534973 -0.010232340544462204
v -0.015949690714478493 -4.1721834320718187e-10 -0.010232340544462204
v -0.015690099447965622 -0.028999999165534973 -0.0069046360440552235
v -0.015690099447965622 -4.1721834320718187e-10 -0.0069046360440552235
v -0.015153714455664158 -0.028500000014901161 -0.013623528182506561
v -0.015153714455664158 -0.019500000402331352 -0.013623528182506561
v -0.015153714455664158 -0.0094999996945261955 -0.013623528182506561
v -0.015153714455664158 -0.00049999955808743834 -0.013623528182506561
v -0.014976277947425842 -0.028999999165534973 -0.0093586631119251251
v -0.014976277947425842 -0.028000000864267349 -0.0093586631119251251
v -0.014826366677880287 -0.028000000864267349 -0.0093535119667649269
v -0.014739736914634705 -0.028999999165534973 -0.013343131169676781
v -0.014739736914634705 -4.1721834320718187e-10 -0.013343131169676781
v -0.014526543207466602 -0.027699999511241913 -0.0093432096764445305
v -0.014526543207466602 -0.027000000700354576 -0.0093432096764445305
v -0.014526543207466602 -0.0014999997802078724 -0.0093432096764445305
v -0.014526543207466602 -4.1721834320718187e-10 -0.0093432096764445305
v -0.014377865009009838 -0.028500000014901161 -0.003677907632663846
v -0.014377865009009838 -0.019500000402331352 -0.003677907632663846
v -0.014377865009009838 -0.0094999996945261955 -0.003677907632663846
v -0.014377865009009838 -0.00049999955808743834 -0.003677907632663846
v -0.014223402366042137 -0.028999999165534973 -0.0061058891005814075
v -0.014223402366042137 -0.028000000864267349 -0.0061058891005814075
v -0.014090999960899353 -0.028000000864267349 -0.0061763841658830643
v -0.014012378640472889 -0.028999999165534973 -0.0040191109292209148
v -0.014012378640472889 -4.1721837096275749e-10 -0.0040191109292209148
v -0.014001899398863316 -0.028999999165534973 -0.01255208533257246
v -0.014001899398863316 -0.028000000864267349 -0.01255208533257246
v -0.01387464813888073 -0.028000000864267349 -0.0124726677313447
v -0.01382619421929121 -0.027699999511241913 -0.0063173733651638031
v -0.01382619421929121 -0.027000000700354576 -0.0063173733651638031
v -0.01382619421929121 -0.0014999997802078724 -0.0063173733651638031
v -0.01382619421929121 -4.1721837096275749e-10 -0.0063173733651638031
v -0.013816962018609047 -0.0014999997802078724 -0.0093188276514410973
v -0.013705605641007423 -0.019500000402331352 -0.028801983222365379
v -0.013705605641007423 -0.0094999996945261955 -0.028801983222365379
v -0.013620144687592983 -0.027699999511241913 -0.012313834391534328
v -0.013620144687592983 -0.027000000700354576 -0.012313834391534328
v -0.013620144687592983 -0.0014999997802078724 -0.012313834391534328
v -0.013620144687592983 -4.1721834320718187e-10 -0.012313834391534328
v -0.013517138548195362 -0.027000000700354576 -0.0093085244297981262
v -0.013517138548195362 -0.0059999995864927769 -0.0093085244297981262
v -0.013517138548195362 -0.0018000002019107342 -0.0093085244297981262
v -0.013199487701058388 -0.0014999997802078724 -0.0066510485485196114
v -0.013185583055019379 -0.019500000402331352 -0.025579057633876801
v -0.013185583055019379 -0.017500000074505806 -0.025579057633876801
v -0.013185583055019379 -0.011500000022351742 -0.025579057633876801
v -0.013185583055019379 -0.0094999996945261955 -0.025579057633876801
v -0.013017821125686169 -0.0014999997802078724 -0.011937928386032581
v -0.012934681959450245 -0.027000000700354576 -0.0067920372821390629
v -0.012934681959450245 -0.0059999995864927769 -0.0067920372821390629
v -0.012934681959450245 -0.0018000002019107342 -0.0067920372821390629
v -0.012763317674398422 -0.027000000700354576 -0.011779094114899635
v -0.012763317674398422 -0.0059999995864927769 -0.011779094114899635
v -0.012763317674398422 -0.0018000002019107342 -0.011779094114899635
v -0.012551206164062023 -0.028500000014901161 -0.016053125262260437
v -0.012551206164062023 -0.019500000402331352 -0.016053125262260437
v -0.012551206164062023 -0.0094999996945261955 -0.016053125262260437
v -0.012551206164062023 -0.00049999955808743834 -0.016053125262260437
v -0.012517728842794895 -0.026000000536441803 -0.0092741828411817551
v -0.012517728842794895 -0.018999999389052391 -0.0092741828411817551
v -0.012299885973334312 -0.028999999165534973 -0.015620876103639603
v -0.012299885973334312 -4.1721834320718187e-10 -0.015620876103639603
v -0.012051996774971485 -0.026000000536441803 -0.007262001745402813
v -0.012051996774971485 -0.018999999389052391 -0.007262001745402813
v -0.011945007368922234 -0.028999999165534973 -0.0036653426941484213
v -0.011945007368922234 -0.028000000864267349 -0.0036653426941484213
v -0.011914974078536034 -0.026000000536441803 -0.011249648407101631
v -0.011914974078536034 -0.018999999389052391 -0.011249648407101631
v -0.011865589767694473 -0.028000000864267349 -0.0037925939541310072
v -0.011833262629806995 -0.019500000402331352 -0.024877613410353661
v -0.011833262629806995 -0.017500000074505806 -0.024877613410353661
v -0.011833262629806995 -0.011500000022351742 -0.024877613410353661
v -0.011833262629806995 -0.0094999996945261955 -0.024877613410353661
v -0.011706756427884102 -0.027699999511241913 -0.00404709717258811
v -0.011706756427884102 -0.027000000700354576 -0.00404709717258811
v -0.011706756427884102 -0.0014999997802078724 -0.00404709717258811
v -0.011706756427884102 -4.1721837096275749e-10 -0.00404709717258811
v -0.011561352759599686 -0.028999999165534973 -0.014830480329692364
v -0.011561352759599686 -0.028000000864267349 -0.014830480329692364
v -0.011560034938156605 -0.019500000402331352 -0.020709151402115822
v -0.011560034938156605 -0.017500000074505806 -0.020709151402115822
v -0.011560034938156605 -0.011500000022351742 -0.020709151402115822
v -0.011560034938156605 -0.0094999996945261955 -0.020709151402115822
v -0.011518318206071854 -0.018999999389052391 -0.0092398421838879585
v -0.011518318206071854 -0.0059999995864927769 -0.0092398421838879585
v -0.011490858159959316 -0.028000000864267349 -0.01469807792454958
v -0.011349868960678577 -0.027699999511241913 -0.014433272182941437
v -0.011349868960678577 -0.027000000700354576 -0.014433272182941437
v -0.011349868960678577 -0.0014999997802078724 -0.014433272182941437
v -0.011349868960678577 -4.1721837096275749e-10 -0.014433272182941437
v -0.01133084949105978 -0.0014999997802078724 -0.0046494212001562119
v -0.011172016151249409 -0.027000000700354576 -0.0049039246514439583
v -0.011172016151249409 -0.0059999995864927769 -0.0049039246514439583
v -0.011172016151249409 -0.0018000002019107342 -0.0049039246514439583
v -0.011169311590492725 -0.018999999389052391 -0.007731966208666563
v -0.011169311590492725 -0.0059999995864927769 -0.007731966208666563
v -0.011066630482673645 -0.018999999389052391 -0.010720203630626202
v -0.011066630482673645 -0.0059999995864927769 -0.010720203630626202
v -0.011016193777322769 -0.0014999997802078724 -0.013806565664708614
v -0.010999824851751328 -0.019500000402331352 -0.023602399975061417
v -0.010999824851751328 -0.017500000074505806 -0.023602399975061417
v -0.010999824851751328 -0.011500000022351742 -0.023602399975061417
v -0.010999824851751328 -0.0094999996945261955 -0.023602399975061417
v -0.010900183580815792 -0.019500000402331352 -0.022082246840000153
v -0.010900183580815792 -0.017500000074505806 -0.022082246840000153
v -0.010900183580815792 -0.011500000022351742 -0.022082246840000153
v -0.010900183580815792 -0.0094999996945261955 -0.022082246840000153
v -0.01087520457804203 -0.027000000700354576 -0.013541759923100471
v -0.01087520457804203 -0.0059999995864927769 -0.013541759923100471
v -0.01087520457804203 -0.0018000002019107342 -0.013541759923100471
v -0.010642570443451405 -0.026000000536441803 -0.0057522682473063469
v -0.010642570443451405 -0.018999999389052391 -0.0057522682473063469
v -0.010405240580439568 -0.026000000536441803 -0.012659074738621712
v -0.010405240580439568 -0.018999999389052391 -0.012659074738621712
v -0.0101131247356534 -0.018999999389052391 -0.0066006123088300228
v -0.0101131247356534 -0.0059999995864927769 -0.0066006123088300228
v -0.0099352756515145302 -0.018999999389052391 -0.011776389554142952
v -0.0099352756515145302 -0.0059999995864927769 -0.011776389554142952
v -0.009152265265583992 -0.028500000014901161 -0.017112929373979568
v -0.009152265265583992 -0.019500000402331352 -0.017112929373979568
v -0.009152265265583992 -0.0094999996945261955 -0.017112929373979568
v -0.009152265265583992 -0.00049999955808743834 -0.017112929373979568
v -0.0091133788228034973 -0.028999999165534973 -0.016614442691206932
v -0.0091133788228034973 -4.1721837096275749e-10 -0.016614442691206932
v -0.0087515851482748985 -0.028999999165534973 -0.0026909646112471819
v -0.0087515851482748985 -0.028000000864267349 -0.0026909646112471819
v -0.0087464340031147003 -0.028000000864267349 -0.0028408761136233807
v -0.0087361317127943039 -0.027699999511241913 -0.0031406991183757782
v -0.0087361317127943039 -0.027000000700354576 -0.0031406991183757782
v -0.0087361317127943039 -0.0014999997802078724 -0.0031406991183757782
v -0.0087361317127943039 -4.1721837096275749e-10 -0.0031406991183757782
v -0.0087117487564682961 -0.0014999997802078724 -0.0038502807728946209
v -0.0087014464661478996 -0.027000000700354576 -0.0041501037776470184
v -0.0087014464661478996 -0.0059999995864927769 -0.0041501037776470184
v -0.0087014464661478996 -0.0018000002019107342 -0.0041501037776470184
v -0.0086671048775315285 -0.026000000536441803 -0.0051495134830474854
v -0.0086671048775315285 -0.018999999389052391 -0.0051495134830474854
v -0.0086327632889151573 -0.018999999389052391 -0.0061489236541092396
v -0.0086327632889151573 -0.0059999995864927769 -0.0061489236541092396
v -0.0084274010732769966 -0.018999999389052391 -0.012125397101044655
v -0.0084274010732769966 -0.0059999995864927769 -0.012125397101044655
v -0.0083930594846606255 -0.026000000536441803 -0.013124806806445122
v -0.0083930594846606255 -0.018999999389052391 -0.013124806806445122
v -0.0083587178960442543 -0.027000000700354576 -0.014124216511845589
v -0.0083587178960442543 -0.0059999995864927769 -0.014124216511845589
v -0.0083587178960442543 -0.0018000002019107342 -0.014124216511845589
v -0.0083484156057238579 -0.0014999997802078724 -0.014424039982259274
v -0.0083240335807204247 -0.027699999511241913 -0.015133621171116829
v -0.0083240335807204247 -0.027000000700354576 -0.015133621171116829
v -0.0083240335807204247 -0.0014999997802078724 -0.015133621171116829
v -0.0083240335807204247 -4.1721837096275749e-10 -0.015133621171116829
v -0.0083137303590774536 -0.028000000864267349 -0.015433443710207939
v -0.0083085792139172554 -0.028999999165534973 -0.015583355911076069
v -0.0083085792139172554 -0.028000000864267349 -0.015583355911076069
v -0.0078850826248526573 -0.019500000402331352 -0.027908017858862877
v -0.0078850826248526573 -0.0094999996945261955 -0.027908017858862877
v -0.0071248887106776237 -0.018999999389052391 -0.0064979312010109425
v -0.0071248887106776237 -0.0059999995864927769 -0.0064979312010109425
v -0.0069470396265387535 -0.018999999389052391 -0.011673708446323872
v -0.0069470396265387535 -0.0059999995864927769 -0.011673708446323872
v -0.0066549242474138737 -0.026000000536441803 -0.0056152455508708954
v -0.0066549242474138737 -0.018999999389052391 -0.0056152455508708954
v -0.0064175939187407494 -0.026000000536441803 -0.01252205204218626
v -0.0064175939187407494 -0.018999999389052391 -0.01252205204218626
v -0.0061849597841501236 -0.027000000700354576 -0.0047325603663921356
v -0.0061849597841501236 -0.0059999995864927769 -0.0047325603663921356
v -0.0061849597841501236 -0.0018000002019107342 -0.0047325603663921356
v -0.0060439705848693848 -0.0014999997802078724 -0.0044677546247839928
v -0.0060334936715662479 -0.019500000402331352 -0.019478881731629372
v -0.0060334936715662479 -0.0094999996945261955 -0.019478881731629372
v -0.0059935343451797962 -0.018999999389052391 -0.0075541171245276928
v -0.0059935343451797962 -0.0059999995864927769 -0.0075541171245276928
v -0.0058908532373607159 -0.018999999389052391 -0.010542354546487331
v -0.0058908532373607159 -0.0059999995864927769 -0.010542354546487331
v -0.0058881482109427452 -0.027000000700354576 -0.013370395638048649
v -0.0058881482109427452 -0.0059999995864927769 -0.013370395638048649
v -0.0058881482109427452 -0.0018000002019107342 -0.013370395638048649
v -0.0058477823622524738 -0.028500000014901161 0.0054592527449131012
v -0.0058477823622524738 -0.019500000402331352 0.0054592527449131012
v -0.0058477823622524738 -0.0094999996945261955 0.0054592527449131012
v -0.0058477823622524738 -0.00049999955808743834 0.0054592527449131012
v -0.005811342503875494 -0.028999999165534973 -0.016127042472362518
v -0.005811342503875494 -4.1721837096275749e-10 -0.016127042472362518
v -0.0057293148711323738 -0.0014999997802078724 -0.013624899089336395
v -0.0057187452912330627 -0.019500000402331352 -0.02178204245865345
v -0.0057187452912330627 -0.0094999996945261955 -0.02178204245865345
v -0.0057102954015135765 -0.027699999511241913 -0.003841048339381814
v -0.0057102954015135765 -0.027000000700354576 -0.003841048339381814
v -0.0057102954015135765 -0.0014999997802078724 -0.003841048339381814
v -0.0057102954015135765 -4.1721837096275749e-10 -0.003841048339381814
v -0.0056300931610167027 -0.028500000014901161 -0.016593033447861671
v -0.0056300931610167027 -0.019500000402331352 -0.016593033447861671
v -0.0056300931610167027 -0.0094999996945261955 -0.016593033447861671
v -0.0056300931610167027 -0.00049999955808743834 -0.016593033447861671
v -0.0055693062022328377 -0.028000000864267349 -0.0035762425977736712
v -0.0055418461561203003 -0.018999999389052391 -0.0090344799682497978
v -0.0055418461561203003 -0.0059999995864927769 -0.0090344799682497978
v -0.0055359313264489174 -0.018999999389052391 -0.019528193399310112
v -0.0055359313264489174 -0.0099999997764825821 -0.019528193399310112
v -0.0054988116025924683 -0.028999999165534973 -0.0034438399598002434
v -0.0054988116025924683 -0.028000000864267349 -0.0034438399598002434
v -0.005482296459376812 -0.028999999165534973 0.0051180492155253887
v -0.005482296459376812 -4.1721839871833311e-10 0.0051180492155253887
v -0.0053534079343080521 -0.027699999511241913 -0.014227223582565784
v -0.0053534079343080521 -0.027000000700354576 -0.014227223582565784
v -0.0053534079343080521 -0.0014999997802078724 -0.014227223582565784
v -0.0053534079343080521 -4.1721837096275749e-10 -0.014227223582565784
v -0.0052727875299751759 -0.019500000402331352 -0.017282307147979736
v -0.0052727875299751759 -0.0094999996945261955 -0.017282307147979736
v -0.0052526579238474369 -0.018999999389052391 -0.021601038053631783
v -0.0052526579238474369 -0.0099999997764825821 -0.021601038053631783
v -0.0051945745944976807 -0.028000000864267349 -0.014481726102530956
v -0.0051451902836561203 -0.026000000536441803 -0.007024671882390976
v -0.0051451902836561203 -0.018999999389052391 -0.007024671882390976
v -0.0051151574589312077 -0.028999999165534973 -0.014608977362513542
v -0.0051151574589312077 -0.028000000864267349 -0.014608977362513542
v -0.0050081675872206688 -0.026000000536441803 -0.01101231761276722
v -0.0050081675872206688 -0.018999999389052391 -0.01101231761276722
v -0.0048512960784137249 -0.018999999389052391 -0.017551274970173836
v -0.0048512960784137249 -0.0099999997764825821 -0.017551274970173836
v -0.0045424355193972588 -0.026000000536441803 -0.0090001383796334267
v -0.0045424355193972588 -0.018999999389052391 -0.0090001383796334267
v -0.0043965741060674191 -0.019500000402331352 -0.023693973198533058
v -0.0043965741060674191 -0.0094999996945261955 -0.023693973198533058
v -0.0042968466877937317 -0.027000000700354576 -0.0064952261745929718
v -0.0042968466877937317 -0.0059999995864927769 -0.0064952261745929718
v -0.0042968466877937317 -0.0018000002019107342 -0.0064952261745929718
v -0.004125482402741909 -0.027000000700354576 -0.011482282541692257
v -0.004125482402741909 -0.0059999995864927769 -0.011482282541692257
v -0.004125482402741909 -0.0018000002019107342 -0.011482282541692257
v -0.0040627038106322289 -0.018999999389052391 -0.02332177571952343
v -0.0040627038106322289 -0.0099999997764825821 -0.02332177571952343
v -0.0040423432365059853 -0.0014999997802078724 -0.0063363923691213131
v -0.0038606766611337662 -0.0014999997802078724 -0.01162327267229557
v -0.00360105000436306 -0.019500000402331352 -0.01566709578037262
v -0.00360105000436306 -0.0094999996945261955 -0.01566709578037262
v -0.0035430258139967918 -0.027000000700354576 -0.0089657967910170555
v -0.0035430258139967918 -0.0059999995864927769 -0.0089657967910170555
v -0.0035430258139967918 -0.0018000002019107342 -0.0089657967910170555
v -0.0034879415761679411 -0.028999999165534973 -0.00011985187302343547
v -0.0034879415761679411 -4.1721839871833311e-10 -0.00011985187302343547
v -0.003440019441768527 -0.027699999511241913 -0.0059604858979582787
v -0.003440019441768527 -0.027000000700354576 -0.0059604858979582787
v -0.003440019441768527 -0.0014999997802078724 -0.0059604858979582787
v -0.003440019441768527 -4.1721839871833311e-10 -0.0059604858979582787
v -0.0033467321190983057 -0.018999999389052391 -0.016097584739327431
v -0.0033467321190983057 -0.0099999997764825821 -0.016097584739327431
v -0.0032432028092443943 -0.0014999997802078724 -0.0089554945006966591
v -0.0032339703757315874 -0.027699999511241913 -0.011956946924328804
v -0.0032339703757315874 -0.027000000700354576 -0.011956946924328804
v -0.0032339703757315874 -0.0014999997802078724 -0.011956946924328804
v -0.0032339703757315874 -4.1721837096275749e-10 -0.011956946924328804
v -0.0031855162233114243 -0.028000000864267349 -0.0058016525581479073
v -0.0030805717688053846 -0.028999999165534973 0.0016401759348809719
v -0.0030805717688053846 -4.1721842647390872e-10 0.0016401759348809719
v -0.0030582647304981947 -0.028999999165534973 -0.0057222354225814342
v -0.0030582647304981947 -0.028000000864267349 -0.0057222354225814342
v -0.0030477861873805523 -0.028999999165534973 -0.014255208894610405
v -0.0030477861873805523 -4.1721837096275749e-10 -0.014255208894610405
v -0.002988236490637064 -0.028133975341916084 -0.00010268111509503797
v -0.002988236490637064 -0.00086602516239508986 -0.00010268111509503797
v -0.0029691646341234446 -0.028000000864267349 -0.012097936123609543
v -0.0029607198666781187 -0.028999999165534973 -0.0018477655248716474
v -0.0029607198666781187 -4.1721839871833311e-10 -0.0018477655248716474
v -0.0028999890200793743 -0.028500000014901161 0.0074558742344379425
v -0.0028999890200793743 -0.019500000402331352 0.0074558742344379425
v -0.0028999890200793743 -0.0094999996945261955 0.0074558742344379425
v -0.0028999890200793743 -0.00049999955808743834 0.0074558742344379425
v -0.0028367619961500168 -0.028999999165534973 -0.012168430723249912
v -0.0028367619961500168 -0.028000000864267349 -0.012168430723249912
v -0.0027187399100512266 -0.028999999165534973 0.0069898823276162148
v -0.0027187399100512266 -4.1721842647390872e-10 0.0069898823276162148
v -0.0026822998188436031 -0.028500000014901161 -0.014596412889659405
v -0.0026822998188436031 -0.019500000402331352 -0.014596412889659405
v -0.0026822998188436031 -0.0094999996945261955 -0.014596412889659405
v -0.0026822998188436031 -0.00049999955808743834 -0.014596412889659405
v -0.0026392289437353611 -0.028133975341916084 0.0014051937032490969
v -0.0026392289437353611 -0.00086602516239508986 0.0014051937032490969
v -0.0025365478359162807 -0.028133975341916084 -0.0015830426709726453
v -0.0025365478359162807 -0.00086602516239508986 -0.0015830426709726453
v -0.0025336213875561953 -0.027699999511241913 -0.0089311115443706512
v -0.0025336213875561953 -0.027000000700354576 -0.0089311115443706512
v -0.0025336213875561953 -0.0014999997802078724 -0.0089311115443706512
v -0.0025336213875561953 -4.1721839871833311e-10 -0.0089311115443706512
v -0.0024902357254177332 -0.019500000402331352 -0.027722639963030815
v -0.0024902357254177332 -0.0094999996945261955 -0.027722639963030815
v -0.0024441031273454428 -0.019500000402331352 -0.02772052213549614
v -0.0024441031273454428 -0.0094999996945261955 -0.02772052213549614
v -0.0023527599405497313 -0.019500000402331352 -0.024801420047879219
v -0.0023527599405497313 -0.0094999996945261955 -0.024801420047879219
v -0.0022337983828037977 -0.028000000864267349 -0.0089208092540502548
v -0.002223270945250988 -0.018999999389052391 -0.024318477138876915
v -0.002223270945250988 -0.0099999997764825821 -0.024318477138876915
v -0.0020838866475969553 -0.028999999165534973 -0.0089156581088900566
v -0.0020838866475969553 -0.028000000864267349 -0.0089156581088900566
v -0.0020461985841393471 -0.019500000402331352 -0.027579504996538162
v -0.0020461985841393471 -0.0094999996945261955 -0.027579504996538162
v -0.0020107817836105824 -0.019423564895987511 -0.027647241950035095
v -0.0020048990845680237 -0.0095776785165071487 -0.027645554393529892
v -0.0018477655248716474 -0.028999999165534973 0.0029607198666781187
v -0.0018477655248716474 -4.1721842647390872e-10 0.0029607198666781187
v -0.0017048107692971826 -0.019500000402331352 -0.025165881961584091
v -0.0017048107692971826 -0.0094999996945261955 -0.025165881961584091
v -0.0016860642936080694 -0.019500000402331352 -0.027316372841596603
v -0.0016860642936080694 -0.0094999996945261955 -0.027316372841596603
v -0.0016401760512962937 -0.028999999165534973 -0.0030805717688053846
v -0.0016401760512962937 -4.1721839871833311e-10 -0.0030805717688053846
v -0.0015830426709726453 -0.028133975341916084 0.0025365480687469244
v -0.0015830426709726453 -0.00086602516239508986 0.0025365480687469244
v -0.0015519827138632536 -0.0096906078979372978 -0.027451848611235619
v -0.0014192226808518171 -0.019500000402331352 -0.026958977803587914
v -0.0014192226808518171 -0.0094999996945261955 -0.026958977803587914
v -0.0014051937032490969 -0.028133975341916084 -0.0026392291765660048
v -0.0014051937032490969 -0.00086602516239508986 -0.0026392291765660048
v -0.0013796177227050066 -0.019500000402331352 -0.014982366003096104
v -0.0013796177227050066 -0.0094999996945261955 -0.014982366003096104
v -0.0013593384064733982 -0.018999999389052391 -0.024804428219795227
v -0.0013593384064733982 -0.0099999997764825821 -0.024804428219795227
v -0.0013474433217197657 -0.018999999389052391 -0.015481329523026943
v -0.0013474433217197657 -0.0099999997764825821 -0.015481329523026943
v -0.001311437925323844 -0.019500000402331352 -0.025796698406338692
v -0.001311437925323844 -0.0094999996945261955 -0.025796698406338692
v -0.0013097132323309779 -0.019500000402331352 0.0078920628875494003
v -0.0013097132323309779 -0.0094999996945261955 0.0078920628875494003
v -0.0012692674063146114 -0.019500000402331352 -0.026538921520113945
v -0.0012692674063146114 -0.0094999996945261955 -0.026538921520113945
v -0.0012055707629770041 -0.019196273759007454 -0.027196384966373444
v -0.0011241456959396601 -0.0098348064348101616 -0.027117170393466949
v -0.00083484186325222254 -0.018999999389052391 -0.025645516812801361
v -0.00083484186325222254 -0.0099999997764825821 -0.025645516812801361
v -0.00077861407771706581 -0.018999999389052391 -0.026635145768523216
v -0.00077861407771706581 -0.0099999997764825821 -0.026635145768523216
v -0.00011985147284576669 -0.028999999165534973 0.0034879413433372974
v -0.00011985147284576669 -4.1721842647390872e-10 0.0034879413433372974
v -0.00010268070764141157 -0.028133975341916084 0.0029882362578064203
v -0.00010268070764141157 -0.00086602516239508986 0.0029882362578064203
v 0.00010268152982462198 -0.028133975341916084 -0.0029882362578064203
v 0.00010268152982462198 -0.00086602516239508986 -0.0029882362578064203
v 0.00011985228775301948 -0.028999999165534973 -0.0034879415761679411
v 0.00011985228775301948 -4.1721842647390872e-10 -0.0034879415761679411
v 0.00058329675812274218 -0.028999999165534973 0.0074772834777832031
v 0.00058329675812274218 -4.1721842647390872e-10 0.0074772834777832031
v 0.00062218273524194956 -0.028500000014901161 0.0079757692292332649
v 0.00062218273524194956 -0.00049999955808743834 0.0079757692292332649
v 0.00071443576598539948 -0.018999999389052391 -0.015835709869861603
v 0.00071443576598539948 -0.0099999997764825821 -0.015835709869861603
v 0.0009113582200370729 -0.019500000402331352 -0.015376119874417782
v 0.0009113582200370729 -0.0094999996945261955 -0.015376119874417782
v 0.0014051940524950624 -0.028133975341916084 0.0026392291765660048
v 0.0014051940524950624 -0.00086602516239508986 0.0026392291765660048
v 0.0015107416547834873 -0.019500000402331352 -0.015497330576181412
v 0.0015107416547834873 -0.0094999996945261955 -0.015497330576181412
v 0.0015136133879423141 -0.018999999389052391 -0.015997322276234627
v 0.0015136133879423141 -0.0099999997764825821 -0.015997322276234627
v 0.0015830430202186108 -0.028133975341916084 -0.0025365480687469244
v 0.0015830430202186108 -0.00086602516239508986 -0.0025365480687469244
v 0.0016401759348809719 -0.028999999165534973 0.0030805717688053846
v 0.0016401759348809719 -4.1721842647390872e-10 0.0030805717688053846
v 0.0018477654084563255 -0.028999999165534973 -0.0029607198666781187
v 0.0018477654084563255 -4.1721842647390872e-10 -0.0029607198666781187
v 0.0021086933556944132 -0.019500000402331352 -0.015369243919849396
v 0.0021086933556944132 -0.0094999996945261955 -0.015369243919849396
v 0.0023108827881515026 -0.018999999389052391 -0.015826540067791939
v 0.0023108827881515026 -0.0099999997764825821 -0.015826540067791939
v 0.0025365483015775681 -0.028133975341916084 0.0015830426709726453
v 0.0025365483015775681 -0.00086602516239508986 0.0015830426709726453
v 0.0026058333460241556 -0.019500000402331352 -0.015013146214187145
v 0.0026058333460241556 -0.0094999996945261955 -0.015013146214187145
v 0.0026392294093966484 -0.028133975341916084 -0.0014051937032490969
v 0.0026392294093966484 -0.00086602516239508986 -0.0014051937032490969
v 0.0029195351526141167 -0.019500000402331352 -0.014488224871456623
v 0.0029195351526141167 -0.0094999996945261955 -0.014488224871456623
v 0.002960720332339406 -0.028999999165534973 0.0018477655248716474
v 0.002960720332339406 -4.1721842647390872e-10 0.0018477655248716474
v 0.00297373509965837 -0.018999999389052391 -0.015351744368672371
v 0.00297373509965837 -0.0099999997764825821 -0.015351744368672371
v 0.0029882367234677076 -0.028133975341916084 0.00010268113692291081
v 0.0029882367234677076 -0.00086602516239508986 0.00010268113692291081
v 0.0030805722344666719 -0.028999999165534973 -0.0016401760512962937
v 0.0030805722344666719 -4.1721842647390872e-10 -0.0016401760512962937
v 0.003392005106434226 -0.018999999389052391 -0.014651847071945667
v 0.003392005106434226 -0.0099999997764825821 -0.014651847071945667
v 0.0034879418089985847 -0.028999999165534973 0.00011985189485130832
v 0.0034879418089985847 -4.1721842647390872e-10 0.00011985189485130832
v 0.0037698037922382355 -0.028999999165534973 0.0064837168902158737
v 0.0037698037922382355 -4.1721842647390872e-10 0.0064837168902158737
v 0.0040211235173046589 -0.028500000014901161 0.0069159641861915588
v 0.0040211235173046589 -0.00049999955808743834 0.0069159641861915588
v 0.0054822955280542374 -0.028999999165534973 -0.005118049681186676
v 0.0054822955280542374 -4.1721842647390872e-10 -0.005118049681186676
v 0.0058477828279137611 -0.028500000014901161 -0.0054592527449131012
v 0.0058477828279137611 -0.019500000402331352 -0.0054592527449131012
v 0.0058477828279137611 -0.0094999996945261955 -0.0054592527449131012
v 0.0058477828279137611 -0.00049999955808743834 -0.0054592527449131012
v 0.0061760284006595612 -0.019500000402331352 -0.0050849453546106815
v 0.0061760284006595612 -0.0094999996945261955 -0.0050849453546106815
v 0.0062096542678773403 -0.028999999165534973 0.0042059705592691898
v 0.0062096542678773403 -4.1721842647390872e-10 0.0042059705592691898
v 0.0066236318089067936 -0.028500000014901161 0.004486368503421545
v 0.0066236318089067936 -0.00049999955808743834 0.004486368503421545
v 0.007160017266869545 -0.028999999165534973 -0.0022325238678604364
v 0.007160017266869545 -4.1721842647390872e-10 -0.0022325238678604364
v 0.0074196076020598412 -0.028999999165534973 0.0010951800504699349
v 0.0074196076020598412 -4.1721842647390872e-10 0.0010951800504699349
v 0.0075595136731863022 -0.018999999389052391 -0.0026179696433246136
v 0.0075595136731863022 -0.0099999997764825821 -0.0026179696433246136
v 0.0076373503543436527 -0.028500000014901161 -0.0023813589941710234
v 0.0076373503543436527 -0.00049999955808743834 -0.0023813589941710234
v 0.0079142488539218903 -0.028500000014901161 0.0011681921314448118
v 0.0079142488539218903 -0.00049999955808743834 0.0011681921314448118
f 657 695 574
f 776 768 783
f 783 768 759
f 783 759 757
f 774 793 761
f 761 793 797
f 761 797 783
f 864 867 843
f 843 839 833
f 436 466 444
f 300 292 209
f 209 292 288
f 209 288 284
f 284 288 296
f 284 296 304
f 641 592 680
f 680 592 664
f 680 664 707
f 707 664 746
f 707 746 787
f 787 746 864
f 787 864 819
f 819 864 843
f 819 843 823
f 823 843 833
f 452 444 469
f 795 738 466
f 466 738 651
f 466 651 444
f 444 651 490
f 444 490 469
f 528 554 477
f 477 554 452
f 477 452 463
f 463 452 469
f 574 578 657
f 657 578 554
f 657 554 641
f 641 554 528
f 641 528 592
f 304 312 284
f 284 312 316
f 284 316 324
f 324 316 320
f 324 320 340
f 340 320 334
f 340 334 354
f 354 334 350
f 354 350 370
f 370 350 364
f 370 364 376
f 376 364 374
f 376 374 382
f 382 374 380
f 382 380 402
f 402 380 398
f 402 398 412
f 412 398 410
f 412 410 430
f 430 410 422
f 430 422 454
f 454 422 448
f 454 448 460
f 460 448 458
f 460 458 506
f 506 458 518
f 506 518 627
f 627 518 544
f 627 544 757
f 757 544 574
f 757 574 783
f 783 574 695
f 783 695 761
f 444 440 436
f 436 440 434
f 436 434 424
f 424 434 428
f 424 428 414
f 414 428 418
f 414 418 400
f 400 418 406
f 400 406 390
f 390 406 394
f 390 394 384
f 384 394 388
f 384 388 360
f 360 388 368
f 360 368 352
f 352 368 358
f 352 358 342
f 342 358 346
f 342 346 330
f 330 346 338
f 330 338 322
f 322 338 328
f 322 328 209
f 209 328 308
f 209 308 300
f 767 775 782
f 737 794 465
f 767 782 758
f 792 773 796
f 796 773 760
f 435 437 465
f 465 437 441
f 476 449 551
f 818 822 832
f 842 866 863
f 309 301 279
f 279 301 293
f 279 293 206
f 206 293 285
f 206 285 289
f 640 551 656
f 656 551 575
f 656 575 694
f 694 575 571
f 694 571 760
f 760 571 782
f 760 782 796
f 476 551 527
f 527 551 640
f 527 640 591
f 591 640 679
f 591 679 663
f 663 679 706
f 663 706 745
f 745 706 786
f 745 786 863
f 863 786 818
f 863 818 842
f 842 818 832
f 842 832 838
f 476 462 449
f 449 462 468
f 449 468 441
f 441 468 489
f 441 489 465
f 465 489 650
f 465 650 737
f 289 297 206
f 206 297 305
f 206 305 321
f 321 305 325
f 321 325 329
f 329 325 335
f 329 335 341
f 341 335 343
f 341 343 351
f 351 343 355
f 351 355 359
f 359 355 365
f 359 365 383
f 383 365 385
f 383 385 389
f 389 385 391
f 389 391 399
f 399 391 403
f 399 403 413
f 413 403 415
f 413 415 423
f 423 415 425
f 423 425 435
f 435 425 431
f 435 431 437
f 758 782 756
f 756 782 571
f 756 571 626
f 626 571 541
f 626 541 505
f 505 541 515
f 505 515 459
f 459 515 455
f 459 455 453
f 453 455 445
f 453 445 429
f 429 445 419
f 429 419 411
f 411 419 407
f 411 407 401
f 401 407 395
f 401 395 381
f 381 395 377
f 381 377 375
f 375 377 371
f 375 371 369
f 369 371 361
f 369 361 353
f 353 361 347
f 353 347 339
f 339 347 331
f 339 331 323
f 323 331 317
f 323 317 279
f 279 317 313
f 279 313 309
f 668 667 643
f 643 667 642
f 643 642 629
f 629 642 628
f 629 628 610
f 610 628 609
f 610 609 587
f 587 609 586
f 587 586 567
f 567 586 566
f 567 566 556
f 556 566 555
f 556 555 569
f 569 555 568
f 569 568 589
f 589 568 588
f 589 588 612
f 612 588 611
f 612 611 631
f 631 611 630
f 631 630 645
f 645 630 644
f 645 644 668
f 668 644 667
f 454 453 430
f 430 453 429
f 430 429 412
f 412 429 411
f 412 411 402
f 402 411 401
f 207 210 206
f 206 210 212
f 206 212 279
f 279 212 277
f 279 277 280
f 795 466 794
f 794 466 465
f 650 649 736
f 876 877 879
f 876 878 866
f 866 878 862
f 866 862 863
f 879 877 865
f 865 877 867
f 865 867 864
f 738 795 815
f 814 794 736
f 736 794 737
f 736 737 650
f 815 739 738
f 738 739 652
f 738 652 651
f 876 879 878
f 878 879 881
f 878 881 880
f 880 881 871
f 880 871 870
f 870 871 859
f 870 859 858
f 858 859 815
f 858 815 814
f 814 815 795
f 814 795 794
f 877 876 853
f 853 876 852
f 382 402 381
f 381 402 401
f 281 282 324
f 279 280 323
f 323 280 273
f 323 273 263
f 256 261 323
f 256 323 248
f 244 248 246
f 246 248 323
f 246 323 253
f 253 323 263
f 261 270 323
f 323 270 275
f 323 275 281
f 254 262 324
f 282 274 324
f 324 274 269
f 324 269 264
f 254 324 249
f 245 249 247
f 247 249 324
f 247 324 255
f 255 324 264
f 262 276 324
f 324 276 283
f 324 283 284
f 281 324 323
f 323 324 340
f 323 340 339
f 339 340 354
f 339 354 353
f 353 354 370
f 353 370 369
f 369 370 376
f 369 376 375
f 375 376 382
f 375 382 381
f 211 208 209
f 284 283 278
f 284 278 209
f 209 278 213
f 209 213 211
f 322 209 208
f 208 200 322
f 322 200 195
f 322 195 189
f 179 181 182
f 182 181 204
f 182 204 189
f 214 203 321
f 189 204 322
f 322 204 215
f 322 215 217
f 219 218 321
f 321 218 216
f 321 216 214
f 180 178 188
f 190 321 188
f 188 321 203
f 188 203 180
f 190 201 321
f 321 201 207
f 321 207 206
f 217 219 322
f 322 219 321
f 322 321 330
f 330 321 329
f 330 329 342
f 342 329 341
f 342 341 352
f 352 341 351
f 352 351 360
f 360 351 359
f 384 360 383
f 383 360 359
f 384 383 389
f 384 389 390
f 390 389 399
f 390 399 400
f 400 399 413
f 400 413 414
f 414 413 423
f 414 423 424
f 424 423 435
f 424 435 436
f 849 848 837
f 837 848 836
f 837 836 821
f 821 836 820
f 821 820 807
f 807 820 806
f 807 806 780
f 780 806 779
f 780 779 749
f 749 779 748
f 749 748 732
f 732 748 731
f 732 731 751
f 751 731 750
f 751 750 785
f 785 750 784
f 785 784 809
f 809 784 808
f 809 808 827
f 827 808 826
f 827 826 841
f 841 826 840
f 841 840 849
f 849 840 848
f 466 436 465
f 465 436 435
f 197 123 196
f 196 123 122
f 228 226 154
f 155 227 154
f 154 227 229
f 228 154 230
f 230 154 229
f 230 229 231
f 281 266 282
f 282 266 272
f 251 260 265
f 265 260 266
f 265 266 271
f 271 266 281
f 259 250 231
f 231 250 232
f 231 232 230
f 259 231 265
f 265 231 233
f 265 233 251
f 146 72 147
f 147 72 73
f 33 1 34
f 34 1 2
f 32 31 115
f 115 31 114
f 87 77 26
f 26 77 75
f 26 75 91
f 91 83 26
f 26 83 81
f 26 81 64
f 87 26 95
f 95 26 107
f 95 107 103
f 103 107 131
f 103 131 167
f 81 85 64
f 64 85 93
f 64 93 139
f 139 93 101
f 139 101 149
f 149 101 117
f 149 117 221
f 75 79 91
f 91 79 89
f 91 89 99
f 99 89 97
f 99 97 111
f 111 97 105
f 105 121 111
f 111 121 133
f 111 133 167
f 167 133 119
f 167 119 103
f 117 137 221
f 221 137 141
f 221 141 167
f 167 141 135
f 167 135 111
f 110 166 132
f 110 134 166
f 166 134 140
f 166 140 220
f 220 140 136
f 220 136 116
f 25 86 106
f 106 86 94
f 106 94 130
f 130 94 102
f 130 102 166
f 166 102 118
f 166 118 132
f 92 63 100
f 100 63 138
f 100 138 116
f 116 138 148
f 116 148 220
f 132 120 110
f 110 120 104
f 110 104 98
f 98 104 96
f 98 96 90
f 90 96 88
f 88 78 90
f 90 78 74
f 90 74 25
f 25 74 76
f 25 76 86
f 92 84 63
f 63 84 80
f 63 80 25
f 25 80 82
f 25 82 90
f 141 140 135
f 135 140 134
f 135 134 111
f 111 134 110
f 111 110 99
f 99 110 98
f 99 98 91
f 91 98 90
f 91 90 83
f 83 90 82
f 83 82 81
f 81 82 80
f 81 80 85
f 85 80 84
f 85 84 93
f 93 84 92
f 93 92 101
f 101 92 100
f 101 100 117
f 117 100 116
f 117 116 137
f 137 116 136
f 137 136 141
f 141 136 140
f 133 132 119
f 119 132 118
f 119 118 103
f 103 118 102
f 103 102 95
f 95 102 94
f 95 94 87
f 87 94 86
f 87 86 77
f 77 86 76
f 77 76 75
f 75 76 74
f 75 74 79
f 79 74 78
f 79 78 89
f 89 78 88
f 89 88 97
f 97 88 96
f 97 96 105
f 105 96 104
f 105 104 121
f 121 104 120
f 121 120 133
f 133 120 132
f 712 496 726
f 726 496 674
f 726 674 772
f 772 674 743
f 772 743 805
f 805 743 813
f 805 813 829
f 829 813 857
f 829 857 845
f 845 857 869
f 845 869 855
f 855 869 875
f 855 875 851
f 851 875 873
f 851 873 831
f 831 873 861
f 831 861 811
f 811 861 730
f 716 811 755
f 755 811 730
f 755 730 723
f 723 730 678
f 678 730 654
f 678 654 622
f 622 654 595
f 622 595 561
f 561 595 533
f 561 533 510
f 510 533 483
f 510 483 487
f 487 483 472
f 487 472 503
f 503 472 474
f 503 474 548
f 548 474 496
f 548 496 602
f 602 496 712
f 602 712 661
f 661 712 735
f 661 735 716
f 716 735 778
f 716 778 811
f 865 864 747
f 747 864 746
f 747 746 664
f 747 664 665
f 665 664 592
f 665 592 593
f 593 592 528
f 593 528 529
f 529 528 477
f 529 477 478
f 478 477 463
f 478 463 464
f 464 463 469
f 464 469 470
f 470 469 490
f 470 490 491
f 491 490 652
f 652 490 651
f 596 810 777
f 596 671 810
f 810 671 727
f 810 727 830
f 729 860 740
f 740 860 765
f 729 740 653
f 653 740 686
f 653 686 594
f 594 686 624
f 594 624 532
f 532 624 549
f 532 549 482
f 482 549 497
f 482 497 471
f 471 497 479
f 471 479 473
f 473 479 492
f 473 492 495
f 777 734 596
f 596 734 711
f 596 711 536
f 492 536 495
f 495 536 711
f 495 711 673
f 673 711 725
f 673 725 742
f 742 725 771
f 742 771 812
f 812 771 804
f 812 804 856
f 856 804 828
f 856 828 868
f 868 828 844
f 868 844 874
f 874 844 854
f 874 854 872
f 872 854 850
f 872 850 860
f 860 850 830
f 860 830 765
f 765 830 727
f 488 489 468
f 488 468 467
f 467 468 462
f 467 462 461
f 461 462 476
f 461 476 475
f 475 476 527
f 475 527 526
f 526 527 591
f 526 591 590
f 590 591 663
f 590 663 662
f 662 663 745
f 662 745 744
f 744 745 862
f 862 745 863
f 649 650 488
f 488 650 489
f 756 626 757
f 757 626 627
f 627 626 506
f 506 626 505
f 506 505 460
f 460 505 459
f 460 459 454
f 454 459 453
f 763 764 702
f 702 764 703
f 702 703 681
f 681 703 682
f 681 682 669
f 669 682 670
f 669 670 690
f 690 670 691
f 690 691 717
f 717 691 718
f 717 718 790
f 790 718 791
f 790 791 816
f 816 791 817
f 802 803 801
f 802 801 800
f 800 801 789
f 800 789 788
f 788 789 764
f 788 764 763
f 756 757 758
f 758 757 759
f 758 759 769
f 759 770 769
f 769 770 781
f 769 781 798
f 781 799 798
f 798 799 803
f 798 803 802
f 816 817 825
f 816 825 824
f 824 825 835
f 824 835 834
f 834 835 847
f 834 847 846
f 846 847 853
f 846 853 852
f 486 487 502
f 502 487 503
f 502 503 547
f 547 503 548
f 547 548 601
f 601 548 602
f 601 602 660
f 660 602 661
f 660 661 715
f 715 661 716
f 715 716 754
f 754 716 755
f 754 755 722
f 722 755 723
f 722 723 677
f 677 723 678
f 677 678 621
f 621 678 622
f 621 622 560
f 560 622 561
f 560 561 509
f 509 561 510
f 509 510 486
f 486 510 487
f 639 660 704
f 704 660 715
f 704 715 719
f 719 715 754
f 719 754 705
f 705 754 722
f 705 722 655
f 655 722 677
f 655 677 618
f 618 677 621
f 618 621 570
f 570 621 560
f 570 560 519
f 519 560 509
f 519 509 504
f 504 509 486
f 504 486 514
f 514 486 502
f 514 502 562
f 562 502 547
f 562 547 603
f 603 547 601
f 603 601 639
f 639 601 660
f 512 513 521
f 521 513 522
f 521 522 564
f 564 522 565
f 564 565 605
f 605 565 606
f 605 606 637
f 637 606 638
f 637 638 697
f 697 638 698
f 697 698 709
f 709 698 710
f 709 710 700
f 700 710 701
f 700 701 647
f 647 701 648
f 647 648 616
f 616 648 617
f 616 617 580
f 580 617 581
f 580 581 524
f 524 581 525
f 524 525 512
f 512 525 513
f 587 564 610
f 610 564 605
f 610 605 629
f 629 605 637
f 629 637 643
f 643 637 697
f 643 697 668
f 668 697 709
f 668 709 645
f 645 709 700
f 645 700 631
f 631 700 647
f 631 647 612
f 612 647 616
f 612 616 589
f 589 616 580
f 589 580 569
f 569 580 524
f 569 524 556
f 556 524 512
f 556 512 567
f 567 512 521
f 567 521 587
f 587 521 564
f 766 765 728
f 728 765 727
f 728 727 672
f 672 727 671
f 672 671 597
f 597 671 596
f 597 596 537
f 537 596 536
f 537 536 493
f 493 536 492
f 493 492 480
f 480 492 479
f 480 479 498
f 498 479 497
f 498 497 550
f 550 497 549
f 550 549 625
f 625 549 624
f 625 624 687
f 687 624 686
f 687 686 741
f 741 686 740
f 741 740 766
f 766 740 765
f 666 672 598
f 598 672 597
f 598 597 540
f 540 597 537
f 540 537 494
f 494 537 493
f 494 493 481
f 481 493 480
f 481 480 499
f 499 480 498
f 499 498 557
f 557 498 550
f 557 550 623
f 623 550 625
f 623 625 683
f 683 625 687
f 683 687 733
f 733 687 741
f 733 741 762
f 762 741 766
f 762 766 724
f 724 766 728
f 724 728 666
f 666 728 672
f 753 752 714
f 714 752 713
f 714 713 659
f 659 713 658
f 659 658 600
f 600 658 599
f 600 599 546
f 546 599 545
f 546 545 501
f 501 545 500
f 501 500 485
f 485 500 484
f 485 484 508
f 508 484 507
f 508 507 559
f 559 507 558
f 559 558 620
f 620 558 619
f 620 619 676
f 676 619 675
f 676 675 721
f 721 675 720
f 721 720 753
f 753 720 752
f 696 714 636
f 636 714 659
f 636 659 604
f 604 659 600
f 604 600 563
f 563 600 546
f 563 546 520
f 520 546 501
f 520 501 511
f 511 501 485
f 511 485 523
f 523 485 508
f 523 508 579
f 579 508 559
f 579 559 615
f 615 559 620
f 615 620 646
f 646 620 676
f 646 676 699
f 699 676 721
f 699 721 708
f 708 721 753
f 708 753 696
f 696 753 714
f 693 692 685
f 685 692 684
f 685 684 633
f 633 684 632
f 633 632 608
f 608 632 607
f 608 607 583
f 583 607 582
f 583 582 535
f 535 582 534
f 535 534 531
f 531 534 530
f 531 530 539
f 539 530 538
f 539 538 585
f 585 538 584
f 585 584 614
f 614 584 613
f 614 613 635
f 635 613 634
f 635 634 689
f 689 634 688
f 689 688 693
f 693 688 692
f 586 583 566
f 566 583 535
f 566 535 555
f 555 535 531
f 555 531 568
f 568 531 539
f 568 539 588
f 588 539 585
f 588 585 611
f 611 585 614
f 611 614 630
f 630 614 635
f 630 635 644
f 644 635 689
f 644 689 667
f 667 689 693
f 667 693 642
f 642 693 685
f 642 685 628
f 628 685 633
f 628 633 609
f 609 633 608
f 609 608 586
f 586 608 583
f 522 514 565
f 565 514 562
f 565 562 606
f 606 562 603
f 606 603 638
f 638 603 639
f 638 639 698
f 698 639 704
f 698 704 710
f 710 704 719
f 710 719 701
f 701 719 705
f 701 705 648
f 648 705 655
f 648 655 617
f 617 655 618
f 617 618 581
f 581 618 570
f 581 570 525
f 525 570 519
f 525 519 513
f 513 519 504
f 513 504 522
f 522 504 514
f 713 724 658
f 658 724 666
f 658 666 599
f 599 666 598
f 599 598 545
f 545 598 540
f 545 540 500
f 500 540 494
f 500 494 484
f 484 494 481
f 484 481 507
f 507 481 499
f 507 499 558
f 558 499 557
f 558 557 619
f 619 557 623
f 619 623 675
f 675 623 683
f 675 683 720
f 720 683 733
f 720 733 752
f 752 733 762
f 752 762 713
f 713 762 724
f 684 696 632
f 632 696 636
f 632 636 607
f 607 636 604
f 607 604 582
f 582 604 563
f 582 563 534
f 534 563 520
f 534 520 530
f 530 520 511
f 530 511 538
f 538 511 523
f 538 523 584
f 584 523 579
f 584 579 613
f 613 579 615
f 613 615 634
f 634 615 646
f 634 646 688
f 688 646 699
f 688 699 692
f 692 699 708
f 692 708 684
f 684 708 696
f 749 726 780
f 780 726 772
f 780 772 807
f 807 772 805
f 807 805 821
f 821 805 829
f 821 829 837
f 837 829 845
f 837 845 849
f 849 845 855
f 849 855 841
f 841 855 851
f 841 851 827
f 827 851 831
f 827 831 809
f 809 831 811
f 809 811 785
f 785 811 778
f 785 778 751
f 751 778 735
f 751 735 732
f 732 735 712
f 732 712 749
f 749 712 726
f 836 844 820
f 820 844 828
f 820 828 806
f 806 828 804
f 806 804 779
f 779 804 771
f 779 771 748
f 748 771 725
f 748 725 731
f 731 725 711
f 731 711 750
f 750 711 734
f 750 734 784
f 784 734 777
f 784 777 808
f 808 777 810
f 808 810 826
f 826 810 830
f 826 830 840
f 840 830 850
f 840 850 848
f 848 850 854
f 848 854 836
f 836 854 844
f 877 853 867
f 867 853 843
f 843 853 847
f 843 847 839
f 839 847 835
f 839 835 833
f 833 835 825
f 833 825 823
f 823 825 817
f 823 817 819
f 764 761 703
f 703 761 695
f 703 695 682
f 682 695 657
f 682 657 670
f 670 657 641
f 670 641 691
f 691 641 680
f 691 680 718
f 718 680 707
f 718 707 791
f 791 707 787
f 791 787 817
f 817 787 819
f 759 768 770
f 770 768 776
f 770 776 781
f 781 776 783
f 781 783 799
f 799 783 797
f 799 797 803
f 803 797 793
f 803 793 801
f 801 793 774
f 801 774 789
f 789 774 761
f 789 761 764
f 842 852 866
f 866 852 876
f 818 816 824
f 818 824 822
f 822 824 834
f 822 834 832
f 832 834 846
f 832 846 838
f 838 846 852
f 838 852 842
f 816 818 790
f 790 818 786
f 790 786 717
f 717 786 706
f 717 706 690
f 690 706 679
f 690 679 669
f 669 679 640
f 669 640 681
f 681 640 656
f 681 656 702
f 702 656 694
f 702 694 763
f 763 694 760
f 758 769 767
f 767 769 798
f 767 798 775
f 775 798 782
f 782 798 802
f 782 802 796
f 796 802 800
f 796 800 792
f 792 800 788
f 792 788 773
f 773 788 763
f 773 763 760
f 747 730 865
f 865 730 861
f 730 747 665
f 730 665 654
f 654 665 593
f 654 593 595
f 595 593 529
f 595 529 533
f 533 529 478
f 533 478 483
f 483 478 464
f 483 464 472
f 472 464 470
f 472 470 474
f 474 470 491
f 474 491 496
f 674 652 739
f 674 739 743
f 743 739 815
f 743 815 813
f 813 815 859
f 813 859 857
f 857 859 871
f 857 871 869
f 869 871 881
f 869 881 875
f 875 881 879
f 875 879 873
f 873 879 865
f 873 865 861
f 652 674 491
f 491 674 496
f 862 860 744
f 744 860 729
f 860 862 878
f 860 878 872
f 872 878 880
f 872 880 874
f 874 880 870
f 874 870 868
f 868 870 858
f 868 858 856
f 856 858 814
f 856 814 812
f 812 814 736
f 812 736 742
f 742 736 649
f 742 649 673
f 495 488 467
f 495 467 473
f 473 467 461
f 473 461 471
f 471 461 475
f 471 475 482
f 482 475 526
f 482 526 532
f 532 526 590
f 532 590 594
f 594 590 662
f 594 662 653
f 653 662 744
f 653 744 729
f 488 495 649
f 649 495 673
f 183 191 122
f 122 191 193
f 122 193 196
f 183 122 169
f 169 122 124
f 169 124 156
f 156 124 125
f 156 125 161
f 125 127 161
f 161 127 128
f 161 128 164
f 164 128 130
f 164 130 166
f 122 114 124
f 124 114 112
f 108 127 112
f 112 127 125
f 112 125 124
f 106 130 108
f 108 130 128
f 108 128 127
f 167 131 165
f 165 131 129
f 126 162 129
f 129 162 163
f 129 163 165
f 192 184 194
f 194 184 123
f 194 123 197
f 184 170 123
f 123 170 157
f 123 157 126
f 126 157 158
f 126 158 162
f 122 123 114
f 114 123 115
f 114 31 29
f 114 29 112
f 112 29 27
f 112 27 108
f 108 27 25
f 108 25 106
f 131 107 129
f 129 107 109
f 129 109 126
f 126 109 113
f 126 113 123
f 123 113 115
f 5 13 15
f 25 23 17
f 27 23 25
f 15 13 25
f 7 17 11
f 11 17 23
f 11 23 21
f 21 23 27
f 21 27 29
f 1 7 3
f 3 7 11
f 3 11 9
f 9 11 21
f 9 21 19
f 19 21 29
f 19 29 31
f 1 5 7
f 7 5 15
f 7 15 17
f 17 15 25
f 32 115 113
f 32 113 30
f 30 113 109
f 30 109 28
f 28 109 107
f 28 107 26
f 2 1 3
f 2 3 4
f 4 3 9
f 4 9 10
f 10 9 19
f 10 19 20
f 20 19 31
f 20 31 32
f 1 33 38
f 1 38 5
f 5 38 48
f 5 48 13
f 13 48 63
f 13 63 25
f 30 28 24
f 26 16 18
f 14 16 26
f 24 28 26
f 22 18 12
f 12 18 16
f 12 16 8
f 8 16 14
f 8 14 6
f 32 22 20
f 20 22 12
f 20 12 10
f 10 12 8
f 10 8 4
f 4 8 6
f 4 6 2
f 32 30 22
f 22 30 24
f 22 24 18
f 18 24 26
f 69 66 61
f 63 50 54
f 48 50 63
f 61 66 63
f 59 54 47
f 47 54 50
f 47 50 41
f 41 50 48
f 41 48 38
f 72 59 56
f 56 59 47
f 56 47 44
f 44 47 41
f 44 41 36
f 36 41 38
f 36 38 33
f 72 69 59
f 59 69 61
f 59 61 54
f 54 61 63
f 35 34 2
f 35 2 39
f 39 2 6
f 39 6 42
f 42 6 14
f 42 14 49
f 49 14 52
f 52 14 26
f 52 26 64
f 73 72 56
f 73 56 57
f 57 56 44
f 57 44 45
f 45 44 36
f 45 36 37
f 37 36 33
f 37 33 34
f 72 146 144
f 72 144 69
f 69 144 142
f 69 142 66
f 66 142 138
f 66 138 63
f 154 226 224
f 154 224 152
f 152 224 222
f 152 222 150
f 150 222 220
f 150 220 148
f 39 42 43
f 49 52 53
f 64 62 55
f 65 62 64
f 53 52 64
f 43 55 51
f 51 55 62
f 51 62 60
f 60 62 65
f 42 49 43
f 43 49 53
f 43 53 55
f 55 53 64
f 34 35 40
f 40 35 39
f 65 67 60
f 60 67 68
f 60 68 70
f 39 43 40
f 40 43 51
f 40 51 46
f 46 51 60
f 46 60 58
f 58 60 70
f 58 70 71
f 34 40 37
f 37 40 46
f 37 46 45
f 45 46 58
f 45 58 57
f 57 58 71
f 57 71 73
f 146 154 144
f 144 154 152
f 144 152 142
f 142 152 150
f 142 150 138
f 138 150 148
f 73 71 147
f 147 71 145
f 71 70 145
f 145 70 68
f 145 68 143
f 64 139 65
f 65 139 143
f 65 143 67
f 67 143 68
f 146 147 154
f 154 147 155
f 139 149 143
f 143 149 151
f 143 151 145
f 145 151 153
f 145 153 147
f 147 153 155
f 227 155 153
f 227 153 225
f 225 153 151
f 225 151 223
f 223 151 149
f 223 149 221
f 273 280 267
f 224 226 242
f 242 226 228
f 242 228 240
f 240 228 230
f 240 230 232
f 273 267 263
f 263 267 236
f 263 236 253
f 244 246 238
f 236 234 220
f 220 222 236
f 236 222 238
f 236 238 253
f 253 238 246
f 222 224 238
f 238 224 242
f 238 242 244
f 244 242 240
f 244 240 248
f 248 240 232
f 248 232 256
f 256 232 250
f 256 250 261
f 261 250 259
f 261 259 270
f 270 259 265
f 270 265 275
f 275 265 271
f 275 271 281
f 234 236 252
f 252 236 267
f 252 267 257
f 257 267 280
f 257 280 277
f 277 212 205
f 277 205 257
f 257 205 187
f 257 187 252
f 252 187 173
f 252 173 234
f 234 173 166
f 234 166 220
f 171 172 186
f 164 166 173
f 159 156 161
f 159 161 168
f 190 188 185
f 185 188 178
f 164 172 161
f 161 172 171
f 161 171 168
f 168 171 178
f 178 171 185
f 185 171 186
f 185 186 190
f 190 186 202
f 190 202 201
f 201 202 210
f 201 210 207
f 164 173 172
f 172 173 187
f 172 187 186
f 186 187 205
f 186 205 202
f 202 205 212
f 202 212 210
f 168 178 180
f 168 169 159
f 159 169 156
f 168 180 169
f 169 180 203
f 169 203 183
f 183 203 214
f 183 214 191
f 191 214 216
f 191 216 193
f 193 216 218
f 193 218 196
f 197 196 219
f 219 196 218
f 160 157 170
f 181 179 174
f 160 170 174
f 174 170 181
f 181 170 184
f 181 184 204
f 204 184 192
f 204 192 215
f 215 192 194
f 215 194 217
f 217 194 197
f 217 197 219
f 182 189 175
f 175 162 158
f 157 160 158
f 158 160 174
f 158 174 175
f 175 174 179
f 175 179 182
f 208 211 200
f 200 211 198
f 200 198 195
f 167 165 176
f 176 165 163
f 195 198 189
f 189 198 176
f 189 176 175
f 175 176 163
f 175 163 162
f 167 176 177
f 177 176 198
f 177 198 199
f 199 198 211
f 199 211 213
f 213 278 199
f 199 278 258
f 199 258 177
f 177 258 235
f 177 235 167
f 167 235 221
f 223 221 235
f 260 269 266
f 247 241 243
f 269 260 264
f 266 269 272
f 272 269 274
f 272 274 282
f 262 254 239
f 239 254 249
f 239 249 243
f 243 249 245
f 243 245 247
f 239 237 262
f 262 237 268
f 262 268 276
f 276 268 283
f 264 260 255
f 255 260 251
f 255 251 247
f 247 251 233
f 247 233 241
f 241 233 231
f 241 231 243
f 223 237 225
f 225 237 239
f 225 239 227
f 227 239 243
f 227 243 229
f 229 243 231
f 223 235 237
f 237 235 258
f 237 258 268
f 268 258 278
f 268 278 283
f 396 395 407
f 396 407 408
f 408 407 419
f 408 419 420
f 420 419 445
f 420 445 446
f 396 378 395
f 395 378 377
f 318 317 332
f 332 317 331
f 332 331 348
f 348 331 347
f 348 347 362
f 362 347 361
f 362 361 372
f 372 361 371
f 372 371 378
f 378 371 377
f 294 293 302
f 302 293 301
f 302 301 310
f 310 301 309
f 310 309 314
f 314 309 313
f 314 313 318
f 318 313 317
f 294 286 293
f 293 286 285
f 306 305 298
f 298 305 297
f 298 297 290
f 290 297 289
f 290 289 286
f 286 289 285
f 366 365 355
f 366 355 356
f 356 355 343
f 356 343 344
f 344 343 335
f 344 335 336
f 336 335 325
f 336 325 326
f 326 325 305
f 326 305 306
f 366 386 365
f 365 386 385
f 416 415 404
f 404 415 403
f 404 403 392
f 392 403 391
f 392 391 386
f 386 391 385
f 432 431 426
f 426 431 425
f 426 425 416
f 416 425 415
f 450 449 442
f 442 449 441
f 442 441 438
f 438 441 437
f 438 437 432
f 432 437 431
f 450 552 449
f 449 552 551
f 516 515 542
f 542 515 541
f 542 541 572
f 572 541 571
f 572 571 576
f 576 571 575
f 576 575 552
f 552 575 551
f 446 445 455
f 446 455 456
f 456 455 515
f 456 515 516
f 450 442 438
f 572 576 552
f 432 456 516
f 438 432 450
f 450 432 516
f 450 516 552
f 552 516 542
f 552 542 572
f 298 290 286
f 386 366 378
f 378 366 356
f 378 356 372
f 372 356 344
f 372 344 362
f 362 344 336
f 362 336 348
f 348 336 326
f 348 326 332
f 332 326 306
f 332 306 298
f 432 426 456
f 456 426 416
f 456 416 446
f 446 416 404
f 446 404 420
f 420 404 392
f 420 392 408
f 408 392 386
f 408 386 396
f 396 386 378
f 294 302 310
f 298 286 332
f 332 286 294
f 332 294 318
f 318 294 310
f 318 310 314
f 447 448 422
f 447 422 421
f 421 422 410
f 421 410 409
f 409 410 398
f 409 398 397
f 517 518 458
f 517 458 457
f 457 458 448
f 457 448 447
f 553 554 577
f 577 554 578
f 577 578 573
f 573 578 574
f 573 574 543
f 543 574 544
f 543 544 517
f 517 544 518
f 553 451 554
f 554 451 452
f 433 434 439
f 439 434 440
f 439 440 443
f 443 440 444
f 443 444 451
f 451 444 452
f 417 418 427
f 427 418 428
f 427 428 433
f 433 428 434
f 387 388 393
f 393 388 394
f 393 394 405
f 405 394 406
f 405 406 417
f 417 406 418
f 387 367 388
f 388 367 368
f 307 308 328
f 307 328 327
f 327 328 338
f 327 338 337
f 337 338 346
f 337 346 345
f 345 346 358
f 345 358 357
f 357 358 368
f 357 368 367
f 287 288 291
f 291 288 292
f 291 292 299
f 299 292 300
f 299 300 307
f 307 300 308
f 287 295 288
f 288 295 296
f 319 320 315
f 315 320 316
f 315 316 311
f 311 316 312
f 311 312 303
f 303 312 304
f 303 304 295
f 295 304 296
f 379 380 373
f 373 380 374
f 373 374 363
f 363 374 364
f 363 364 349
f 349 364 350
f 349 350 333
f 333 350 334
f 333 334 319
f 319 334 320
f 379 397 380
f 380 397 398
f 427 457 417
f 417 457 447
f 417 447 405
f 553 577 573
f 439 443 433
f 433 443 451
f 427 433 457
f 457 433 451
f 457 451 517
f 517 451 553
f 517 553 543
f 543 553 573
f 405 447 393
f 393 447 421
f 393 421 387
f 379 367 397
f 397 367 387
f 397 387 409
f 409 387 421
f 319 295 333
f 333 295 287
f 333 287 291
f 291 299 333
f 333 299 307
f 333 307 349
f 349 307 327
f 349 327 363
f 363 327 337
f 363 337 373
f 373 337 345
f 373 345 379
f 379 345 357
f 379 357 367
f 319 315 295
f 295 315 311
f 295 311 303
